<?xml version="1.0" standalone="no"?>
<!DOCTYPE svg PUBLIC "-//W3C//DTD SVG 20010904//EN"
 "http://www.w3.org/TR/2001/REC-SVG-20010904/DTD/svg10.dtd">
<svg version="1.0" xmlns="http://www.w3.org/2000/svg"
 width="512.000000pt" height="512.000000pt" viewBox="0 0 512.000000 512.000000"
 preserveAspectRatio="xMidYMid meet">
<metadata>
Created by potrace 1.14, written by Peter Selinger 2001-2017
</metadata>
<g transform="translate(0.000000,512.000000) scale(0.100000,-0.100000)"
fill="#000000" stroke="none">
<path d="M2408 5069 c-816 -46 -1564 -499 -1994 -1205 -169 -279 -281 -587
-335 -924 -18 -110 -22 -179 -23 -370 -1 -250 10 -354 59 -570 163 -726 669
-1363 1340 -1690 172 -83 271 -121 434 -166 791 -217 1620 -43 2260 472 470
379 792 941 897 1564 25 148 30 514 10 680 -49 401 -185 770 -407 1100 -258
387 -649 716 -1067 899 -262 115 -561 191 -817 206 -185 11 -223 12 -357 4z
m1408 -1193 c22 -66 50 -129 63 -142 16 -16 64 -37 144 -62 170 -53 169 -69
-9 -126 -71 -23 -118 -44 -133 -60 -13 -14 -39 -74 -60 -143 -34 -106 -40
-118 -61 -118 -21 0 -27 12 -62 115 -49 149 -60 159 -207 204 -169 52 -170 69
-7 122 165 53 163 51 211 214 48 162 64 161 121 -4z m-2194 -206 c265 -22 535
-116 783 -273 99 -63 137 -92 454 -340 509 -401 692 -521 891 -588 83 -28 108
-32 200 -32 181 1 327 43 663 193 l199 89 -7 -52 c-11 -89 -46 -229 -76 -305
-165 -418 -451 -678 -868 -790 -88 -23 -114 -25 -301 -26 -178 -1 -219 2 -309
22 -166 37 -304 87 -486 177 -321 158 -534 319 -920 695 -94 91 -211 194 -260
229 -175 125 -334 181 -509 181 -172 0 -418 -68 -659 -183 -70 -33 -130 -58
-132 -55 -9 9 24 154 52 232 59 165 170 341 294 465 201 203 481 335 769 361
47 4 90 8 95 8 6 1 63 -3 127 -8z m-411 -2255 c90 -47 90 -193 0 -240 -67 -34
-154 -7 -185 59 -57 121 66 242 185 181z"/>
</g>
</svg>
