<svg width="76" height="26" viewBox="0 0 76 26" fill="none" xmlns="http://www.w3.org/2000/svg">
<path d="M75.4531 4.42094H72.7314V1.14184C72.7314 0.96811 72.6539 0.807837 72.5187 0.701921C72.3876 0.599052 72.2194 0.562477 72.0594 0.602608L69.6649 1.19188C69.4197 1.25233 69.2485 1.47407 69.2485 1.73137V4.42094H67.8839C67.5826 4.42094 67.3374 4.67087 67.3374 4.97821V6.96268C67.3374 7.27002 67.5826 7.52021 67.8842 7.52021H69.2485V15.5264C69.2795 18.9297 71.457 19.3986 73.8053 19.3986C74.0375 19.3986 74.2697 19.392 74.5055 19.3849C74.7435 19.3778 74.9849 19.3704 75.2336 19.3704L75.2613 19.3686C75.5814 19.3275 75.7801 19.1037 75.7801 18.7847V16.6582C75.7801 16.3509 75.5349 16.1012 75.2336 16.1012H74.4097C73.2176 16.1012 72.7314 15.5727 72.7314 14.277V7.52021H75.4531C75.7547 7.52021 75.9996 7.27002 75.9996 6.96268V4.97821C75.9996 4.67087 75.7547 4.42094 75.4531 4.42094Z" fill="white"/>
<path d="M60.8117 4.19409C59.3864 4.19409 58.2696 4.63325 57.4858 5.50014V4.97818C57.4858 4.66043 57.2508 4.42091 56.9391 4.42091H54.4125C54.1005 4.42091 53.8655 4.66043 53.8655 4.97818V18.7847C53.8655 19.1024 54.1005 19.3422 54.4125 19.3422H56.9391C57.2508 19.3422 57.4858 19.1024 57.4858 18.7847V10.1379C57.4858 8.5382 58.4581 7.46328 59.9055 7.46328C61.3582 7.46328 62.2974 8.52423 62.2974 10.1661V18.7847C62.2974 19.1024 62.5322 19.3422 62.8439 19.3422H65.3708C65.6825 19.3422 65.9175 19.1024 65.9175 18.7847V9.48586C65.9175 6.27128 63.9135 4.19409 60.8117 4.19409Z" fill="white"/>
<path d="M48.0708 10.4026H42.6929C42.7244 9.92841 42.7854 9.5972 42.8939 9.30688L42.8989 9.29189C43.249 8.09557 44.0887 7.46337 45.327 7.46337C46.6605 7.46337 47.6049 8.18853 47.9217 9.46766C47.989 9.67492 48.0416 10.0092 48.0708 10.4026ZM45.327 4.19418C42.3921 4.19418 40.1683 5.85329 39.3792 8.62744C39.1206 9.45547 39.0096 10.489 39.04 11.7821C39.04 13.3721 39.2522 14.6517 39.6864 15.6885C40.6475 18.1526 42.7468 19.5409 45.5991 19.597C45.6339 19.5975 45.6687 19.5978 45.7038 19.5978C48.0779 19.5978 50.1142 18.6161 51.3047 16.8894C51.4732 16.6283 51.4295 16.367 51.1805 16.1528L49.4786 14.7081C49.3203 14.5717 49.1729 14.559 49.0766 14.5702C48.975 14.5834 48.8256 14.6398 48.6905 14.8349C48.0134 15.8257 47.0757 16.3279 45.907 16.3279C44.3125 16.3022 43.2999 15.6568 42.889 14.3881C42.7681 14.1133 42.715 13.714 42.6683 13.2753H51.1772C51.5032 13.2753 51.7224 13.0528 51.7239 12.7211C51.7526 11.763 51.7486 11.0107 51.6401 10.2266C51.1785 6.22361 49.0545 4.19418 45.327 4.19418Z" fill="white"/>
<path d="M33.2751 11.7542C33.2751 13.3176 33.2159 13.7209 33.0897 14.2164C32.8021 15.4031 31.9319 16.0838 30.7018 16.0838C29.4858 16.0838 28.5407 15.3704 28.1683 14.1611C28.0504 13.8563 27.9097 13.1966 27.9097 11.7824C27.9097 10.6648 28.0087 9.9013 28.2267 9.36562C28.6289 8.15025 29.5211 7.45302 30.6743 7.45302C31.8956 7.45302 32.7881 8.16091 33.0648 9.358C33.2141 9.8726 33.2751 10.2333 33.2751 11.7542ZM36.3375 4.42081H33.8206C33.5096 4.42081 33.2751 4.65982 33.2751 4.97681V5.35146C32.4395 4.57372 31.3527 4.19501 29.963 4.19501C27.5042 4.19501 25.4961 5.70273 24.7243 8.12434C24.3254 9.26453 24.2743 10.6783 24.2743 11.7824C24.2743 13.2317 24.3897 14.3353 24.6392 15.2619C25.5093 18.1661 28.0588 19.2006 30.1545 19.2006C31.4604 19.2006 32.5094 18.8323 33.2746 18.1079C33.2604 19.3215 32.9423 20.195 32.3036 20.7764C31.467 21.5376 30.0511 21.8115 27.9544 21.6149C27.4125 21.6149 27.354 21.9837 27.354 22.1345L27.272 24.4581C27.272 24.7832 27.4551 25.0009 27.7676 25.0415C28.2869 25.0951 28.792 25.122 29.2795 25.122C31.6248 25.122 33.5777 24.5056 34.8754 23.3362C36.2075 22.1353 36.8828 20.3764 36.8828 18.1082V4.97681C36.8828 4.65982 36.6483 4.42081 36.3375 4.42081Z" fill="white"/>
<path d="M23.047 4.47933C22.6631 4.32566 22.2401 4.25099 21.7536 4.25099C20.4615 4.25099 19.4094 4.77625 18.6198 5.81357V4.97843C18.6198 4.6711 18.3746 4.42091 18.0731 4.42091H15.5462C15.2446 4.42091 14.9994 4.67084 14.9994 4.97818V18.7847C14.9994 19.092 15.2449 19.3422 15.5464 19.3422H18.0731C18.3746 19.3422 18.6198 19.092 18.6198 18.7847V10.7617C18.6198 9.03197 19.8687 8.1859 21.1246 8.11326C21.5605 8.05205 21.8072 8.07211 22.0854 8.12723C22.3959 8.1887 22.689 7.9982 22.7584 7.69315L23.4286 5.23015C23.4967 4.91671 23.3326 4.59388 23.047 4.47933Z" fill="white"/>
<path d="M8.8309 12.8784V14.1354C8.8309 15.6322 7.27962 16.5265 5.77966 16.5265C4.76952 16.5265 3.68977 16.0846 3.68977 14.844C3.68977 13.5949 4.75173 12.8784 6.60357 12.8784H8.8309ZM6.43894 4.19421C3.64734 4.19421 1.41899 5.47334 0.761995 7.45324C0.706102 7.62164 0.725411 7.80452 0.814586 7.95539C0.898171 8.09661 1.03638 8.19491 1.19491 8.22615L3.68545 8.85098C3.94637 8.89899 4.20602 8.75904 4.30637 8.51825C4.59117 7.83804 5.37748 7.4634 6.52125 7.4634C8.03214 7.4634 8.8309 8.19211 8.8309 9.57106V10.1761H5.97198C2.25891 10.1761 0.0419922 12.0059 0.0419922 15.0711C0.0419922 18.3873 2.59478 19.5689 4.98344 19.5689C6.58553 19.5689 7.90969 19.0924 8.8309 18.1912V18.7848C8.8309 19.0921 9.07632 19.3421 9.37789 19.3421H11.9043C12.2058 19.3421 12.4512 19.0921 12.4512 18.7848V9.23096C12.4512 6.2653 9.97899 4.19421 6.43894 4.19421Z" fill="white"/>
</svg>
