<svg width="112" height="112" viewBox="0 0 112 112" fill="none" xmlns="http://www.w3.org/2000/svg">
    <path
        d="M66.6794 19H45.3205C44.6067 19 44.0349 19.6092 44.0193 20.3665C43.5878 41.6523 33.0936 61.855 15.0309 76.1647C14.4574 76.6188 14.3268 77.4723 14.746 78.087L27.2428 96.4236C27.6679 97.0477 28.4963 97.1885 29.0794 96.7301C40.3735 87.8411 49.4579 77.1179 55.9999 65.2324C62.542 77.1179 71.6269 87.8411 82.921 96.7301C83.5036 97.1885 84.3319 97.0477 84.7576 96.4236L97.2544 78.087C97.6731 77.4723 97.5424 76.6188 96.9695 76.1647C78.9063 61.855 68.4121 41.6523 67.981 20.3665C67.9655 19.6092 67.3931 19 66.6794 19Z"
        fill="white" />
</svg>