<svg width="300" height="300" viewBox="0 0 300 300" fill="none" xmlns="http://www.w3.org/2000/svg">
<rect width="300" height="300" fill="#F8545C"/>
<path fill-rule="evenodd" clip-rule="evenodd" d="M171.473 228.874C232.576 224.178 275.367 166.266 271.799 118.882C268.684 78.9977 226.013 58.5854 170.284 62.8395C104.132 67.9506 48.8526 105.591 52.1394 149.557C55.6024 193.673 115.744 233.128 171.473 228.874ZM171.02 146.344C172.295 147.367 173.161 147.277 173.738 147.216C175.47 147.034 176.361 145.783 176.18 144.066C175.46 137.197 165.78 121.429 147.017 123.398C127.57 125.124 117.078 139.85 118.805 156.307C119.285 160.887 121.627 165.127 124.947 164.778C126.101 164.657 127.325 163.805 127.464 162.344C129.198 148.272 140.537 142.119 151.01 141.02C156.494 140.444 164.475 141.518 171.02 146.344ZM201.394 140.987C200.778 142.064 200.071 142.283 199.205 142.374C197.906 142.51 196.601 141.2 196.391 139.197C194.904 125.029 204.946 112.256 220.534 110.62C236.555 108.939 249.347 119.606 250.954 134.919C251.209 137.352 250.923 141.578 248.325 141.85C247.459 141.941 246.563 141.746 245.851 140.518C238.732 129.69 228.617 127.858 219.668 128.797C211.442 129.66 205.695 133.301 201.394 140.987Z" fill="white"/>
</svg>
