<?xml version="1.0" encoding="utf-8"?>
<svg xmlns="http://www.w3.org/2000/svg" width="1000" height="1000" viewBox="0 0 1000 1000" fill="none">
<rect width="1000" height="1000" fill="#3861F5"/>
<path d="M234.932 357.867C234.932 336.339 240.174 316.59 250.656 298.619C261.139 280.649 275.553 266.422 293.898 255.939C312.431 245.269 333.022 239.934 355.673 239.934C369.712 239.934 380.195 239.934 387.121 239.934C394.048 239.934 404.343 239.934 418.009 239.934H476.413V475.799H418.009C403.969 475.799 393.486 475.799 386.56 475.799C379.634 475.799 369.338 475.799 355.673 475.799C333.022 475.799 312.431 470.558 293.898 460.075C275.553 449.405 261.139 435.084 250.656 417.114C240.174 399.143 234.932 379.394 234.932 357.867ZM297.268 357.867C297.268 369.66 299.889 380.33 305.13 389.877C310.559 399.424 318.234 406.912 328.155 412.34C338.076 417.769 349.495 420.483 362.412 420.483C371.959 420.483 379.072 420.483 383.752 420.483C388.432 420.483 393.112 420.483 397.792 420.483C402.471 420.483 409.585 420.483 419.132 420.483V295.25C409.585 295.25 402.471 295.25 397.792 295.25C393.112 295.25 388.432 295.25 383.752 295.25C379.072 295.25 371.959 295.25 362.412 295.25C349.495 295.25 338.076 297.964 328.155 303.393C318.234 308.822 310.559 316.309 305.13 325.856C299.889 335.403 297.268 346.073 297.268 357.867Z" fill="white"/>
<path d="M578.06 295.25L640.115 420.483H642.642L704.697 295.25H641.519V239.934H765.068V295.811L681.111 475.799H601.647L517.971 296.092V239.934H641.519V295.25H578.06Z" fill="white"/>
<path d="M240.548 524.47H298.953C312.618 524.47 322.82 524.47 329.559 524.47C336.298 524.47 346.313 524.47 359.604 524.47C379.072 524.47 393.673 524.47 403.407 524.47C413.142 524.47 422.876 524.47 432.61 524.47C442.344 524.47 456.945 524.47 476.413 524.47V760.335H358.481V705.019H419.132V579.786C409.023 579.786 401.442 579.786 396.388 579.786C391.521 579.786 386.56 579.786 381.506 579.786C376.639 579.786 369.151 579.786 359.042 579.786C348.934 579.786 341.259 579.786 336.017 579.786C330.963 579.786 325.815 579.786 320.574 579.786C315.519 579.786 307.938 579.786 297.83 579.786V705.019H358.481V760.335H240.548V524.47Z" fill="white"/>
<path d="M702.17 579.786H641.238V524.47H759.452V647.738H702.17V579.786ZM641.519 765.67C619.992 765.67 600.149 760.522 581.991 750.227C564.02 739.931 549.794 725.798 539.311 707.827C528.828 689.669 523.586 669.639 523.586 647.738V524.47H641.238V579.786H580.868V647.176C580.868 658.969 583.582 669.546 589.011 678.905C594.44 688.265 601.74 695.566 610.913 700.807C620.085 706.049 630.287 708.669 641.519 708.669C652.751 708.669 662.953 706.049 672.125 700.807C681.298 695.566 688.599 688.265 694.027 678.905C699.456 669.546 702.17 658.969 702.17 647.176H704.978L759.452 647.738C759.452 669.639 754.21 689.669 743.727 707.827C733.244 725.798 718.924 739.931 700.766 750.227C682.796 760.522 663.046 765.67 641.519 765.67Z" fill="white"/>
</svg>