<?xml version="1.0" encoding="UTF-8"?> <svg xmlns="http://www.w3.org/2000/svg" width="153" height="25" viewBox="0 0 153 25" fill="none"><path d="M86.8965 24.0017C86.8965 24.6653 86.573 24.9999 85.9317 24.9999H82.5969C82.3014 24.9999 82.0671 24.894 81.8943 24.6821L67.3058 7.79606V24.0017C67.3058 24.6709 66.9824 24.9999 66.3411 24.9999H63.3854C62.7441 24.9999 62.4263 24.6653 62.4263 24.0017V1.48332C62.4263 0.819705 62.7441 0.485107 63.3854 0.485107H67.0437C67.3393 0.485107 67.5958 0.607793 67.8189 0.853164L82.0169 17.3432V1.48332C82.0169 0.819705 82.3404 0.485107 82.9761 0.485107H85.9317C86.573 0.485107 86.8909 0.819705 86.8909 1.48332V24.0017H86.8965Z" fill="#111730"></path><path d="M118.321 23.4106C118.466 23.5835 118.544 23.7954 118.544 24.0408C118.544 24.6821 118.226 24.9999 117.585 24.9999H113.296C112.979 24.9999 112.716 24.8884 112.521 24.6653L105.79 16.2L99.0984 24.5928C98.8753 24.8661 98.6021 24.9999 98.2842 24.9999H93.9958C93.3322 24.9999 92.9976 24.6821 92.9976 24.0408C92.9976 23.7954 93.0812 23.5723 93.2541 23.3771L102.601 12.1793L94.3917 2.11906C94.2467 1.9183 94.1742 1.70081 94.1742 1.44986C94.1742 0.808551 94.4921 0.485107 95.1334 0.485107H99.1988C99.5445 0.485107 99.8122 0.618946 100.013 0.892201L105.779 8.21431L111.545 0.858741C111.741 0.61337 112.003 0.490684 112.321 0.490684H116.386C117.027 0.490684 117.345 0.814128 117.345 1.45544C117.345 1.70081 117.273 1.92388 117.128 2.12463L108.93 12.1737L118.321 23.4106Z" fill="#111730"></path><path d="M138.04 6.26255L146.148 20.3045H129.937L138.04 6.26255ZM135.346 1.55588L123.847 21.4756C123.429 22.2005 123.429 23.0928 123.847 23.8178C124.266 24.5427 125.041 24.9888 125.877 24.9888H150.202C151.039 24.9888 151.814 24.5427 152.232 23.8178C152.651 23.0928 152.651 22.2005 152.232 21.4756L140.728 1.55588C140.176 0.596699 139.144 0 138.04 0C136.93 0 135.904 0.596699 135.346 1.55588Z" fill="url(#paint0_linear)"></path><path d="M55.0873 24.9888H30.762C29.9255 24.9888 29.1504 24.5427 28.7321 23.8178C28.3139 23.0928 28.3139 22.2005 28.7321 21.4756L40.2311 1.55588C40.7832 0.596699 41.8149 0 42.9246 0C44.0344 0 45.0605 0.596699 45.6182 1.55588L57.1172 21.4756C57.5354 22.2005 57.5354 23.0928 57.1172 23.8178C56.6933 24.5371 55.9238 24.9888 55.0873 24.9888ZM34.8162 20.3045H51.0275L42.9246 6.26255L34.8162 20.3045Z" fill="#111730"></path><path d="M24.2711 17.7894C24.2711 19.7858 23.5573 21.4867 22.1241 22.892C20.6965 24.2973 18.9566 24.9999 16.9099 24.9999H1.1281C0.46448 24.9999 0.129883 24.6653 0.129883 24.0017V1.48332C0.129883 0.819705 0.46448 0.485107 1.1281 0.485107H15.6608C17.6795 0.485107 19.4138 1.19334 20.8582 2.6098C22.3025 4.02626 23.0219 5.73271 23.0219 7.72914C23.0219 9.35751 22.5144 10.8242 21.5051 12.1291C23.3509 13.5623 24.2711 15.4472 24.2711 17.7894ZM18.0253 7.71241C18.0253 6.92053 17.7855 6.25133 17.3003 5.70483C16.8207 5.15832 16.2463 4.88506 15.5771 4.88506H5.97418C5.33287 4.88506 5.00943 5.20851 5.00943 5.85539V9.575C5.00943 10.2219 5.33287 10.5398 5.97418 10.5398H15.5771C16.2463 10.5398 16.8207 10.2609 17.3003 9.70326C17.7855 9.1456 18.0253 8.48198 18.0253 7.71241ZM19.28 17.7894C19.28 17.0031 19.0402 16.3283 18.555 15.7762C18.0755 15.2241 17.5011 14.9453 16.8319 14.9453H5.97418C5.33287 14.9453 5.00943 15.2799 5.00943 15.9435V19.6018C5.00943 20.2654 5.33287 20.6 5.97418 20.6H16.8374C17.5066 20.6 18.081 20.3212 18.5606 19.7691C19.0402 19.2114 19.28 18.5534 19.28 17.7894Z" fill="#111730"></path><defs><linearGradient id="paint0_linear" x1="123.533" y1="12.4933" x2="152.543" y2="12.4933" gradientUnits="userSpaceOnUse"><stop stop-color="#0172D0"></stop><stop offset="0.0644" stop-color="#0181CD"></stop><stop offset="0.2231" stop-color="#019FC8"></stop><stop offset="0.3899" stop-color="#00B7C3"></stop><stop offset="0.5666" stop-color="#00C8C0"></stop><stop offset="0.7597" stop-color="#00D2BF"></stop><stop offset="1" stop-color="#00D5BE"></stop></linearGradient></defs></svg> 