<svg width="40" height="40" viewBox="0 0 40 40" fill="none" xmlns="http://www.w3.org/2000/svg">
    <g clip-path="url(#clip0_1242_53309)">
        <path d="M0 20C0 8.95431 8.95431 0 20 0V0C31.0457 0 40 8.95431 40 20V20C40 31.0457 31.0457 40 20 40V40C8.95431 40 0 31.0457 0 20V20Z" fill="black"/>
        <rect x="-4" y="-52" width="119" height="119" fill="url(#paint0_linear_1242_53309)"/>
        <path d="M24.4508 6.08378C24.4962 6.1607 24.4359 6.25562 24.3463 6.25562C22.5348 6.25562 21.0622 7.68994 21.0277 9.47227C20.4074 9.35645 19.7646 9.34774 19.1297 9.45473C19.0858 7.68054 17.617 6.25562 15.8114 6.25562C15.7218 6.25562 15.6615 6.16063 15.7069 6.08365C16.5837 4.59819 18.2133 3.60001 20.0788 3.60001C21.9443 3.60001 23.574 4.59825 24.4508 6.08378Z" fill="url(#paint1_linear_1242_53309)"/>
        <path d="M30.0192 17.1683C30.5436 17.3271 31.0395 16.8678 30.8553 16.3534C29.2052 11.7445 23.9951 9.86148 20.054 9.86148C16.106 9.86148 10.7797 11.8047 9.24975 16.3773C9.07877 16.8883 9.57332 17.3322 10.0899 17.1739L19.6532 14.2433C19.8825 14.173 20.1276 14.1726 20.3571 14.2421L30.0192 17.1683Z" fill="url(#paint2_linear_1242_53309)"/>
        <path d="M9.2282 17.9656L19.6606 14.8013C19.8886 14.7322 20.1319 14.732 20.36 14.8008L30.8576 17.9671C31.7292 18.23 32.3257 19.033 32.3257 19.9434V29.4289C32.2853 31.7442 30.2055 33.6 27.8911 33.6H24.0469C23.6669 33.6 23.3592 33.2926 23.3592 32.9126V29.5869C23.3592 28.2774 24.1342 27.0921 25.3334 26.5675C26.9409 25.8643 28.8426 24.9131 29.2003 23.0044C29.3157 22.3883 28.914 21.794 28.2996 21.6719C26.7459 21.363 25.0235 21.4823 23.5669 22.1339C21.9133 22.8735 21.4808 24.1038 21.3206 25.7562L21.1265 27.5363C21.0672 28.0803 20.5572 28.4971 20.0102 28.4971C19.4444 28.4971 19.0201 28.0661 18.9587 27.5033L18.7682 25.7562C18.6311 24.3409 18.3824 22.966 16.9194 22.3116C15.2505 21.5651 13.5734 21.3172 11.7893 21.6719C11.1748 21.794 10.7731 22.3883 10.8886 23.0044C11.2494 24.9297 13.1362 25.8591 14.7555 26.5675C15.9547 27.0921 16.7297 28.2774 16.7297 29.5869V32.912C16.7297 33.292 16.422 33.6 16.0421 33.6H12.1978C9.88341 33.6 7.8036 31.7442 7.76318 29.4289V19.9409C7.76318 19.0317 8.35812 18.2295 9.2282 17.9656Z" fill="url(#paint3_linear_1242_53309)"/>
    </g>
    <defs>
        <linearGradient id="paint0_linear_1242_53309" x1="55.5" y1="-52" x2="55.5" y2="67" gradientUnits="userSpaceOnUse">
            <stop stop-color="#1D3884"/>
            <stop offset="1" stop-color="#080B1E"/>
        </linearGradient>
        <linearGradient id="paint1_linear_1242_53309" x1="19.8036" y1="1.98001" x2="30.5748" y2="33.7421" gradientUnits="userSpaceOnUse">
            <stop stop-color="#F5D45E"/>
            <stop offset="1" stop-color="#FF9600"/>
        </linearGradient>
        <linearGradient id="paint2_linear_1242_53309" x1="19.8036" y1="1.98001" x2="30.5748" y2="33.7421" gradientUnits="userSpaceOnUse">
            <stop stop-color="#F5D45E"/>
            <stop offset="1" stop-color="#FF9600"/>
        </linearGradient>
        <linearGradient id="paint3_linear_1242_53309" x1="19.8036" y1="1.98001" x2="30.5748" y2="33.7421" gradientUnits="userSpaceOnUse">
            <stop stop-color="#F5D45E"/>
            <stop offset="1" stop-color="#FF9600"/>
        </linearGradient>
        <clipPath id="clip0_1242_53309">
            <path d="M0 20C0 8.95431 8.95431 0 20 0V0C31.0457 0 40 8.95431 40 20V20C40 31.0457 31.0457 40 20 40V40C8.95431 40 0 31.0457 0 20V20Z" fill="white"/>
        </clipPath>
    </defs>
</svg>
