<svg width="500" height="500" viewBox="0 0 500 500" fill="none" xmlns="http://www.w3.org/2000/svg">
<path d="M323.44 41.3886C324.198 42.6728 323.195 44.2603 321.704 44.2603C291.51 44.2603 266.965 68.1656 266.389 97.871C256.05 95.9407 245.337 95.7956 234.754 97.5787C234.023 68.009 209.54 44.2603 179.445 44.2603C177.953 44.2603 176.949 42.6716 177.707 41.3865C192.323 16.633 219.483 0 250.573 0C281.664 0 308.824 16.6339 323.44 41.3886Z" fill="white"/>
<path d="M418.756 226.894C426.37 229.2 433.581 222.517 431.036 214.979C404.507 136.401 316.535 104.358 250.159 104.358C183.674 104.358 93.7391 137.418 69.3051 215.331C66.9574 222.818 74.1465 229.275 81.6479 226.977L244.25 177.151C247.569 176.134 251.116 176.128 254.439 177.135L418.756 226.894Z" fill="white"/>
<path d="M69.7165 239.426L244.37 186.456C247.669 185.456 251.191 185.453 254.492 186.448L430.232 239.452C444.76 243.833 454.701 257.216 454.701 272.39V430.481C454.028 469.07 419.362 500 380.786 500H316.712C310.379 500 305.25 494.877 305.25 488.543V433.115C305.25 411.289 318.167 391.535 338.155 382.792C364.949 371.071 396.646 355.218 402.608 323.406C404.532 313.138 397.837 303.234 387.595 301.198C361.699 296.051 332.989 298.039 308.711 308.898C281.15 321.225 273.94 341.731 271.271 369.27L268.036 398.938C267.047 408.005 258.546 414.952 249.429 414.952C239.998 414.952 232.926 407.769 231.903 398.388L228.728 369.27C226.442 345.681 222.298 322.767 197.912 311.86C170.095 299.419 142.141 295.287 112.404 301.198C102.162 303.234 95.467 313.138 97.3913 323.406C103.405 355.495 134.854 370.985 161.844 382.792C181.833 391.535 194.75 411.289 194.75 433.115V488.533C194.75 494.867 189.622 500 183.289 500H119.214C80.6374 500 45.9716 469.07 45.2979 430.481V272.349C45.2979 257.194 55.2142 243.824 69.7165 239.426Z" fill="white"/>
</svg>
