<svg width="200" height="200" viewBox="0 0 200 200" fill="none" xmlns="http://www.w3.org/2000/svg">
    <rect width="200" height="200" />
    <mask id="path-1-inside-1_174_1291" >
        <path fill-rule="evenodd" clip-rule="evenodd" d="M132.499 36.2498C132.012 36.2204 131.522 36.2054 131.028 36.2054C118.014 36.2054 107.435 46.5764 107.185 59.4641C102.728 58.6257 98.1088 58.5622 93.5459 59.3356C93.2289 46.5076 82.6765 36.2054 69.7054 36.2054C69.2118 36.2054 68.7216 36.2203 68.2354 36.2498C74.3336 24.7999 86.4347 17 100.367 17C114.299 17 126.4 24.7999 132.499 36.2498Z"/>
    </mask>
    <path fill-rule="evenodd" clip-rule="evenodd" d="M132.499 36.2498C132.012 36.2204 131.522 36.2054 131.028 36.2054C118.014 36.2054 107.435 46.5764 107.185 59.4641C102.728 58.6257 98.1088 58.5622 93.5459 59.3356C93.2289 46.5076 82.6765 36.2054 69.7054 36.2054C69.2118 36.2054 68.7216 36.2203 68.2354 36.2498C74.3336 24.7999 86.4347 17 100.367 17C114.299 17 126.4 24.7999 132.499 36.2498Z" fill="url(#paint0_linear_174_1291)"/>
    <path d="M132.499 36.2498L132.428 37.4241L134.525 37.551L133.537 35.6967L132.499 36.2498ZM107.185 59.4641L106.968 60.6203L108.334 60.8774L108.361 59.4869L107.185 59.4641ZM93.5459 59.3356L92.3698 59.3647L92.4034 60.7225L93.7425 60.4955L93.5459 59.3356ZM68.2354 36.2498L67.197 35.6967L66.2094 37.551L68.3064 37.4241L68.2354 36.2498ZM131.028 37.3819C131.498 37.3819 131.965 37.3961 132.428 37.4241L132.57 35.0755C132.06 35.0446 131.546 35.029 131.028 35.029V37.3819ZM108.361 59.4869C108.598 47.2443 118.651 37.3819 131.028 37.3819V35.029C117.377 35.029 106.271 45.9086 106.009 59.4414L108.361 59.4869ZM93.7425 60.4955C98.1659 59.7458 102.644 59.8072 106.968 60.6203L107.403 58.3079C102.811 57.4442 98.0517 57.3786 93.3493 58.1757L93.7425 60.4955ZM69.7054 37.3819C82.042 37.3819 92.0686 47.1788 92.3698 59.3647L94.722 59.3066C94.3891 45.8363 83.311 35.029 69.7054 35.029V37.3819ZM68.3064 37.4241C68.769 37.3961 69.2355 37.3819 69.7054 37.3819V35.029C69.188 35.029 68.6742 35.0446 68.1643 35.0754L68.3064 37.4241ZM100.367 15.8235C85.9851 15.8235 73.4925 23.8764 67.197 35.6967L69.2737 36.8028C75.1747 25.7234 86.8842 18.1765 100.367 18.1765V15.8235ZM133.537 35.6967C127.241 23.8764 114.749 15.8235 100.367 15.8235V18.1765C113.85 18.1765 125.559 25.7234 131.46 36.8028L133.537 35.6967Z"  mask="url(#path-1-inside-1_174_1291)"/>
    <path fill-rule="evenodd" clip-rule="evenodd" d="M43.8449 107.617L99.9996 90.7212L157.531 108.031C158.318 110.274 158.749 111.873 158.911 112.512C158.968 112.738 158.994 112.924 159.011 113.157C159.198 115.734 160.368 132.523 159.883 143.617C159.591 150.29 159.101 160.248 159.003 162.222C158.992 162.457 158.997 162.674 159.011 162.909C159.171 165.597 159.488 183.306 140.171 183.306C123.065 183.306 119.072 174.903 118.335 172.778C118.225 172.46 118.19 172.124 118.19 171.787V155.362C118.19 153.604 119.174 151.995 120.725 151.168C123.703 149.579 126.08 148.227 128.457 146.874C131.471 145.16 134.484 143.445 138.724 141.248C147.202 136.853 148.131 125.257 148.131 125.257C148.131 125.257 135.665 122.042 128.034 123.314C122.3 124.27 114.464 128.566 110.925 130.642C109.728 131.344 108.945 132.565 108.756 133.939L105.993 154.087C105.673 156.417 103.683 158.153 101.331 158.153H99.5218C97.1214 158.153 95.1058 156.347 94.844 153.961L92.672 134.166C92.5071 132.663 91.6315 131.331 90.2945 130.624C86.3909 128.561 77.9114 124.345 71.9811 123.314C63.6146 121.86 51.8845 125.257 51.8845 125.257C51.8845 125.257 56.0605 136.035 61.292 141.248C66.0983 146.037 75.3724 149.694 80.3585 151.415C82.3419 152.1 83.7254 153.946 83.7254 156.044V170.98C83.7254 171.84 83.4937 172.682 82.9657 173.36C80.8129 176.124 73.9729 183.306 61.0212 183.306C44.4181 183.306 41.1608 165.398 40.8051 163.051C40.7792 162.88 40.7687 162.715 40.7666 162.542C40.7459 160.832 40.6089 150.921 40.1325 143.617C39.3845 132.147 42.036 114.555 42.2849 112.94C42.2985 112.851 42.3118 112.781 42.332 112.694C42.4447 112.209 42.9001 110.344 43.8449 107.617Z" fill="url(#paint1_linear_174_1291)"/>
    <path d="M43.8449 107.617L43.6754 107.053L43.3875 107.14L43.2891 107.424L43.8449 107.617ZM99.9996 90.7212L100.169 90.1579L99.9996 90.1069L99.8301 90.1579L99.9996 90.7212ZM157.531 108.031L158.086 107.836L157.987 107.554L157.701 107.467L157.531 108.031ZM158.911 112.512L159.481 112.367L159.481 112.367L158.911 112.512ZM159.011 113.157L159.598 113.114L159.598 113.114L159.011 113.157ZM159.883 143.617L159.295 143.591L159.295 143.591L159.883 143.617ZM159.003 162.222L158.416 162.193L158.416 162.193L159.003 162.222ZM159.011 162.909L158.424 162.944L158.424 162.944L159.011 162.909ZM118.335 172.778L118.891 172.585L118.891 172.585L118.335 172.778ZM120.725 151.168L120.448 150.649L120.448 150.649L120.725 151.168ZM128.457 146.874L128.748 147.386L128.748 147.386L128.457 146.874ZM138.724 141.248L138.994 141.77L138.994 141.77L138.724 141.248ZM148.131 125.257L148.717 125.304L148.757 124.811L148.278 124.688L148.131 125.257ZM128.034 123.314L128.131 123.894L128.131 123.894L128.034 123.314ZM110.925 130.642L110.627 130.135L110.627 130.135L110.925 130.642ZM108.756 133.939L109.339 134.019L109.339 134.019L108.756 133.939ZM105.993 154.087L106.576 154.167L106.576 154.167L105.993 154.087ZM94.844 153.961L94.2592 154.025L94.2592 154.025L94.844 153.961ZM92.672 134.166L92.0873 134.23L92.0873 134.23L92.672 134.166ZM90.2945 130.624L90.0196 131.144L90.0196 131.144L90.2945 130.624ZM71.9811 123.314L71.8803 123.894L71.8803 123.894L71.9811 123.314ZM51.8845 125.257L51.7208 124.692L51.1039 124.871L51.3359 125.47L51.8845 125.257ZM61.292 141.248L60.8768 141.665L60.8768 141.665L61.292 141.248ZM80.3585 151.415L80.1665 151.971L80.1665 151.971L80.3585 151.415ZM82.9657 173.36L82.5016 172.999L82.5016 172.999L82.9657 173.36ZM40.8051 163.051L40.2235 163.139L40.2235 163.139L40.8051 163.051ZM40.7666 162.542L41.3548 162.535L41.3548 162.535L40.7666 162.542ZM40.1325 143.617L40.7195 143.579L40.7195 143.579L40.1325 143.617ZM42.2849 112.94L42.8663 113.029L42.8663 113.029L42.2849 112.94ZM42.332 112.694L41.759 112.561L41.759 112.561L42.332 112.694ZM44.0144 108.18L100.169 91.2845L99.8301 90.1579L43.6754 107.053L44.0144 108.18ZM99.8301 91.2845L157.362 108.594L157.701 107.467L100.169 90.1579L99.8301 91.2845ZM159.481 112.367C159.316 111.714 158.88 110.098 158.086 107.836L156.976 108.226C157.756 110.449 158.182 112.031 158.34 112.656L159.481 112.367ZM159.598 113.114C159.579 112.855 159.548 112.634 159.481 112.367L158.34 112.656C158.387 112.842 158.409 112.994 158.424 113.199L159.598 113.114ZM160.471 143.643C160.958 132.509 159.785 115.686 159.598 113.114L158.424 113.199C158.612 115.782 159.779 132.537 159.295 143.591L160.471 143.643ZM159.591 162.251C159.688 160.277 160.179 150.318 160.471 143.643L159.295 143.591C159.003 150.262 158.513 160.218 158.416 162.193L159.591 162.251ZM159.598 162.874C159.585 162.652 159.58 162.457 159.591 162.251L158.416 162.193C158.403 162.456 158.409 162.696 158.424 162.944L159.598 162.874ZM140.171 183.894C145.093 183.894 148.808 182.765 151.602 180.994C154.394 179.222 156.228 176.833 157.424 174.372C159.806 169.472 159.68 164.25 159.598 162.874L158.424 162.944C158.502 164.256 158.614 169.232 156.366 173.858C155.247 176.16 153.547 178.367 150.972 180C148.397 181.633 144.908 182.718 140.171 182.718V183.894ZM117.779 172.97C118.177 174.117 119.42 176.86 122.767 179.313C126.115 181.768 131.519 183.894 140.171 183.894V182.718C131.717 182.718 126.571 180.643 123.462 178.364C120.352 176.085 119.23 173.563 118.891 172.585L117.779 172.97ZM117.602 171.787C117.602 172.162 117.64 172.569 117.779 172.97L118.891 172.585C118.81 172.351 118.778 172.087 118.778 171.787H117.602ZM117.602 155.362V171.787H118.778V155.362H117.602ZM120.448 150.649C118.71 151.576 117.602 153.383 117.602 155.362H118.778C118.778 153.826 119.639 152.414 121.002 151.687L120.448 150.649ZM128.166 146.363C125.789 147.715 123.418 149.064 120.448 150.649L121.002 151.687C123.988 150.094 126.371 148.738 128.748 147.386L128.166 146.363ZM138.453 140.726C134.203 142.929 131.181 144.648 128.166 146.363L128.748 147.386C131.761 145.672 134.766 143.962 138.994 141.77L138.453 140.726ZM148.131 125.257C147.545 125.21 147.545 125.21 147.545 125.21C147.545 125.21 147.545 125.21 147.545 125.21C147.545 125.21 147.545 125.21 147.545 125.211C147.545 125.212 147.544 125.213 147.544 125.215C147.544 125.22 147.543 125.227 147.542 125.237C147.541 125.257 147.538 125.287 147.533 125.328C147.525 125.409 147.512 125.531 147.491 125.689C147.451 126.004 147.383 126.463 147.276 127.028C147.061 128.159 146.687 129.713 146.056 131.398C144.788 134.782 142.508 138.624 138.453 140.726L138.994 141.77C143.417 139.478 145.841 135.325 147.157 131.811C147.818 130.048 148.207 128.428 148.431 127.248C148.544 126.657 148.615 126.175 148.658 125.839C148.68 125.671 148.694 125.54 148.704 125.449C148.708 125.404 148.712 125.368 148.714 125.344C148.715 125.332 148.716 125.323 148.716 125.316C148.717 125.313 148.717 125.31 148.717 125.308C148.717 125.307 148.717 125.306 148.717 125.306C148.717 125.305 148.717 125.305 148.717 125.305C148.717 125.304 148.717 125.304 148.131 125.257ZM128.131 123.894C131.846 123.275 136.79 123.746 140.852 124.39C142.873 124.71 144.659 125.07 145.938 125.349C146.578 125.489 147.091 125.609 147.443 125.694C147.619 125.736 147.755 125.769 147.847 125.792C147.893 125.804 147.927 125.812 147.95 125.818C147.962 125.821 147.971 125.823 147.976 125.825C147.979 125.825 147.981 125.826 147.982 125.826C147.983 125.827 147.984 125.827 147.984 125.827C147.984 125.827 147.984 125.827 147.984 125.827C147.984 125.827 147.984 125.827 148.131 125.257C148.278 124.688 148.278 124.688 148.278 124.688C148.278 124.688 148.277 124.687 148.277 124.687C148.277 124.687 148.276 124.687 148.275 124.687C148.273 124.686 148.271 124.686 148.268 124.685C148.261 124.683 148.252 124.681 148.24 124.678C148.215 124.672 148.179 124.662 148.132 124.651C148.037 124.627 147.898 124.593 147.718 124.55C147.359 124.463 146.838 124.342 146.19 124.2C144.893 123.917 143.085 123.552 141.036 123.228C136.958 122.581 131.853 122.081 127.938 122.734L128.131 123.894ZM111.222 131.149C112.983 130.117 115.81 128.534 118.905 127.091C122.01 125.644 125.344 124.359 128.131 123.894L127.938 122.734C124.99 123.225 121.54 124.566 118.408 126.025C115.267 127.488 112.406 129.091 110.627 130.135L111.222 131.149ZM109.339 134.019C109.504 132.815 110.189 131.756 111.222 131.149L110.627 130.135C109.268 130.932 108.385 132.315 108.174 133.859L109.339 134.019ZM106.576 154.167L109.339 134.019L108.174 133.859L105.41 154.007L106.576 154.167ZM101.331 158.741C103.977 158.741 106.216 156.788 106.576 154.167L105.41 154.007C105.131 156.046 103.389 157.565 101.331 157.565V158.741ZM99.5218 158.741H101.331V157.565H99.5218V158.741ZM94.2592 154.025C94.5538 156.709 96.8214 158.741 99.5218 158.741V157.565C97.4215 157.565 95.6578 155.984 95.4287 153.896L94.2592 154.025ZM92.0873 134.23L94.2592 154.025L95.4287 153.896L93.2567 134.102L92.0873 134.23ZM90.0196 131.144C91.1776 131.756 91.9428 132.913 92.0873 134.23L93.2567 134.102C93.0713 132.412 92.0854 130.905 90.5694 130.104L90.0196 131.144ZM71.8803 123.894C77.7043 124.906 86.1033 129.074 90.0196 131.144L90.5694 130.104C86.6784 128.047 78.1185 123.784 72.0818 122.734L71.8803 123.894ZM51.8845 125.257C52.0481 125.822 52.048 125.822 52.0481 125.822C52.0481 125.822 52.0482 125.822 52.0483 125.822C52.0485 125.822 52.049 125.822 52.0496 125.822C52.0507 125.821 52.0527 125.821 52.0553 125.82C52.0605 125.819 52.0685 125.816 52.0792 125.813C52.1008 125.807 52.1332 125.798 52.1762 125.786C52.2622 125.762 52.3903 125.727 52.5566 125.682C52.8894 125.593 53.3755 125.468 53.9855 125.321C55.2058 125.028 56.9199 124.651 58.8927 124.32C62.8534 123.656 67.7977 123.184 71.8803 123.894L72.0818 122.734C67.798 121.99 62.6939 122.49 58.698 123.16C56.6925 123.497 54.9511 123.879 53.7105 124.177C53.0901 124.326 52.5944 124.455 52.253 124.546C52.0823 124.591 51.9501 124.628 51.8602 124.653C51.8153 124.665 51.7809 124.675 51.7575 124.682C51.7458 124.685 51.7368 124.688 51.7307 124.689C51.7276 124.69 51.7253 124.691 51.7236 124.691C51.7228 124.692 51.7222 124.692 51.7217 124.692C51.7215 124.692 51.7212 124.692 51.7211 124.692C51.7209 124.692 51.7208 124.692 51.8845 125.257ZM61.7072 140.831C59.1611 138.294 56.8436 134.367 55.151 131.032C54.3086 129.371 53.6281 127.872 53.1584 126.789C52.9236 126.247 52.7417 125.81 52.6187 125.508C52.5573 125.358 52.5105 125.241 52.4793 125.162C52.4637 125.123 52.452 125.093 52.4442 125.073C52.4403 125.064 52.4374 125.056 52.4356 125.051C52.4346 125.049 52.4339 125.047 52.4335 125.046C52.4333 125.046 52.4331 125.045 52.433 125.045C52.433 125.045 52.433 125.045 52.4329 125.045C52.4329 125.045 52.433 125.045 51.8845 125.257C51.3359 125.47 51.336 125.47 51.3361 125.47C51.3361 125.47 51.3362 125.47 51.3362 125.47C51.3364 125.471 51.3366 125.472 51.3369 125.472C51.3375 125.474 51.3383 125.476 51.3394 125.479C51.3416 125.484 51.3448 125.492 51.349 125.503C51.3573 125.524 51.3697 125.556 51.3859 125.597C51.4185 125.679 51.4665 125.799 51.5295 125.953C51.6553 126.261 51.8405 126.706 52.079 127.257C52.5558 128.357 53.2463 129.878 54.1019 131.564C55.8052 134.921 58.1914 138.989 60.8768 141.665L61.7072 140.831ZM80.5504 150.859C78.0702 150.003 74.5293 148.667 71.0157 146.953C67.4926 145.235 64.0415 143.157 61.7072 140.831L60.8768 141.665C63.3488 144.128 66.9379 146.273 70.4999 148.011C74.0715 149.753 77.6606 151.106 80.1665 151.971L80.5504 150.859ZM84.3137 156.044C84.3137 153.682 82.7584 151.621 80.5504 150.859L80.1665 151.971C81.9254 152.578 83.1372 154.21 83.1372 156.044H84.3137ZM84.3137 170.98V156.044H83.1372V170.98H84.3137ZM83.4297 173.722C84.0539 172.92 84.3137 171.943 84.3137 170.98H83.1372C83.1372 171.737 82.9334 172.444 82.5016 172.999L83.4297 173.722ZM61.0212 183.894C74.2199 183.894 81.2133 176.567 83.4297 173.722L82.5016 172.999C80.4125 175.681 73.7258 182.718 61.0212 182.718V183.894ZM40.2235 163.139C40.4059 164.342 41.3242 169.497 44.3193 174.367C47.3279 179.258 52.4599 183.894 61.0212 183.894V182.718C52.9794 182.718 48.1812 178.4 45.3214 173.75C42.4482 169.079 41.5601 164.107 41.3867 162.963L40.2235 163.139ZM40.1784 162.549C40.1807 162.742 40.1926 162.935 40.2235 163.139L41.3867 162.963C41.3658 162.825 41.3566 162.688 41.3548 162.535L40.1784 162.549ZM39.5455 143.655C40.0208 150.942 40.1577 160.838 40.1784 162.549L41.3548 162.535C41.3341 160.826 41.197 150.9 40.7195 143.579L39.5455 143.655ZM41.7035 112.85C41.4564 114.454 38.7926 132.11 39.5455 143.655L40.7195 143.579C39.9764 132.184 42.6156 114.657 42.8663 113.029L41.7035 112.85ZM41.759 112.561C41.7352 112.664 41.7192 112.748 41.7035 112.85L42.8663 113.029C42.8778 112.954 42.8884 112.899 42.905 112.827L41.759 112.561ZM43.2891 107.424C42.3364 110.174 41.8756 112.059 41.759 112.561L42.905 112.827C43.0139 112.358 43.4638 110.514 44.4008 107.809L43.2891 107.424Z" />
    <mask id="path-5-inside-2_174_1291" >
        <path fill-rule="evenodd" clip-rule="evenodd" d="M151.023 100.282C151.206 99.1148 151.3 97.9299 151.3 96.7305C151.3 78.0367 128.491 62.8823 100.356 62.8823C72.2201 62.8823 49.4116 78.0367 49.4116 96.7305C49.4116 97.9299 49.5055 99.1147 49.6887 100.282L100.356 85.0377L151.023 100.282Z"/>
    </mask>
    <path fill-rule="evenodd" clip-rule="evenodd" d="M151.023 100.282C151.206 99.1148 151.3 97.9299 151.3 96.7305C151.3 78.0367 128.491 62.8823 100.356 62.8823C72.2201 62.8823 49.4116 78.0367 49.4116 96.7305C49.4116 97.9299 49.5055 99.1147 49.6887 100.282L100.356 85.0377L151.023 100.282Z" fill="url(#paint2_linear_174_1291)"/>
    <path d="M151.023 100.282L150.684 101.409L151.976 101.797L152.185 100.464L151.023 100.282ZM49.6887 100.282L48.5264 100.464L48.7356 101.797L50.0276 101.408L49.6887 100.282ZM100.356 85.0377L100.694 83.9111L100.356 83.8091L100.017 83.9111L100.356 85.0377ZM150.123 96.7305C150.123 97.8683 150.034 98.9922 149.861 100.1L152.185 100.464C152.378 99.2373 152.476 97.9915 152.476 96.7305H150.123ZM100.356 64.0588C114.225 64.0588 126.727 67.7959 135.728 73.7761C144.737 79.762 150.123 87.9012 150.123 96.7305H152.476C152.476 86.866 146.459 78.081 137.03 71.8163C127.592 65.5459 114.623 61.7059 100.356 61.7059V64.0588ZM50.5881 96.7305C50.5881 87.9012 55.9746 79.762 64.9839 73.7761C73.9846 67.7959 86.487 64.0588 100.356 64.0588V61.7059C86.0888 61.7059 73.1192 65.5459 63.6818 71.8163C54.2529 78.081 48.2352 86.866 48.2352 96.7305H50.5881ZM50.8509 100.099C50.6771 98.9921 50.5881 97.8683 50.5881 96.7305H48.2352C48.2352 97.9915 48.3339 99.2372 48.5264 100.464L50.8509 100.099ZM50.0276 101.408L100.694 86.1642L100.017 83.9111L49.3497 99.1553L50.0276 101.408ZM100.017 86.1642L150.684 101.409L151.362 99.1554L100.694 83.9111L100.017 86.1642Z"  mask="url(#path-5-inside-2_174_1291)"/>
    <defs>
        <linearGradient id="paint0_linear_174_1291" x1="100.367" y1="17" x2="100.367" y2="59.4641" gradientUnits="userSpaceOnUse">
            <stop stop-color="#F7CB5C"/>
            <stop offset="1" stop-color="#BD8800"/>
        </linearGradient>
        <linearGradient id="paint1_linear_174_1291" x1="100" y1="90.7212" x2="100" y2="183.306" gradientUnits="userSpaceOnUse">
            <stop stop-color="#F7CB5C"/>
            <stop offset="1" stop-color="#BD8800"/>
        </linearGradient>
        <linearGradient id="paint2_linear_174_1291" x1="100.356" y1="62.8823" x2="100.356" y2="100.282" gradientUnits="userSpaceOnUse">
            <stop stop-color="#F7CB5C"/>
            <stop offset="1" stop-color="#BD8800"/>
        </linearGradient>
    </defs>
</svg>
