<svg width="220" height="220" viewBox="0 0 220 220" fill="none" xmlns="http://www.w3.org/2000/svg">
<path fill-rule="evenodd" clip-rule="evenodd" d="M159.851 116.042C160.581 111.221 160.866 106.305 161.057 101.452C161.183 98.5024 162.452 96.5042 164.863 95.077C165.401 94.7645 165.958 94.4711 166.518 94.1759C166.982 93.9316 167.448 93.6861 167.907 93.4276C172.57 90.7317 173.49 87.3379 170.667 82.8023C169.018 80.1698 167.305 77.5689 165.465 75.095C163.182 72.0184 162.801 68.9735 164.577 65.4846C165.909 62.8838 167.083 60.1243 165.973 56.8574C165.748 56.8184 165.518 56.7673 165.283 56.7154C164.755 56.5984 164.206 56.4768 163.657 56.4768C159.741 56.3821 155.824 56.3502 151.938 56.3186L151.89 56.3183C146.34 56.2865 142.565 53.5588 140.44 48.5475C139.679 46.7713 139.045 44.9 138.601 42.9969C138.004 40.5992 137.445 38.1962 136.886 35.7944L136.886 35.7937L136.886 35.7933C136.078 32.3177 135.269 28.8447 134.35 25.3938C133.589 22.5709 131.654 21.6511 128.641 22.1586C126.072 22.6026 125.533 23.4273 125.787 26.821C125.859 27.652 126.014 28.4727 126.168 29.2949L126.168 29.2952C126.285 29.9164 126.403 30.5384 126.485 31.1663C126.78 33.3523 127.122 35.5383 127.464 37.7251L127.464 37.7259C128.259 42.805 129.054 47.8887 129.276 52.9879C129.625 61.4248 132.162 69.1321 136.253 76.2051C138.696 80.4235 139.267 83.849 136.729 87.9405C136.216 88.7693 135.747 89.6438 135.276 90.5202C133.713 93.434 132.138 96.3684 128.895 97.7095C122.425 100.374 116.684 104.116 111.102 108.145C110.115 108.856 109.124 109.564 108.132 110.272C102.716 114.141 97.2871 118.018 92.5152 122.576C86.7203 128.137 81.1996 133.973 75.6754 139.813L75.6752 139.813L75.6751 139.813C72.1891 143.498 68.7016 147.184 65.143 150.804C59.2753 156.799 53.7565 163.047 49.6015 170.342C48.8085 171.738 48.2059 173.292 47.857 174.846C47.4447 176.686 47.7301 178.589 49.8235 179.318C51.9168 180.08 53.4393 179.223 54.7714 177.289C61.5907 167.52 70.6618 160.129 81.6361 155.752C89.9521 152.44 98.5643 149.818 107.165 147.2L107.165 147.2C110.504 146.184 113.842 145.168 117.16 144.112C117.61 143.969 118.153 144.09 118.848 144.245L118.848 144.245L118.849 144.245C119.23 144.33 119.658 144.425 120.141 144.493C119.438 144.977 118.797 145.386 118.211 145.76L118.21 145.761C117.183 146.416 116.321 146.967 115.574 147.633C113.068 149.853 110.34 151.28 107.01 152.073C106.553 152.183 106.096 152.293 105.639 152.402C96.0721 154.697 86.5092 156.991 77.6397 161.684C71.0425 165.172 65.8408 169.898 61.4955 175.703C59.6559 178.208 58.7678 181.221 59.6242 184.393C67.395 186.582 68.0927 186.296 71.5499 179.985C71.5769 179.931 71.6152 179.877 71.6553 179.821C71.7096 179.744 71.7672 179.663 71.8037 179.572C75.3243 171.579 82.3656 167.773 89.946 164.792C92.3883 163.84 95.0843 163.967 97.6217 165.109C97.8437 166.061 98.034 166.853 98.2243 167.615C99.3978 172.372 100.73 176.844 107.01 177.066C109.647 177.181 109.823 179.42 109.973 181.325C109.989 181.528 110.005 181.727 110.023 181.919C110.245 184.076 109.928 186.201 107.137 186.835C106.755 186.924 106.368 187.008 105.98 187.092C104.276 187.461 102.546 187.837 101.047 188.612C98.7318 189.817 96.4481 191.466 97.8437 194.765C98.0247 194.855 98.1936 194.962 98.3561 195.065C98.6493 195.25 98.9219 195.422 99.2075 195.463C101.048 195.716 102.883 196.018 104.72 196.32C110.006 197.19 115.298 198.06 120.712 197.778C122.202 197.706 123.693 197.766 125.178 197.827H125.178L125.179 197.827C126.316 197.873 127.45 197.919 128.578 197.905C130.862 197.841 133.145 197.715 135.397 197.366C137.173 197.08 139.013 196.636 139.362 194.321C139.679 192.164 139.076 190.356 137.268 189.183C135.365 187.946 133.304 186.931 131.242 185.916C126.802 183.727 125.914 182.3 126.326 177.447C126.365 177.038 126.44 176.641 126.514 176.248L126.514 176.248C126.56 176.001 126.606 175.757 126.643 175.512C127.341 169.93 126.643 164.728 121.981 160.827C119.824 159.019 119.475 156.736 120.141 154.167C120.339 153.387 120.58 152.611 120.822 151.836C121.317 150.246 121.811 148.661 121.917 147.062C122.234 142.558 124.994 140.591 128.8 139.386C129.089 139.299 129.378 139.216 129.667 139.132L129.667 139.132C130.327 138.941 130.983 138.751 131.623 138.53C135.683 137.229 139.742 135.929 143.802 134.597C152.937 131.615 158.392 125.335 159.851 115.947V116.042ZM159.82 82.6437C159.915 86.2912 158.329 88.5432 156.299 88.7018C154.269 88.8603 151.763 87.0207 151.573 85.2763C151.383 83.3415 154.998 79.8843 157.314 80.3283C158.166 80.4896 158.851 81.4038 159.345 82.0622C159.531 82.3104 159.689 82.5222 159.82 82.6437ZM129.244 176.464C129.244 177.669 129.593 179.192 130.354 180.048L130.526 180.234C132.786 182.68 135.086 185.17 137.808 187.026C140.282 188.707 142.248 190.229 142.121 193.464C142.058 194.955 142.914 196.16 144.437 196.033C145.578 195.938 147.006 195.336 147.703 194.448C149.638 192.005 149.226 188.643 146.752 186.645C144.754 185.028 142.502 183.6 140.186 182.458C137.046 180.936 135.651 178.589 135.143 175.259C134.287 169.835 134.572 164.665 136.571 159.463C138.093 155.53 139.171 151.407 140.155 147.284C140.477 145.953 140.494 144.565 140.51 143.206C140.518 142.557 140.526 141.915 140.567 141.289C129.72 139.259 123.63 145.095 124.137 156.609C129.91 159.59 130.227 160.256 129.688 166.695C129.402 169.93 129.244 173.197 129.276 176.432L129.244 176.464ZM157.648 54.6399C154.531 54.9397 151.391 55.2417 148.56 53.3368H148.528L148.515 53.3278C147.247 52.4722 145.514 51.3024 145.293 50.0382C143.955 42.7707 142.834 35.4599 141.714 28.1595C141.481 26.6343 141.247 25.1096 141.011 23.5859C140.969 23.4183 141.079 23.2232 141.241 22.9365C141.325 22.7889 141.422 22.6171 141.519 22.4123C146.244 22.0634 147.481 22.7612 148.718 26.5039C149.099 27.5823 149.448 28.6924 149.575 29.8025C150.146 34.3698 152.049 38.1442 155.728 41.0622C159.09 43.663 161.056 47.1836 162.008 51.2752C162.611 53.876 162.198 54.2883 159.502 54.4786C158.887 54.5207 158.268 54.5802 157.648 54.6399Z" fill="url(#paint0_linear_143_2)"/>
<defs>
<linearGradient id="paint0_linear_143_2" x1="163.167" y1="56.8333" x2="99.0001" y2="194.333" gradientUnits="userSpaceOnUse">
<stop stop-color="#68C6FF"/>
<stop offset="1" stop-color="#1C83F9"/>
</linearGradient>
</defs>
</svg>
