<svg width="3287" height="706" viewBox="0 0 3287 706" fill="none" xmlns="http://www.w3.org/2000/svg">
<path d="M938.962 628.115H927.321L960.991 536.419H972.452L1006.12 628.115H994.481L967.08 550.926H966.363L938.962 628.115ZM943.26 592.297H990.183V602.147H943.26V592.297Z" fill="black"/>
<path d="M1882.09 565.074H1870.99C1870.33 561.88 1869.18 559.075 1867.54 556.657C1865.93 554.239 1863.96 552.209 1861.63 550.568C1859.33 548.896 1856.78 547.643 1853.97 546.807C1851.17 545.971 1848.24 545.553 1845.2 545.553C1839.64 545.553 1834.61 546.956 1830.11 549.762C1825.63 552.568 1822.06 556.702 1819.41 562.164C1816.78 567.626 1815.47 574.327 1815.47 582.267C1815.47 590.207 1816.78 596.908 1819.41 602.371C1822.06 607.833 1825.63 611.967 1830.11 614.773C1834.61 617.579 1839.64 618.982 1845.2 618.982C1848.24 618.982 1851.17 618.564 1853.97 617.728C1856.78 616.892 1859.33 615.653 1861.63 614.012C1863.96 612.34 1865.93 610.295 1867.54 607.878C1869.18 605.43 1870.33 602.624 1870.99 599.46H1882.09C1881.25 604.147 1879.73 608.34 1877.52 612.042C1875.31 615.743 1872.57 618.892 1869.28 621.489C1866 624.056 1862.31 626.011 1858.23 627.354C1854.17 628.697 1849.82 629.369 1845.2 629.369C1837.38 629.369 1830.42 627.459 1824.33 623.638C1818.24 619.817 1813.45 614.385 1809.96 607.34C1806.47 600.296 1804.72 591.938 1804.72 582.267C1804.72 572.596 1806.47 564.239 1809.96 557.194C1813.45 550.15 1818.24 544.717 1824.33 540.897C1830.42 537.076 1837.38 535.166 1845.2 535.166C1849.82 535.166 1854.17 535.837 1858.23 537.181C1862.31 538.524 1866 540.494 1869.28 543.091C1872.57 545.658 1875.31 548.792 1877.52 552.493C1879.73 556.164 1881.25 560.358 1882.09 565.074Z" fill="black"/>
<path d="M1926.54 629.548C1920.33 629.548 1914.88 628.071 1910.2 625.115C1905.54 622.16 1901.9 618.026 1899.27 612.713C1896.67 607.4 1895.38 601.192 1895.38 594.088C1895.38 586.924 1896.67 580.67 1899.27 575.327C1901.9 569.984 1905.54 565.835 1910.2 562.88C1914.88 559.925 1920.33 558.448 1926.54 558.448C1932.75 558.448 1938.18 559.925 1942.84 562.88C1947.52 565.835 1951.16 569.984 1953.76 575.327C1956.39 580.67 1957.7 586.924 1957.7 594.088C1957.7 601.192 1956.39 607.4 1953.76 612.713C1951.16 618.026 1947.52 622.16 1942.84 625.115C1938.18 628.071 1932.75 629.548 1926.54 629.548ZM1926.54 620.056C1931.25 620.056 1935.13 618.847 1938.18 616.429C1941.22 614.012 1943.48 610.833 1944.94 606.893C1946.4 602.953 1947.13 598.684 1947.13 594.088C1947.13 589.491 1946.4 585.207 1944.94 581.238C1943.48 577.268 1941.22 574.059 1938.18 571.611C1935.13 569.164 1931.25 567.94 1926.54 567.94C1921.82 567.94 1917.94 569.164 1914.9 571.611C1911.85 574.059 1909.6 577.268 1908.14 581.238C1906.67 585.207 1905.94 589.491 1905.94 594.088C1905.94 598.684 1906.67 602.953 1908.14 606.893C1909.6 610.833 1911.85 614.012 1914.9 616.429C1917.94 618.847 1921.82 620.056 1926.54 620.056Z" fill="black"/>
<path d="M1973.83 628.115V559.343H1984.04V570.089H1984.93C1986.37 566.418 1988.68 563.567 1991.87 561.537C1995.07 559.478 1998.9 558.448 2003.38 558.448C2007.92 558.448 2011.69 559.478 2014.71 561.537C2017.75 563.567 2020.13 566.418 2021.83 570.089H2022.54C2024.3 566.537 2026.95 563.716 2030.47 561.627C2033.99 559.508 2038.21 558.448 2043.14 558.448C2049.29 558.448 2054.32 560.373 2058.23 564.224C2062.14 568.044 2064.09 573.999 2064.09 582.088V628.115H2053.53V582.088C2053.53 577.014 2052.14 573.387 2049.36 571.208C2046.59 569.029 2043.32 567.94 2039.56 567.94C2034.72 567.94 2030.98 569.402 2028.32 572.328C2025.66 575.223 2024.33 578.894 2024.33 583.342V628.115H2013.59V581.014C2013.59 577.103 2012.32 573.954 2009.78 571.567C2007.25 569.149 2003.98 567.94 1999.98 567.94C1997.23 567.94 1994.66 568.671 1992.28 570.134C1989.92 571.596 1988.01 573.626 1986.55 576.223C1985.11 578.79 1984.4 581.76 1984.4 585.133V628.115H1973.83Z" fill="black"/>
<path d="M2083.41 653.905V559.343H2093.62V570.268H2094.88C2095.65 569.074 2096.73 567.552 2098.1 565.701C2099.5 563.821 2101.5 562.149 2104.1 560.687C2106.73 559.194 2110.28 558.448 2114.75 558.448C2120.55 558.448 2125.65 559.896 2130.07 562.791C2134.48 565.686 2137.93 569.79 2140.41 575.104C2142.89 580.417 2144.13 586.685 2144.13 593.908C2144.13 601.192 2142.89 607.505 2140.41 612.848C2137.93 618.161 2134.5 622.28 2130.11 625.205C2125.72 628.1 2120.66 629.548 2114.93 629.548C2110.52 629.548 2106.98 628.817 2104.32 627.354C2101.67 625.862 2099.62 624.175 2098.19 622.295C2096.76 620.384 2095.65 618.802 2094.88 617.549H2093.98V653.905H2083.41ZM2093.8 593.729C2093.8 598.923 2094.56 603.505 2096.08 607.475C2097.61 611.415 2099.83 614.504 2102.76 616.743C2105.68 618.952 2109.26 620.056 2113.5 620.056C2117.92 620.056 2121.6 618.892 2124.56 616.564C2127.54 614.206 2129.78 611.042 2131.28 607.072C2132.8 603.072 2133.56 598.625 2133.56 593.729C2133.56 588.894 2132.81 584.536 2131.32 580.655C2129.86 576.745 2127.63 573.656 2124.65 571.387C2121.69 569.089 2117.98 567.94 2113.5 567.94C2109.2 567.94 2105.59 569.029 2102.67 571.208C2099.74 573.357 2097.53 576.372 2096.04 580.253C2094.55 584.103 2093.8 588.595 2093.8 593.729Z" fill="black"/>
<path d="M2180.48 629.727C2176.12 629.727 2172.17 628.906 2168.62 627.265C2165.06 625.593 2162.24 623.19 2160.15 620.056C2158.07 616.892 2157.02 613.071 2157.02 608.594C2157.02 604.654 2157.8 601.46 2159.35 599.013C2160.9 596.535 2162.98 594.595 2165.57 593.192C2168.17 591.789 2171.03 590.744 2174.17 590.058C2177.33 589.342 2180.51 588.774 2183.71 588.356C2187.88 587.819 2191.27 587.416 2193.87 587.148C2196.5 586.849 2198.41 586.357 2199.6 585.67C2200.82 584.984 2201.44 583.79 2201.44 582.088V581.73C2201.44 577.312 2200.23 573.88 2197.81 571.432C2195.42 568.985 2191.79 567.761 2186.93 567.761C2181.88 567.761 2177.93 568.865 2175.06 571.074C2172.2 573.283 2170.18 575.641 2169.02 578.148L2158.99 574.566C2160.78 570.387 2163.17 567.134 2166.15 564.806C2169.17 562.448 2172.45 560.806 2176 559.881C2179.59 558.925 2183.11 558.448 2186.57 558.448C2188.78 558.448 2191.32 558.717 2194.18 559.254C2197.08 559.761 2199.87 560.821 2202.56 562.433C2205.27 564.045 2207.52 566.477 2209.32 569.731C2211.11 572.984 2212 577.342 2212 582.805V628.115H2201.44V618.802H2200.9C2200.18 620.295 2198.99 621.892 2197.32 623.593C2195.65 625.295 2193.42 626.742 2190.65 627.936C2187.87 629.13 2184.48 629.727 2180.48 629.727ZM2182.09 620.235C2186.27 620.235 2189.79 619.414 2192.66 617.773C2195.56 616.131 2197.73 614.012 2199.2 611.415C2200.69 608.818 2201.44 606.087 2201.44 603.221V593.55C2200.99 594.087 2200 594.58 2198.48 595.028C2196.99 595.446 2195.26 595.819 2193.29 596.147C2191.35 596.446 2189.45 596.714 2187.6 596.953C2185.78 597.162 2184.3 597.341 2183.17 597.49C2180.42 597.848 2177.86 598.431 2175.47 599.236C2173.11 600.013 2171.2 601.192 2169.74 602.774C2168.3 604.326 2167.59 606.445 2167.59 609.131C2167.59 612.803 2168.95 615.579 2171.66 617.459C2174.41 619.31 2177.88 620.235 2182.09 620.235Z" fill="black"/>
<path d="M2241.85 586.745V628.115H2231.29V559.343H2241.5V570.089H2242.39C2244 566.597 2246.45 563.791 2249.74 561.672C2253.02 559.522 2257.26 558.448 2262.45 558.448C2267.11 558.448 2271.18 559.403 2274.67 561.313C2278.17 563.194 2280.88 566.059 2282.82 569.91C2284.76 573.731 2285.73 578.566 2285.73 584.416V628.115H2275.17V585.133C2275.17 579.73 2273.76 575.521 2270.96 572.507C2268.15 569.462 2264.3 567.94 2259.41 567.94C2256.03 567.94 2253.02 568.671 2250.36 570.134C2247.74 571.596 2245.66 573.731 2244.14 576.536C2242.62 579.342 2241.85 582.745 2241.85 586.745Z" fill="black"/>
<path d="M2309.38 653.905C2307.59 653.905 2306 653.755 2304.59 653.457C2303.19 653.188 2302.22 652.92 2301.68 652.651L2304.37 643.338C2306.94 643.995 2309.21 644.234 2311.18 644.055C2313.15 643.876 2314.89 642.995 2316.41 641.413C2317.97 639.861 2319.38 637.339 2320.67 633.846L2322.64 628.473L2297.21 559.343H2308.67L2327.65 614.146H2328.37L2347.35 559.343H2358.81L2329.62 638.145C2328.31 641.697 2326.68 644.637 2324.74 646.965C2322.8 649.323 2320.55 651.069 2317.98 652.203C2315.44 653.338 2312.58 653.905 2309.38 653.905Z" fill="black"/>
<path d="M1379.75 587.06C1381.42 584.34 1383.57 581.949 1386.1 580.006C1387.98 578.292 1390.42 577.321 1392.96 577.273C1393.84 577.225 1394.71 577.359 1395.53 577.665C1396.35 577.971 1397.1 578.444 1397.73 579.052C1398.99 580.511 1399.63 582.404 1399.51 584.327C1399.46 586.617 1398.71 588.837 1397.35 590.682C1395.8 592.932 1393.58 594.626 1390.99 595.512C1387.27 596.869 1383.32 597.495 1379.36 597.355H1376.44C1376.99 593.645 1378.22 590.069 1380.06 586.805M1377.52 566.978C1372.65 569.356 1368.33 572.709 1364.81 576.828C1361.55 581.027 1359.03 585.756 1357.38 590.809C1355.77 596.102 1354.97 601.609 1355.02 607.141C1354.81 612.236 1356 617.292 1358.46 621.758C1360.61 625.663 1364.01 628.73 1368.12 630.464C1372.73 632.372 1377.68 633.303 1382.67 633.196C1387.07 633.268 1391.46 632.842 1395.76 631.925C1399.68 630.972 1403.48 629.564 1407.07 627.731V613.56C1403.63 615.268 1400.03 616.651 1396.33 617.69C1393.14 618.649 1389.81 619.1 1386.48 619.025C1383.26 619.262 1380.03 618.556 1377.2 616.991C1376.2 616.478 1375.37 615.692 1374.8 614.725C1374.22 613.759 1373.93 612.65 1373.96 611.526V610.954C1373.88 610.663 1373.88 610.356 1373.96 610.064H1377.01C1383.02 610.165 1389.01 609.546 1394.87 608.222C1399.43 607.382 1403.76 605.584 1407.58 602.947C1410.75 600.917 1413.34 598.09 1415.08 594.749C1416.77 591.379 1417.65 587.655 1417.62 583.882C1417.67 581.142 1417.13 578.424 1416.03 575.913C1414.93 573.401 1413.31 571.156 1411.27 569.329C1406.46 565.163 1400.2 563.062 1393.85 563.483C1387.99 563.356 1382.18 564.597 1376.89 567.105M1448.95 565.834C1445.18 567.529 1441.76 569.898 1438.85 572.825C1435.91 575.735 1433.4 579.052 1431.41 582.675C1429.3 586.563 1427.7 590.707 1426.64 595.003C1425.64 599.615 1425.17 604.328 1425.25 609.048C1424.99 614.065 1426.18 619.052 1428.68 623.41C1430.81 627.027 1434.07 629.842 1437.96 631.417C1442.18 633.077 1446.7 633.876 1451.24 633.768C1455.09 633.842 1458.94 633.415 1462.68 632.497C1465.94 631.578 1469.11 630.365 1472.15 628.875V613.369C1469.46 614.769 1466.68 615.98 1463.82 616.991C1461.02 618.051 1458.04 618.547 1455.05 618.453C1453.02 618.588 1451 618.148 1449.2 617.182C1448.36 616.842 1447.61 616.326 1446.98 615.668C1446.36 615.01 1445.88 614.226 1445.58 613.369C1444.62 611.396 1444.18 609.207 1444.31 607.014C1444.3 603.626 1444.73 600.251 1445.58 596.973C1446.28 593.786 1447.51 590.737 1449.2 587.949C1450.6 585.382 1452.61 583.199 1455.05 581.594C1457.42 580.006 1460.21 579.165 1463.06 579.18C1465.52 579.156 1467.97 579.543 1470.3 580.323C1472.53 581.022 1474.69 581.912 1477.04 582.865L1482.7 568.503C1479.76 567.005 1476.64 565.894 1473.42 565.199C1469.73 564.349 1465.95 563.923 1462.17 563.928C1457.83 563.949 1453.52 564.745 1449.46 566.279M1537.09 563.928L1530.74 592.144C1529.74 596.667 1528.34 601.091 1526.54 605.362C1525.06 608.881 1523.02 612.141 1520.51 615.021C1519.57 616.118 1518.39 616.994 1517.08 617.587C1515.76 618.18 1514.33 618.475 1512.88 618.453C1511.96 618.547 1511.02 618.436 1510.14 618.129C1509.26 617.821 1508.46 617.324 1507.8 616.674C1506.56 615.061 1505.97 613.043 1506.14 611.018C1506.03 609.877 1506.03 608.727 1506.14 607.586C1506.28 606.299 1506.52 605.025 1506.84 603.773L1515.55 563.928H1496.49L1488.41 601.041C1487.91 603.432 1487.55 605.851 1487.33 608.285C1487.09 610.224 1486.99 612.178 1487.02 614.132C1486.9 617.732 1487.5 621.32 1488.8 624.681C1489.98 627.549 1492.11 629.926 1494.83 631.417C1497.87 633.135 1501.33 633.951 1504.81 633.768C1507.84 633.843 1510.84 633.212 1513.58 631.925C1516.22 630.764 1518.62 629.102 1520.63 627.032C1522.92 624.791 1524.95 622.297 1526.67 619.597H1527.82L1526.54 633.768H1540.91L1555.65 563.864L1537.09 563.928ZM1601.09 565.771C1598.38 566.912 1595.91 568.575 1593.84 570.664C1591.53 572.957 1589.51 575.517 1587.81 578.29H1587.04L1588.31 563.928H1573.95L1559.27 633.832H1577.96L1584.69 603.455C1585.28 600.168 1586.33 596.979 1587.81 593.987C1589.1 591.56 1590.68 589.298 1592.51 587.25C1594.17 585.537 1596.16 584.176 1598.36 583.247C1600.48 582.32 1602.77 581.824 1605.09 581.785C1606.31 581.808 1607.52 581.935 1608.71 582.166C1609.79 582.548 1610.75 582.738 1611.45 582.929L1615.45 564.69C1614.55 564.455 1613.64 564.285 1612.72 564.182C1611.64 564.182 1610.56 564.182 1609.41 564.182C1606.54 564.189 1603.7 564.818 1601.09 566.025M1627.08 564.182L1612.34 634.086H1631.4L1646.27 564.182H1627.08ZM1751.64 564.182L1735.3 598.244C1734.22 600.85 1733.14 603.011 1732.38 605.171C1731.53 607.243 1730.81 609.365 1730.22 611.526C1729.52 613.102 1728.97 614.741 1728.57 616.419H1728C1728 614.767 1728 612.797 1728 610.573C1728 608.349 1728 606.061 1728 603.837C1728 601.612 1727.61 599.515 1727.61 597.482L1723.99 563.864H1705.63L1715.79 636.628L1714.33 639.869C1712.53 643.422 1710.19 646.68 1707.41 649.529C1706.12 650.799 1704.59 651.793 1702.91 652.449C1701.22 653.105 1699.42 653.409 1697.62 653.342C1696.16 653.342 1694.89 653.342 1693.62 653.342C1692.62 652.961 1691.57 652.725 1690.5 652.643V667.704C1691.65 667.704 1692.73 668.085 1694.19 668.466C1695.98 668.716 1697.78 668.844 1699.59 668.848C1703.58 668.754 1707.53 668.002 1711.28 666.623C1715 664.876 1718.37 662.488 1721.26 659.569C1724.63 655.715 1727.49 651.443 1729.78 646.86L1772.35 563.737L1751.64 564.182ZM1675.38 552.489L1667.18 563.991L1654.85 569.266L1653.01 578.353H1662.67L1655.36 610.954C1655.06 612.204 1654.89 613.482 1654.85 614.767C1654.76 615.803 1654.76 616.845 1654.85 617.881C1654.58 620.181 1654.88 622.513 1655.73 624.666C1656.59 626.819 1657.97 628.724 1659.74 630.21C1663.68 632.775 1668.34 634.001 1673.03 633.705C1676.14 633.771 1679.26 633.473 1682.3 632.815C1684.85 632.407 1687.32 631.592 1689.61 630.4V616.229C1687.93 616.868 1686.21 617.42 1684.46 617.881C1682.85 618.211 1681.21 618.381 1679.57 618.389C1678.12 618.507 1676.66 618.198 1675.38 617.5C1674.83 617.084 1674.4 616.528 1674.15 615.89C1673.89 615.252 1673.81 614.557 1673.92 613.877V612.607C1673.96 611.955 1674.15 611.323 1674.49 610.764L1681.6 578.036H1699.21L1702.32 563.864H1684.66L1687.77 552.171L1675.38 552.489ZM1040.58 540.859L1037.15 557.064H1059.14L1043.12 634.023H1062.19L1078.14 557.064H1100.19L1103.62 540.859H1040.58ZM1136.42 569.647C1137.5 567.105 1138.77 564.69 1139.85 562.339C1140.95 560.123 1141.88 557.829 1142.64 555.476H1142.96C1142.77 558.078 1142.77 560.69 1142.96 563.292C1142.96 565.834 1143.34 568.376 1143.47 570.918L1145.12 594.558H1124.4L1136.42 569.647ZM1133.81 540.287L1085.96 633.451H1105.97L1116.71 610.192H1146.2L1147.85 633.451H1166.35L1157.07 540.287H1133.81ZM1211.15 543.783C1205.99 545.866 1201.31 548.956 1197.36 552.87C1193.46 556.87 1190.23 561.46 1187.76 566.47C1185.29 571.449 1183.39 576.694 1182.11 582.103C1180.93 587.424 1180.33 592.858 1180.33 598.308C1180.13 604.87 1181.43 611.391 1184.14 617.373C1186.49 622.556 1190.46 626.838 1195.45 629.574C1201.13 632.693 1207.54 634.209 1214.01 633.959C1218.95 634.005 1223.88 633.45 1228.69 632.307C1232.17 631.468 1235.59 630.385 1238.92 629.066V612.861C1235.44 614.348 1231.82 615.498 1228.12 616.292C1224.73 617.134 1221.25 617.561 1217.76 617.563C1215.27 617.773 1212.77 617.445 1210.42 616.6C1208.08 615.756 1205.94 614.415 1204.16 612.67C1200.89 608.265 1199.33 602.823 1199.77 597.355C1199.81 593.707 1200.17 590.07 1200.85 586.488C1201.61 582.688 1202.72 578.965 1204.16 575.367C1205.62 571.968 1207.57 568.799 1209.94 565.961C1212.23 563.104 1215.13 560.797 1218.43 559.213C1221.73 557.629 1225.35 556.808 1229.01 556.81C1232.54 556.835 1236.04 557.458 1239.36 558.653C1242.55 559.776 1245.59 561.247 1248.45 563.038L1255.89 547.405C1252.04 545.256 1247.94 543.592 1243.69 542.448C1238.89 541.265 1233.95 540.71 1229.01 540.796C1222.75 540.727 1216.55 541.915 1210.77 544.291M1313.97 542.829C1310.28 544.078 1306.89 546.068 1303.99 548.676C1301.29 551.104 1299.13 554.07 1297.64 557.382C1296.19 560.91 1295.46 564.69 1295.48 568.503C1295.41 572.238 1296.15 575.944 1297.64 579.37C1299.05 582.441 1301.11 585.172 1303.68 587.377C1305.9 589.705 1308.32 591.832 1310.92 593.732C1313.15 595.321 1314.93 596.783 1316.77 598.054C1318.27 599.374 1319.55 600.917 1320.58 602.629C1321.54 604.406 1322.04 606.393 1322.04 608.412C1322.09 609.885 1321.71 611.339 1320.96 612.607C1320.19 613.882 1319.12 614.951 1317.85 615.72C1316.41 616.61 1314.81 617.214 1313.15 617.5C1311.18 617.891 1309.18 618.083 1307.17 618.072C1303.33 618.091 1299.51 617.49 1295.86 616.292C1291.97 615.097 1288.23 613.433 1284.74 611.335V628.43C1287.69 630.373 1290.96 631.792 1294.4 632.625C1298.55 633.7 1302.82 634.192 1307.11 634.086C1311.59 634.109 1316.05 633.554 1320.39 632.434C1324.38 631.41 1328.14 629.618 1331.45 627.159C1334.6 624.937 1337.11 621.938 1338.76 618.453C1340.72 614.513 1341.66 610.142 1341.49 605.743C1341.53 602.455 1340.99 599.185 1339.9 596.084C1338.65 593.102 1336.91 590.352 1334.75 587.949C1332.31 585.21 1329.51 582.816 1326.43 580.832C1324.23 579.56 1322.11 578.16 1320.07 576.638C1318.47 575.522 1317.11 574.096 1316.07 572.443C1315.15 570.729 1314.71 568.796 1314.8 566.851C1314.73 565.392 1315.06 563.942 1315.75 562.657C1316.3 561.459 1317.1 560.395 1318.1 559.543C1319.3 558.76 1320.58 558.1 1321.92 557.573C1323.44 557.108 1325.02 556.852 1326.62 556.81C1329.59 556.881 1332.53 557.329 1335.39 558.145C1338.55 558.932 1341.64 560.017 1344.6 561.386L1351.53 546.833C1347.76 544.897 1343.8 543.364 1339.71 542.257C1335.44 541.129 1331.04 540.574 1326.62 540.605C1322.3 540.615 1318.01 541.301 1313.91 542.639M1635.02 534.695C1633.36 535.5 1632.01 536.843 1631.21 538.508C1630.24 540.481 1629.81 542.67 1629.94 544.863C1629.81 546.019 1630.01 547.188 1630.5 548.241C1630.99 549.294 1631.77 550.192 1632.74 550.837C1634.77 551.968 1637.08 552.517 1639.41 552.425C1640.94 552.57 1642.49 552.371 1643.95 551.844C1645.4 551.316 1646.71 550.473 1647.8 549.375C1649.71 547.085 1650.69 544.157 1650.53 541.177C1650.63 540.058 1650.42 538.933 1649.94 537.917C1649.46 536.901 1648.72 536.03 1647.8 535.394C1645.86 534.296 1643.67 533.726 1641.44 533.742C1639.26 533.759 1637.11 534.191 1635.09 535.013" fill="url(#paint0_linear_9_160)"/>
<path d="M1033.97 368.129C1011.29 368.897 988.779 363.867 968.579 353.513C951.616 344.16 937.881 329.893 929.179 312.587C919.9 293.496 914.89 272.612 914.499 251.389C914.499 239.632 914.118 227.049 914.118 213.259C914.118 199.469 914.118 186.823 914.499 174.494C914.883 153.29 919.893 132.426 929.179 113.36C937.922 96.1478 951.654 81.9733 968.579 72.6881C988.765 62.2939 1011.28 57.2609 1033.97 58.0718C1051.69 57.7361 1069.33 60.5107 1086.08 66.2697C1099.84 71.0316 1112.51 78.5088 1123.32 88.2577C1132.83 96.9064 1140.52 107.362 1145.95 119.016C1151.02 130.075 1153.93 142.004 1154.52 154.158C1154.69 155.329 1154.56 156.522 1154.15 157.631C1153.74 158.739 1153.06 159.729 1152.17 160.513C1150.47 162.168 1148.19 163.102 1145.82 163.119H1122.11C1119.71 163.186 1117.35 162.423 1115.44 160.958C1113.21 158.937 1111.77 156.19 1111.37 153.205C1106.5 130.836 1097.37 115.478 1083.99 107.132C1068.81 98.2441 1051.42 93.8374 1033.84 94.422C1023.88 93.8871 1013.91 95.3425 1004.52 98.7031C995.123 102.064 986.492 107.262 979.129 113.995C965.656 127.086 958.327 147.973 957.141 176.655C956.314 200.232 956.314 224.317 957.141 249.038C958.284 277.719 965.614 298.606 979.129 311.697C986.456 318.391 995.034 323.571 1004.37 326.941C1013.7 330.311 1023.61 331.804 1033.53 331.334C1051.11 331.919 1068.49 327.512 1083.67 318.624C1097.01 310.151 1106.14 294.772 1111.06 272.487C1111.5 269.519 1112.94 266.788 1115.12 264.734C1117.05 263.296 1119.4 262.536 1121.8 262.574H1145.5C1147.87 262.616 1150.14 263.546 1151.86 265.179C1152.74 265.966 1153.41 266.957 1153.82 268.065C1154.23 269.172 1154.36 270.363 1154.21 271.534C1153.62 283.669 1150.71 295.578 1145.63 306.613C1140.21 318.286 1132.51 328.763 1123 337.435C1112.18 347.164 1099.52 354.619 1085.76 359.359C1069.14 365.276 1051.61 368.244 1033.97 368.129Z" fill="#5FE8A1"/>
<path d="M1249.28 445.724C1247.02 445.676 1244.86 444.756 1243.27 443.158C1241.67 441.559 1240.75 439.405 1240.7 437.145C1240.7 435.969 1240.82 434.797 1241.08 433.65C1241.53 432.174 1242.12 430.748 1242.86 429.392L1275.97 350.4L1193.74 156.257C1192.6 153.941 1191.87 151.448 1191.58 148.885C1191.56 147.695 1191.78 146.514 1192.23 145.412C1192.67 144.309 1193.34 143.308 1194.18 142.466C1195.02 141.625 1196.02 140.961 1197.13 140.513C1198.23 140.066 1199.41 139.844 1200.6 139.861H1221.7C1224.19 139.717 1226.65 140.485 1228.62 142.022C1230.26 143.356 1231.45 145.149 1232.06 147.169L1297.51 303.946L1364.75 147.042C1365.57 145.084 1366.8 143.327 1368.37 141.895C1370.38 140.302 1372.93 139.53 1375.49 139.734H1395.76C1396.94 139.719 1398.11 139.941 1399.2 140.389C1400.29 140.837 1401.28 141.5 1402.11 142.34C1402.94 143.116 1403.59 144.052 1404.04 145.09C1404.49 146.128 1404.72 147.246 1404.72 148.377C1404.4 151.057 1403.67 153.672 1402.56 156.13L1280.29 438.352C1279.47 440.308 1278.23 442.064 1276.67 443.5C1274.65 445.088 1272.11 445.859 1269.55 445.661L1249.28 445.724Z" fill="#5FE8A1"/>
<path d="M1561.11 368.132C1546.2 368.669 1531.39 365.48 1518.02 358.854C1507.27 353.305 1497.87 345.45 1490.51 335.849V353.96C1490.53 355.267 1490.29 356.564 1489.81 357.776C1489.32 358.987 1488.58 360.086 1487.66 361.007C1486.73 361.928 1485.63 362.651 1484.41 363.133C1483.2 363.615 1481.9 363.845 1480.59 363.811H1460.77C1459.45 363.865 1458.14 363.644 1456.91 363.163C1455.69 362.682 1454.58 361.95 1453.65 361.014C1452.73 360.09 1452 358.988 1451.52 357.776C1451.04 356.563 1450.81 355.265 1450.85 353.96V67.9885C1450.82 66.6756 1451.05 65.3696 1451.53 64.1473C1452.01 62.925 1452.73 61.811 1453.65 60.871C1454.58 59.948 1455.7 59.2244 1456.92 58.7438C1458.14 58.2632 1459.45 58.0356 1460.77 58.0748H1481.42C1482.77 57.9931 1484.12 58.2004 1485.38 58.6826C1486.64 59.1649 1487.78 59.911 1488.73 60.871C1490.5 62.8084 1491.44 65.3656 1491.33 67.9885V166.998C1499.73 156.667 1510.42 148.442 1522.56 142.98C1534.69 137.518 1547.94 134.971 1561.24 135.541C1575.41 135.126 1589.49 138.019 1602.35 143.993C1613.39 149.32 1623 157.207 1630.38 166.998C1637.8 177.006 1643.41 188.232 1646.97 200.171C1650.7 212.765 1652.73 225.803 1653 238.936C1653 243.512 1653.38 247.833 1653.38 251.646C1653.38 255.459 1653.38 259.971 1653 264.356C1652.75 277.616 1650.72 290.782 1646.97 303.502C1643.45 315.398 1637.83 326.569 1630.38 336.484C1622.96 346.184 1613.36 353.999 1602.35 359.299C1589.48 365.394 1575.36 368.418 1561.11 368.132ZM1552.09 333.243C1564.52 333.956 1576.85 330.562 1587.17 323.584C1595.63 317.094 1602 308.252 1605.47 298.164C1609.25 287.273 1611.4 275.878 1611.82 264.356C1612.08 255.883 1612.08 247.558 1611.82 239.381C1611.4 227.859 1609.25 216.464 1605.47 205.573C1602.02 195.476 1595.65 186.63 1587.17 180.153C1576.81 173.877 1564.93 170.559 1552.82 170.559C1540.71 170.559 1528.83 173.877 1518.47 180.153C1509.76 186.267 1502.84 194.606 1498.45 204.302C1494.12 213.642 1491.7 223.754 1491.33 234.043C1491.33 238.618 1490.89 244.147 1490.89 250.629C1490.89 257.111 1490.89 262.577 1491.33 267.152C1491.91 277.903 1494.32 288.477 1498.45 298.418C1502.43 308.524 1509.14 317.325 1517.83 323.838C1527.91 330.651 1539.95 333.956 1552.09 333.243Z" fill="#5FE8A1"/>
<path d="M1799.29 368.132C1769.64 368.132 1746.08 359.023 1728.63 340.806C1711.17 322.588 1701.55 297.677 1699.77 266.072C1699.77 262.322 1699.33 257.556 1699.33 251.646C1699.33 245.736 1699.33 240.97 1699.77 237.22C1700.48 218.506 1705.34 200.184 1714.01 183.585C1721.85 168.75 1733.72 156.435 1748.26 148.061C1763.79 139.413 1781.33 135.028 1799.1 135.351C1818.34 134.709 1837.36 139.488 1854.01 149.141C1868.97 158.514 1880.75 172.179 1887.82 188.351C1895.93 207.087 1899.9 227.356 1899.45 247.77V255.078C1899.53 256.434 1899.32 257.793 1898.84 259.064C1898.36 260.335 1897.61 261.489 1896.65 262.449C1894.69 264.18 1892.14 265.09 1889.53 264.991H1740.7V268.868C1741.18 280.253 1743.81 291.444 1748.45 301.85C1752.78 311.705 1759.62 320.252 1768.28 326.634C1777.31 333.091 1788.2 336.416 1799.29 336.103C1808.14 336.388 1816.94 334.763 1825.09 331.337C1831.2 328.682 1836.88 325.126 1841.93 320.788C1845.08 318.247 1847.95 315.393 1850.51 312.272C1852.18 309.742 1854.34 307.58 1856.87 305.917C1859.08 305.075 1861.44 304.707 1863.8 304.837H1884.45C1887.02 304.768 1889.54 305.6 1891.57 307.188C1892.45 307.976 1893.12 308.966 1893.53 310.074C1893.94 311.181 1894.07 312.372 1893.92 313.543C1893.04 319.305 1890.68 324.738 1887.05 329.303C1881.87 336.341 1875.61 342.518 1868.5 347.606C1859.58 354.054 1849.69 359.032 1839.2 362.349C1826.31 366.452 1812.82 368.405 1799.29 368.132ZM1740.7 235.504H1858.71V234.17C1859.04 222.325 1856.72 210.557 1851.91 199.726C1847.46 190.005 1840.37 181.727 1831.45 175.832C1821.98 169.775 1810.91 166.698 1799.67 166.998C1788.43 166.634 1777.34 169.716 1767.9 175.832C1759.11 181.754 1752.17 190.036 1747.88 199.726C1743.09 210.566 1740.73 222.321 1740.96 234.17L1740.7 235.504Z" fill="#5FE8A1"/>
<path d="M1964.65 363.814C1963.34 363.849 1962.04 363.618 1960.83 363.136C1959.61 362.654 1958.51 361.931 1957.58 361.01C1956.66 360.09 1955.93 358.99 1955.44 357.779C1954.95 356.568 1954.71 355.27 1954.73 353.964V150.225C1954.7 148.878 1954.94 147.538 1955.43 146.284C1955.92 145.029 1956.66 143.885 1957.59 142.917C1958.48 141.924 1959.56 141.136 1960.78 140.609C1962 140.082 1963.32 139.829 1964.65 139.866H1984.48C1987.22 139.883 1989.84 140.98 1991.78 142.919C1993.72 144.858 1994.82 147.483 1994.83 150.225V169.29C2000.28 159.628 2008.55 151.866 2018.54 147.047C2029.89 141.917 2042.25 139.419 2054.7 139.739H2071.92C2073.2 139.689 2074.47 139.912 2075.65 140.395C2076.84 140.877 2077.9 141.607 2078.78 142.535C2080.53 144.487 2081.46 147.034 2081.39 149.653V167.32C2081.46 168.582 2081.27 169.847 2080.82 171.029C2080.37 172.211 2079.67 173.285 2078.78 174.179C2077.88 175.074 2076.81 175.769 2075.63 176.218C2074.45 176.668 2073.18 176.862 2071.92 176.789H2046.05C2039.35 176.42 2032.64 177.432 2026.35 179.76C2020.05 182.088 2014.3 185.684 2009.45 190.325C2004.88 195.265 2001.34 201.072 1999.05 207.403C1996.75 213.734 1995.75 220.459 1996.1 227.183V353.964C1996.14 355.285 1995.89 356.597 1995.37 357.814C1994.86 359.03 1994.09 360.123 1993.12 361.018C1992.13 361.946 1990.98 362.67 1989.71 363.15C1988.45 363.63 1987.1 363.855 1985.75 363.814H1964.65Z" fill="#5FE8A1"/>
<path d="M2199.4 368.137C2185.37 368.469 2171.38 366.428 2158.03 362.1C2147.96 358.815 2138.51 353.875 2130.07 347.484C2123.76 342.693 2118.3 336.871 2113.93 330.262C2110.99 326.148 2109 321.44 2108.08 316.472C2107.87 315.091 2108.04 313.679 2108.58 312.39C2109.12 311.102 2110 309.985 2111.13 309.163C2113.07 307.564 2115.48 306.649 2117.99 306.558H2137.06C2138.46 306.494 2139.87 306.71 2141.19 307.193C2142.77 308.152 2144.15 309.403 2145.26 310.879C2149.01 314.883 2153.14 318.886 2157.97 322.954C2162.99 327.228 2168.73 330.564 2174.93 332.804C2195.21 339.264 2217.21 337.647 2236.32 328.292C2240.76 325.905 2244.45 322.326 2246.96 317.958C2249.48 313.591 2250.72 308.608 2250.56 303.571C2250.86 297.278 2248.77 291.104 2244.71 286.286C2238.84 280.836 2231.76 276.851 2224.06 274.656C2210.69 270.306 2197.09 266.721 2183.32 263.916C2169.04 261.005 2155.27 255.993 2142.46 249.046C2133.4 244.229 2125.92 236.904 2120.92 227.947C2116.54 219.355 2114.36 209.815 2114.56 200.176C2114.7 189.207 2117.98 178.508 2124.03 169.355C2130.97 158.928 2140.56 150.529 2151.8 145.015C2166.13 138.255 2181.86 135.009 2197.68 135.547C2210.62 135.295 2223.5 137.185 2235.81 141.139C2245.32 144.299 2254.21 149.048 2262.12 155.183C2268.16 159.857 2273.41 165.455 2277.69 171.77C2280.59 175.876 2282.51 180.595 2283.29 185.56C2283.46 186.859 2283.32 188.182 2282.86 189.412C2282.41 190.642 2281.66 191.741 2280.68 192.614C2278.85 194.415 2276.38 195.421 2273.82 195.41H2255.71C2253.96 195.509 2252.23 195.065 2250.75 194.139C2249.44 193.272 2248.23 192.271 2247.13 191.152C2244 187.17 2240.61 183.412 2236.96 179.904C2232.58 175.886 2227.47 172.757 2221.9 170.689C2214.08 167.956 2205.83 166.706 2197.56 167.004C2186.07 166.166 2174.66 169.357 2165.27 176.028C2161.84 178.76 2159.08 182.243 2157.21 186.21C2155.34 190.176 2154.4 194.52 2154.47 198.905C2154.41 204.169 2156.09 209.305 2159.24 213.522C2164.09 218.991 2170.36 223.016 2177.35 225.151C2190.28 229.762 2203.51 233.499 2216.94 236.336C2232.58 238.946 2247.7 244.03 2261.74 251.397C2271.35 256.472 2279.4 264.074 2285 273.385C2289.71 282.262 2292.07 292.192 2291.87 302.236C2291.93 314.129 2288.24 325.74 2281.32 335.409C2273.45 346.15 2262.7 354.437 2250.3 359.304C2234.12 365.702 2216.79 368.709 2199.4 368.137Z" fill="black"/>
<path d="M2435.42 368.136C2417.13 368.623 2399.01 364.561 2382.68 356.316C2368.1 348.66 2356.16 336.79 2348.42 322.253C2340.01 305.788 2335.66 287.552 2335.72 269.062C2335.4 264.805 2335.27 259.022 2335.27 251.841C2335.27 244.66 2335.27 239.131 2335.72 234.619C2335.67 216.131 2340.03 197.899 2348.42 181.428C2356.16 166.908 2368.1 155.059 2382.68 147.429C2399 139.162 2417.13 135.078 2435.42 135.545C2450 135.218 2464.52 137.566 2478.26 142.472C2489.14 146.419 2499.18 152.416 2507.81 160.139C2515.19 166.651 2521.21 174.555 2525.54 183.398C2529.22 190.77 2531.39 198.811 2531.89 207.038C2532.09 208.314 2531.97 209.62 2531.52 210.833C2531.08 212.045 2530.33 213.124 2529.35 213.965C2527.29 215.708 2524.67 216.635 2521.98 216.571H2501.32C2499.04 216.687 2496.79 215.989 2494.97 214.601C2493.12 212.681 2491.67 210.413 2490.71 207.928C2487.07 196 2479.67 185.569 2469.61 178.187C2459.62 172.173 2448.1 169.193 2436.44 169.608C2428.72 169.293 2421.02 170.544 2413.81 173.285C2406.59 176.027 2400 180.202 2394.43 185.559C2383.72 196.15 2377.89 213.224 2376.96 236.779C2376.7 247.159 2376.7 257.2 2376.96 266.902C2377.85 290.796 2383.69 307.891 2394.43 318.377C2400.03 323.678 2406.63 327.805 2413.84 330.512C2421.06 333.219 2428.74 334.451 2436.44 334.137C2448.11 334.563 2459.64 331.558 2469.61 325.494C2479.69 318.164 2487.1 307.744 2490.71 295.817C2491.71 293.445 2493.16 291.288 2494.97 289.462C2496.77 288.047 2499.04 287.346 2501.32 287.492H2521.98C2524.67 287.428 2527.29 288.355 2529.35 290.097C2530.32 290.929 2531.07 291.996 2531.51 293.198C2531.96 294.399 2532.09 295.695 2531.89 296.961C2531.55 303.307 2530.24 309.564 2528.02 315.517C2525.38 322.399 2521.69 328.831 2517.08 334.582C2511.68 341.295 2505.25 347.108 2498.02 351.804C2489.72 357.211 2480.63 361.285 2471.07 363.878C2459.45 366.945 2447.45 368.378 2435.42 368.136Z" fill="black"/>
<path d="M2678.05 368.134C2659.02 368.739 2640.16 364.357 2623.34 355.424C2608.97 347.408 2597.28 335.341 2589.72 320.726C2581.75 304.937 2577.41 287.568 2577.01 269.886C2576.69 264.993 2576.56 258.765 2576.56 251.139C2576.56 243.513 2576.56 237.413 2577.01 232.837C2577.44 215.107 2581.94 197.712 2590.16 181.998C2597.9 167.511 2609.63 155.555 2623.97 147.554C2640.88 139.318 2659.44 135.038 2678.24 135.038C2697.05 135.038 2715.61 139.318 2732.51 147.554C2746.83 155.592 2758.55 167.539 2766.32 181.998C2774.5 197.728 2778.97 215.116 2779.41 232.837C2779.73 237.413 2779.86 243.513 2779.86 251.139C2779.86 258.765 2779.86 264.993 2779.41 269.886C2779.02 287.568 2774.67 304.937 2766.7 320.726C2759.15 335.341 2747.46 347.408 2733.09 355.424C2716.17 364.414 2697.19 368.798 2678.05 368.134ZM2678.05 334.961C2685.96 335.318 2693.85 333.99 2701.2 331.064C2708.55 328.139 2715.2 323.683 2720.69 317.993C2731.33 306.639 2737.07 290.053 2737.92 268.234C2738.17 263.998 2738.3 258.532 2738.3 251.838C2738.3 245.483 2738.3 239.764 2737.92 235.506C2737.03 213.645 2731.29 197.059 2720.69 185.747C2715.21 180.036 2708.57 175.562 2701.21 172.624C2693.86 169.687 2685.96 168.355 2678.05 168.716C2670.11 168.363 2662.17 169.699 2654.78 172.634C2647.39 175.57 2640.7 180.039 2635.16 185.747C2624.44 197.059 2618.78 213.645 2618.19 235.506C2617.87 239.764 2617.74 245.229 2617.74 251.838C2617.74 258.448 2617.74 263.913 2618.19 268.234C2618.74 290.053 2624.4 306.639 2635.16 317.993C2640.71 323.68 2647.4 328.131 2654.79 331.055C2662.19 333.979 2670.11 335.31 2678.05 334.961Z" fill="black"/>
<path d="M2847.16 445.726C2845.85 445.757 2844.54 445.527 2843.32 445.046C2842.1 444.566 2840.98 443.846 2840.04 442.929C2839.12 441.994 2838.4 440.88 2837.92 439.657C2837.44 438.434 2837.21 437.126 2837.25 435.812V149.84C2837.2 148.526 2837.43 147.217 2837.91 145.994C2838.39 144.771 2839.12 143.661 2840.05 142.731C2840.98 141.802 2842.09 141.073 2843.32 140.591C2844.54 140.108 2845.85 139.882 2847.16 139.926H2866.99C2868.3 139.882 2869.61 140.108 2870.83 140.591C2872.06 141.073 2873.17 141.802 2874.1 142.731C2875.03 143.661 2875.76 144.771 2876.24 145.994C2876.72 147.217 2876.95 148.526 2876.9 149.84V168.905C2884.22 159.073 2893.61 150.979 2904.42 145.201C2917.76 138.477 2932.58 135.221 2947.51 135.732C2961.65 135.332 2975.71 138.134 2988.62 143.93C2999.59 148.998 3009.19 156.6 3016.65 166.108C3024.07 175.788 3029.69 186.723 3033.23 198.392C3037.15 210.953 3039.29 224.002 3039.59 237.157C3039.59 241.732 3040.03 246.625 3040.03 251.773C3040.03 256.92 3040.03 261.814 3039.59 266.453C3039.26 279.521 3037.12 292.481 3033.23 304.964C3029.79 316.808 3024.16 327.907 3016.65 337.692C3009.12 347.171 2999.53 354.819 2988.62 360.061C2975.74 365.984 2961.67 368.855 2947.51 368.45C2932.95 368.947 2918.5 365.755 2905.5 359.171C2894.75 353.507 2885.29 345.673 2877.73 336.166V435.748C2877.83 438.36 2876.92 440.911 2875.19 442.866C2874.22 443.821 2873.07 444.563 2871.8 445.045C2870.53 445.526 2869.17 445.737 2867.81 445.662L2847.16 445.726ZM2938.61 333.243C2951.04 333.956 2963.37 330.562 2973.69 323.584C2982.15 317.093 2988.52 308.252 2991.99 298.164C2995.78 287.273 2997.92 275.878 2998.35 264.356C2998.6 255.882 2998.6 247.558 2998.35 239.381C2997.92 227.858 2995.78 216.464 2991.99 205.573C2988.54 195.476 2982.17 186.63 2973.69 180.153C2963.39 173.126 2951.05 169.707 2938.61 170.43C2926.41 169.865 2914.37 173.351 2904.36 180.344C2895.79 186.911 2889.2 195.704 2885.29 205.763C2881.2 215.695 2878.79 226.241 2878.17 236.966C2878.17 241.542 2877.73 247.007 2877.73 253.362C2877.73 259.717 2877.73 265.245 2878.17 270.139C2878.44 280.29 2880.71 290.288 2884.85 299.562C2889.24 309.239 2896.15 317.558 2904.86 323.647C2914.8 330.358 2926.63 333.72 2938.61 333.243Z" fill="black"/>
<path d="M3186.45 368.132C3156.79 368.132 3133.24 359.023 3115.78 340.806C3098.33 322.588 3088.71 297.677 3086.93 266.072C3086.93 262.322 3086.49 257.556 3086.49 251.646C3086.49 245.736 3086.49 240.97 3086.93 237.22C3087.63 218.506 3092.5 200.184 3101.17 183.585C3109.01 168.75 3120.88 156.435 3135.42 148.061C3150.95 139.413 3168.49 135.028 3186.26 135.351C3205.49 134.709 3224.52 139.488 3241.17 149.141C3256.12 158.514 3267.9 172.179 3274.97 188.351C3283.09 207.087 3287.06 227.356 3286.6 247.77V255.078C3286.69 256.434 3286.48 257.793 3286 259.064C3285.52 260.335 3284.77 261.489 3283.81 262.449C3281.85 264.18 3279.3 265.09 3276.69 264.991H3127.54V268.868C3128.1 280.338 3130.84 291.597 3135.61 302.041C3139.94 311.896 3146.77 320.442 3155.44 326.825C3164.46 333.282 3175.36 336.607 3186.45 336.294C3195.18 336.464 3203.84 334.774 3211.87 331.337C3217.98 328.682 3223.66 325.126 3228.71 320.788C3231.85 318.247 3234.72 315.393 3237.29 312.272C3238.95 309.742 3241.11 307.58 3243.64 305.917C3245.85 305.075 3248.21 304.707 3250.57 304.837H3271.22C3273.8 304.768 3276.32 305.6 3278.34 307.188C3279.22 307.976 3279.9 308.966 3280.31 310.074C3280.72 311.181 3280.85 312.372 3280.69 313.543C3279.82 319.305 3277.45 324.738 3273.83 329.303C3268.64 336.341 3262.38 342.518 3255.27 347.606C3246.37 354.099 3236.48 359.119 3225.98 362.476C3213.2 366.495 3199.85 368.405 3186.45 368.132ZM3127.86 235.504H3245.55V234.17C3245.78 222.301 3243.35 210.531 3238.43 199.726C3234.05 190.038 3227.05 181.763 3218.22 175.832C3208.76 169.775 3197.69 166.697 3186.45 166.998C3175.21 166.634 3164.12 169.716 3154.68 175.832C3145.89 181.754 3138.95 190.036 3134.66 199.726C3129.87 210.566 3127.5 222.321 3127.73 234.17L3127.86 235.504Z" fill="black"/>
<path d="M0.0884011 167.955C0.0884011 142.09 0.0884011 116.226 0.0884011 90.4245C-0.0262441 80.4351 3.20116 70.6938 9.2577 62.7489C15.3142 54.8041 23.8524 49.1113 33.5154 46.5755C68.3404 37.2338 103.42 27.892 138.435 21.1558C172.307 14.4831 206.687 9.71689 241.004 5.90393C296.913 -0.025413 353.205 -1.49169 409.346 1.51903C498.195 5.77517 586.208 20.7108 671.487 46.0036C692.84 52.3585 703.77 68.1187 705.804 90.4881C705.847 91.1536 705.693 91.8171 705.359 92.3946C633.548 207.609 545.469 307.509 431.588 382.942C348.856 438.46 255.541 476.279 157.5 494.026C132.907 498.475 107.932 501.017 83.2109 504.703C46.9102 448.815 21.7097 386.461 8.98532 321.045C-0.80128 271.604 -0.102247 221.654 0.0884011 171.704V167.955ZM445.569 42.1906V39.0767C442.131 37.3544 438.506 36.0324 434.766 35.1366C419.888 32.6512 404.853 31.2284 389.773 30.8788C354.757 31.8956 319.869 33.2301 284.853 36.8525C247.613 40.729 210.5 46.639 173.515 52.9304C135.038 59.401 97.0516 68.51 59.8248 80.1931C53.1649 81.8095 47.1343 85.3655 42.4962 90.4108C37.8581 95.4561 34.8211 101.764 33.7696 108.536C30.2328 124.271 28.3163 140.327 28.0501 156.452C28.6856 185.113 30.9098 213.647 34.4051 242.371C36.6928 261.817 42.0945 280.945 46.2888 300.137C47.1926 302.71 48.3641 305.181 49.784 307.509H51.6905C52.3917 304.908 52.8596 302.25 53.0885 299.565C53.8511 280.501 54.4231 260.927 54.995 241.672C54.9347 220.352 58.1716 199.152 64.591 178.822C80.4148 133.829 109.584 102.562 156.928 89.8526C220.477 72.7578 286.06 65.3861 351.389 57.3153C377.762 54.0108 404.199 50.5791 430.508 46.8932C435.638 45.81 440.674 44.3225 445.569 42.4448" fill="#5FE8A1"/>
<path d="M110.666 542.071C341.858 523.006 540.704 435.435 703.771 267.284C702.119 280.756 700.975 293.212 698.942 305.413C684.775 393.965 647.488 477.209 590.848 546.736C534.209 616.263 460.223 669.611 376.365 701.389C361.223 707.173 344.481 707.173 329.339 701.389C244.707 669.619 170.108 615.798 113.271 545.503C112.381 544.422 111.619 543.151 110.666 541.753" fill="#5FE8A1"/>
<path d="M445.569 42.1906C440.674 44.0683 435.639 45.5531 430.509 46.6363C404.2 50.3222 377.763 53.7538 351.39 57.0584C286.061 65.1292 220.732 72.5036 156.928 89.8526C109.584 102.562 80.669 133.829 64.591 178.822C58.1326 199.274 54.8963 220.603 54.9961 242.051C54.4241 261.115 53.8522 280.625 53.0896 299.944C52.752 302.486 52.1993 304.994 51.4373 307.443H49.5308C48.111 305.115 46.9395 302.644 46.0356 300.071C41.8414 281.006 36.4397 261.941 34.1519 242.305C30.7202 213.771 28.496 185.11 27.797 156.386C28.1049 140.256 30.0639 124.2 33.6435 108.47C34.7157 101.693 37.7766 95.3869 42.438 90.3521C47.0994 85.3173 53.1502 81.7832 59.8248 80.1931C97.01 68.5157 134.955 59.4039 173.388 52.9277C210.374 46.5728 247.487 40.7262 284.727 36.8497C319.552 33.2274 354.631 31.8929 389.647 30.8761C404.727 31.2256 419.762 32.6485 434.64 35.1339C438.38 36.0296 442.005 37.3516 445.443 39.0739V42.1879" fill="white"/>
<defs>
<linearGradient id="paint0_linear_9_160" x1="1037.15" y1="600.786" x2="1772.04" y2="600.786" gradientUnits="userSpaceOnUse">
<stop stop-color="#005CA5"/>
<stop offset="1" stop-color="#00A8E1"/>
</linearGradient>
</defs>
</svg>
