<?xml version="1.0" encoding="utf-8"?>
<!-- Generator: Adobe Illustrator 26.3.1, SVG Export Plug-In . SVG Version: 6.00 Build 0)  -->
<svg version="1.1" id="Layer_1" xmlns="http://www.w3.org/2000/svg" xmlns:xlink="http://www.w3.org/1999/xlink" x="0px" y="0px"
	 viewBox="0 0 2000 2000" style="enable-background:new 0 0 2000 2000;" xml:space="preserve">
<style type="text/css">
	.st0{fill:#0052B5;}
	.st1{fill:#FFFFFF;}
</style>
<g>
	<path class="st0" d="M381.6,1052.1c12.1,150.4,78.8,285,179.5,385.6c112.8,112.8,266.8,181.9,439,181.9l0,0
		c157.6,0,300.7-58.2,409.9-155.2h145.5c-14.6,17-29.1,31.5-44.9,47.3c-129.8,129.8-310.4,211-510.5,212.2l0,0l0,0
		c-200.1-1.2-380.8-82.5-511.7-213.4s-211-310.4-212.2-510.5l0,0l0,0c0-17,1.2-35.2,2.4-50.9l103.1-1.2l0,0h1236.8
		c-13.3-149.2-78.8-285-180.7-386.8C1326.2,449.5,1171,379.1,1000,380.4l-1.2-1.2c-156.4,1.2-300.7,60.6-408.6,156.4H444.6
		c14.5-17,29.1-31.5,43.6-46.1c131-131,311.6-212.2,511.7-213.4l0,0l0,0c198.9,0,379.5,81.2,510.5,212.2s212.2,311.6,213.4,511.7
		l0,0l0,0c0,17-1.2,35.2-2.4,50.9h-104.3l0,0L381.6,1052.1z M762.3,1251c-31.5,31.5-31.5,84.9,0,116.4c32.7,32.7,84.9,31.5,116.4,0
		c2.4-2.4,4.8-4.8,6.1-6.1l115.2-1.2l-1.2,1.2h596.6h31.5c36.4-63.1,63.1-133.4,80-206.1h-106.7c-8.5,35.2-21.8,70.3-36.4,101.9
		l-563.9,1.2l0,0H886c-2.4-2.4-4.8-4.8-7.3-7.3C847.2,1219.5,795.1,1218.3,762.3,1251z M1120.1,631.4c-2.4,2.4-4.8,4.8-6.1,8.5h-114
		l-1.2-1.2h-502l-93.4,1.2l-30.3-1.2c-36.4,63.1-64.3,132.2-80,206.1h106.7c8.5-35.2,20.6-69.1,36.4-101.9l563.9-1.2l0,0h114
		c2.4,2.4,4.8,4.8,6.1,6.1c32.7,32.7,84.9,34,117.6,1.2c31.5-31.5,31.5-84.9-1.2-117.6C1204.9,599.8,1151.6,599.8,1120.1,631.4z"/>
</g>
<rect x="1110.2" y="602.7" class="st1" width="153.8" height="174.1"/>
<rect x="2313.1" y="576.9" class="st1" width="153.8" height="174.1"/>
<rect x="738.7" y="1212.6" class="st1" width="148.5" height="193.6"/>
</svg>
