<?xml version="1.0" encoding="utf-8"?>
<!-- Generator: Adobe Illustrator 26.3.1, SVG Export Plug-In . SVG Version: 6.00 Build 0)  -->
<svg version="1.1" id="Layer_1" xmlns="http://www.w3.org/2000/svg" xmlns:xlink="http://www.w3.org/1999/xlink" x="0px" y="0px"
	 viewBox="0 0 2000 2000" style="enable-background:new 0 0 2000 2000;" xml:space="preserve">
<style type="text/css">
	.st0{fill:#0052B5;}
</style>
<g>
	<path class="st0" d="M1114.3,741.9c0.4-5.6,1-11.2,1-16.8v-15.3c-0.2-1.8-0.4-3.5-0.4-5.3c-0.2-7.7-0.3-15.5-0.4-23.2
		c-0.1-14.2,0-28.5,0-42.7c-0.2,0.4-0.4,0.8-0.5,1.3h-114l-1.2-1.2h-502l-93.4,1.2l-30.3-1.2c-36.4,63.1-64.3,132.2-80,206.1h106.7
		c8.5-35.2,20.6-69.1,36.4-101.9l563.9-1.2h114L1114.3,741.9z"/>
	<path class="st0" d="M1510.4,488.3c-131-131-311.6-212.2-510.5-212.2c-200.1,1.2-380.7,82.4-511.7,213.4
		c-14.5,14.6-29.1,29.1-43.6,46.1h145.6c107.9-95.8,252.2-155.2,408.6-156.4l1.2,1.2c171-1.3,326.2,69.1,437.8,180.7
		c101.9,101.8,167.4,237.6,180.7,386.8H381.7l-103.1,1.2c-1.2,15.7-2.4,33.9-2.4,50.9c1.2,200.1,81.3,379.6,212.2,510.5
		s311.6,212.2,511.7,213.4c200.1-1.2,380.7-82.4,510.5-212.2c15.8-15.8,30.3-30.3,44.9-47.3H1410c-109.2,97-252.3,155.2-409.9,155.2
		c-172.2,0-326.2-69.1-439-181.9c-100.7-100.6-167.4-235.2-179.5-385.6l1235.5-1.2h104.3c1.2-15.7,2.4-33.9,2.4-50.9
		C1722.6,799.9,1641.4,619.3,1510.4,488.3z"/>
	<path class="st0" d="M1600.2,1155.2c-8.5,35.2-21.8,70.3-36.4,101.9l-563.9,1.2H886l-0.6-0.6c0.2,13.1,0.8,26.2,0.4,39.3
		c-0.4,15.1-0.2,30.3-0.2,45.4c0,0,0,0,0,0.1c0,0.1,0,0.1,0,0.2c-0.1,3.8-0.6,7.6-0.8,11.4c0.1,2.4,0.2,4.8,0.2,7.3l115-1.2
		l-1.2,1.2h628.1c36.4-63.1,63.1-133.4,80-206.1H1600.2z"/>
</g>
</svg>
