<svg width="1384" height="1384" viewBox="0 0 1384 1384" fill="none" xmlns="http://www.w3.org/2000/svg">
<g clip-path="url(#clip0_1_2)">
<mask id="mask0_1_2" style="mask-type:luminance" maskUnits="userSpaceOnUse" x="0" y="0" width="1384" height="1384">
<path d="M1384 0H0V1384H1384V0Z" fill="white"/>
</mask>
<g mask="url(#mask0_1_2)">
<path fill-rule="evenodd" clip-rule="evenodd" d="M0 691.989C0 1074.17 309.81 1383.98 691.99 1383.98C1074.17 1383.98 1384 1074.17 1384 691.989C1384 309.81 1074.17 0 691.99 0C309.81 0 0 309.81 0 691.989Z" fill="url(#paint0_linear_1_2)"/>
<path fill-rule="evenodd" clip-rule="evenodd" d="M386.768 528.965L403.85 476.191C407.323 465.457 415.794 457.105 426.567 453.811L479.6 437.503C486.94 435.26 487 424.904 479.719 422.543L426.925 405.46C416.211 401.989 407.858 393.517 404.545 382.743L388.256 329.712C386.014 322.39 375.658 322.311 373.296 329.612L356.214 382.387C352.742 393.1 344.271 401.453 333.498 404.767L280.465 421.055C273.124 423.317 273.045 433.654 280.346 436.014L333.14 453.096C343.854 456.568 352.207 465.06 355.52 475.833L371.809 528.846C374.05 536.186 384.407 536.266 386.768 528.965Z" fill="#FAFAFA"/>
<path fill-rule="evenodd" clip-rule="evenodd" d="M1243.85 521.418C1221.94 501.07 1187.75 489.614 1154.52 484.915C1121.01 480.403 1085.88 480.822 1052.8 485.703C985.881 495.106 925.081 518.124 872.052 546.52C844.514 560.455 821.03 576.581 796.7 593.004C784.978 601.309 774.289 610.154 763.159 618.871L732.744 644.008C699.696 672.701 667.122 698.837 635.605 720.499C603.962 742.061 574.377 758.438 545.221 769.874C516.084 781.37 484.906 788.131 444.269 789.213C403.99 790.394 356.334 784.355 305.359 774.387C254.109 764.465 200.292 750.32 140.152 738.149C161.136 786.504 192.735 829.237 233.306 868.301C274.352 906.686 325.605 941.663 391.449 964.674C456.34 988.193 537.888 996.638 614.138 983.901C690.59 971.673 757.68 942.294 811.91 908.307C866.279 873.973 910.269 834.866 947.348 794.207C957.588 782.974 963.001 776.688 970.403 767.908L990.883 742.716C1005.11 727.133 1018.06 709.39 1032.15 693.952C1059.76 661.616 1086.98 629.319 1118.61 599.563C1134.54 584.471 1151.33 570.035 1171.14 556.161C1181.03 549.39 1191.71 542.763 1203.55 536.793C1215.56 530.354 1228.23 525.315 1243.85 521.418Z" fill="white"/>
<path fill-rule="evenodd" clip-rule="evenodd" d="M1243.85 524.467C1220.32 478.556 1176.57 439.91 1117.83 411.392C1059.47 383.187 978.4 368.795 898.067 381.064C858.382 386.998 819.934 398.422 786.193 413.635C752.605 428.788 722.507 447.028 696.45 466.597C683.442 476.415 671.635 486.655 659.906 496.954L629.504 526.919L582.548 575.157C522.685 637.22 458.221 709.953 352.433 731.505C248.58 752.663 203.537 733.925 140.152 726.184C151.742 749.317 166.097 771.782 185.56 791.545C204.66 811.708 227.22 830.643 255.268 846.881C269.443 854.678 284.408 862.372 301.028 868.9C317.574 875.204 335.416 880.758 354.46 884.928C392.342 892.951 434.99 895.772 476.284 891.445C517.597 887.188 557.085 877.071 591.601 863.627C626.373 850.308 656.662 834.09 683.709 816.978C737.473 782.46 779.293 744.321 814.617 705.77C832.386 686.495 848.515 666.857 863.431 647.213L880.986 623.826C886.356 616.989 891.787 610.111 897.296 603.705C919.545 577.968 941.304 557.331 967.731 541.841C993.791 525.951 1030.08 514.21 1078.57 511.483C1126.87 508.723 1182.62 513.821 1243.85 524.467Z" fill="#DCDCDC"/>
<path fill-rule="evenodd" clip-rule="evenodd" d="M964.254 990.672C964.254 1034.21 999.563 1069.51 1043.09 1069.51C1086.62 1069.51 1121.88 1034.21 1121.88 990.672C1121.88 947.146 1086.62 911.837 1043.09 911.837C999.563 911.837 964.254 947.146 964.254 990.672Z" fill="white"/>
</g>
</g>
<defs>
<linearGradient id="paint0_linear_1_2" x1="-227.747" y1="-310.962" x2="1239.47" y2="1156.25" gradientUnits="userSpaceOnUse">
<stop stop-color="#38EF7D"/>
<stop offset="1" stop-color="#11998E"/>
</linearGradient>
<clipPath id="clip0_1_2">
<rect width="1384" height="1384" fill="white"/>
</clipPath>
</defs>
</svg>
