<svg width="57" height="57" viewBox="0 0 57 57" fill="none" xmlns="http://www.w3.org/2000/svg">
<path d="M28.2012 56.4025C43.7763 56.4025 56.4025 43.7763 56.4025 28.2012C56.4025 12.6261 43.7763 0 28.2012 0C12.6261 0 0 12.6261 0 28.2012C0 43.7763 12.6261 56.4025 28.2012 56.4025Z" fill="url(#paint0_linear)"/>
<path d="M28.2007 43.7037C36.7624 43.7037 43.7031 36.763 43.7031 28.2012C43.7031 19.6395 36.7624 12.6988 28.2007 12.6988C19.6389 12.6988 12.6982 19.6395 12.6982 28.2012C12.6982 36.763 19.6389 43.7037 28.2007 43.7037Z" fill="#101010"/>
<path d="M28.2004 56.4026C32.3325 56.4066 36.4147 55.5002 40.1569 53.7479C43.899 51.9956 47.2092 49.4404 49.852 46.264L34.2946 30.738C33.4921 29.9331 32.5386 29.2944 31.4888 28.8586C30.439 28.4228 29.3135 28.1985 28.1768 28.1985C27.0402 28.1985 25.9147 28.4228 24.8649 28.8586C23.8151 29.2944 22.8616 29.9331 22.0591 30.738L6.54883 46.264C9.19166 49.4404 12.5018 51.9956 16.244 53.7479C19.9861 55.5002 24.0683 56.4066 28.2004 56.4026Z" fill="#F5F5FD"/>
<path d="M40.805 37.2177C39.3723 39.2246 37.4811 40.8604 35.2888 41.989C33.0964 43.1176 30.6662 43.7064 28.2004 43.7064C25.7346 43.7064 23.3044 43.1176 21.1121 41.989C18.9197 40.8604 17.0285 39.2246 15.5958 37.2177L6.54883 46.2647C9.19401 49.4385 12.5046 51.992 16.2462 53.7443C19.9878 55.4966 24.0688 56.4049 28.2004 56.4049C32.332 56.4049 36.4131 55.4966 40.1546 53.7443C43.8962 51.992 47.2068 49.4385 49.852 46.2647L40.805 37.2177Z" fill="black" fill-opacity="0.1"/>
<defs>
<linearGradient id="paint0_linear" x1="28.1546" y1="56.4043" x2="28.1546" y2="0" gradientUnits="userSpaceOnUse">
<stop stop-color="#101010"/>
<stop offset="0.653724" stop-color="#F0014F"/>
<stop offset="0.854082" stop-color="#FE0B5C"/>
</linearGradient>
</defs>
</svg>
