<svg width="500" height="500" viewBox="0 0 500 500" fill="none" xmlns="http://www.w3.org/2000/svg">
<path d="M499.975 203.404L499.85 202.871C499.796 202.433 499.729 202.001 499.631 201.582L499.557 201.242L499.199 200.099L499.101 199.903C498.952 199.517 498.763 199.125 498.568 198.709L498.193 197.897L497.819 197.319C497.124 196.231 496.279 195.229 495.305 194.336L485.05 185.016C483.607 182.854 481.574 181.066 479.146 179.827C476.719 178.587 473.979 177.938 471.194 177.942C470.681 177.942 470.163 177.964 469.638 178.009L438.779 180.689L469.325 28.975L469.379 28.5585C469.46 27.9304 469.494 27.2981 469.483 26.6658V25.6032L469.362 25.0702C469.311 24.6218 469.235 24.176 469.132 23.7349L468.724 22.3782L468.619 22.1608C468.434 21.6861 468.231 21.2421 468.022 20.8133L467.644 20.0446L467.307 19.5361C466.609 18.4366 465.757 17.4237 464.772 16.5226L451.727 4.67657L451.632 4.76237C450.111 3.26065 448.262 2.06196 446.203 1.24221C444.145 0.422458 441.921 -0.000569461 439.673 5.75333e-07L438.826 0.0184126L148.96 20.0446C119.628 22.0957 91.8474 32.8227 69.8784 50.5805C47.9094 68.3383 32.9653 92.1463 27.338 118.353L22.0468 143.181C20.8291 148.983 21.7296 154.987 24.6115 160.283L44.2474 196.182C45.0854 197.726 45.3323 199.48 44.9493 201.165L0.315315 397.151C-0.200271 399.495 -0.0821942 401.918 0.659476 404.211C1.40115 406.505 2.74428 408.601 4.57386 410.32L4.35791 410.526L5.56937 411.622L6.35223 411.98L93.2108 485.13C93.4504 485.335 93.69 485.525 93.9195 485.696V485.718L99.3185 490.263L106.385 496.115C109.199 498.451 112.825 499.819 116.635 499.983C120.444 500.147 124.197 499.096 127.242 497.013L246.725 414.887C247.342 414.468 248.074 414.209 248.841 414.139L449.483 397.647C451.637 397.425 453.721 396.816 455.614 395.856C456.126 395.598 456.621 395.313 457.096 395.001C458.13 394.345 459.078 393.585 459.924 392.735C460.462 392.249 460.948 391.716 461.375 391.146L461.823 390.509L462.451 389.467L462.68 389.02C463.031 388.328 463.32 387.611 463.544 386.876L463.784 386.022L499.766 207.146L499.891 206.371C499.972 205.743 500.008 205.111 499.999 204.479L499.975 203.404Z" fill="#1F2932"/>
<path d="M11.8606 403.724L11.7493 403.623L11.864 403.727L11.8606 403.724ZM411.444 187.65C411.467 187.819 411.474 187.99 411.515 188.15C411.535 188.226 411.579 188.291 411.606 188.364C411.696 188.665 411.819 188.957 411.97 189.237C412.041 189.362 412.088 189.494 412.169 189.617C412.413 190.007 412.711 190.367 413.057 190.689L426.089 202.535C425.743 202.214 425.445 201.853 425.201 201.463C425.12 201.34 425.073 201.205 425.002 201.077C424.851 200.798 424.729 200.507 424.638 200.207C424.567 199.974 424.514 199.736 424.479 199.497C424.479 199.392 424.446 199.294 424.439 199.19C424.41 198.792 424.43 198.393 424.5 197.999L458.771 27.775C458.794 27.6678 458.811 27.5637 458.825 27.4688C458.863 27.208 458.876 26.9446 458.865 26.6817V26.596C458.865 26.5041 458.841 26.4244 458.831 26.3387C458.808 26.1488 458.798 25.9528 458.75 25.769C458.75 25.7047 458.69 25.6527 458.676 25.5883C458.592 25.302 458.479 25.0231 458.339 24.7553C458.281 24.6258 458.215 24.499 458.143 24.3756C457.907 23.9997 457.619 23.6528 457.286 23.3435L444.254 11.4975C444.589 11.8099 444.879 12.1598 445.118 12.5388C445.199 12.6613 445.242 12.7929 445.313 12.9185C445.454 13.1862 445.567 13.465 445.651 13.7515C445.727 13.9969 445.779 14.248 445.806 14.5018C445.806 14.5876 445.84 14.6733 445.846 14.7591C445.87 15.1588 445.842 15.5597 445.762 15.9535L411.491 186.177C411.491 186.263 411.461 186.349 411.451 186.435C411.412 186.699 411.399 186.965 411.41 187.231C411.414 187.276 411.421 187.321 411.43 187.366C411.41 187.451 411.43 187.549 411.444 187.65ZM489.367 204.394C489.367 204.311 489.343 204.231 489.333 204.149C489.319 203.952 489.292 203.757 489.252 203.564C489.252 203.499 489.198 203.447 489.178 203.386C489.094 203.102 488.981 202.826 488.84 202.562C488.776 202.437 488.726 202.305 488.651 202.182C488.414 201.808 488.127 201.462 487.798 201.15L474.766 189.304C475.101 189.615 475.392 189.964 475.629 190.342C475.704 190.465 475.754 190.597 475.818 190.722C475.956 190.988 476.069 191.263 476.156 191.546C476.228 191.794 476.28 192.047 476.311 192.303C476.311 192.388 476.341 192.471 476.345 192.557C476.368 192.956 476.34 193.355 476.26 193.748L440.39 372.008C440.28 372.522 440.083 373.018 439.806 373.478L439.671 373.696C439.397 374.126 439.056 374.518 438.659 374.859C438.618 374.896 438.564 374.924 438.52 374.96C438.151 375.246 437.744 375.488 437.309 375.683C437.181 375.741 437.056 375.797 436.924 375.846C436.416 376.045 435.878 376.178 435.328 376.241L234.855 392.717C232.123 392.953 229.516 393.867 227.32 395.36L106.933 478.154C106.118 478.724 105.143 479.075 104.119 479.167C103.096 479.259 102.064 479.088 101.142 478.674L106.47 483.164L113.557 489.023C114.617 489.902 116.001 490.388 117.437 490.386C118.673 490.388 119.875 490.025 120.862 489.351L240.365 407.209C242.561 405.715 245.168 404.8 247.901 404.566L448.374 388.09C449.127 388.001 449.855 387.778 450.513 387.434C450.697 387.342 450.874 387.24 451.043 387.128C451.509 386.835 451.924 386.48 452.275 386.075C452.359 385.98 452.491 385.931 452.565 385.827C452.639 385.722 452.673 385.64 452.734 385.551C452.795 385.462 452.825 385.41 452.869 385.34C452.913 385.269 453.004 385.141 453.058 385.033C453.174 384.799 453.269 384.556 453.341 384.307C453.385 384.164 453.422 384.017 453.452 383.87L489.32 205.594C489.34 205.49 489.36 205.386 489.37 205.288C489.408 205.024 489.422 204.758 489.411 204.492L489.367 204.394Z" fill="#2CC597"/>
<path d="M411.481 186.152L445.272 15.6865C445.426 14.911 445.382 14.1139 445.143 13.3563C444.904 12.5988 444.478 11.9009 443.896 11.3161C443.314 10.7313 442.592 10.2751 441.786 9.98264C440.98 9.69016 440.111 9.56916 439.245 9.62879L149.778 29.6335C122.746 31.4824 97.1357 41.3491 76.8934 57.7127C56.651 74.0763 42.9008 96.0282 37.7625 120.185L32.4748 145.013C31.682 148.745 32.2604 152.609 34.1214 156.014L53.7574 191.919C55.6533 195.387 56.2153 199.331 55.3536 203.122L10.7095 399.127C10.5098 399.994 10.5602 400.894 10.8558 401.738C11.1514 402.582 11.6821 403.343 12.3967 403.947L100.47 478.129C101.45 478.954 102.718 479.438 104.053 479.498C105.387 479.557 106.702 479.187 107.766 478.454L228.085 395.574C230.272 394.068 232.883 393.152 235.617 392.931L436.303 376.393C437.539 376.288 438.703 375.819 439.617 375.056C440.531 374.294 441.144 373.282 441.365 372.173L476.746 193.625C476.901 192.842 476.854 192.036 476.609 191.272C476.364 190.508 475.927 189.806 475.333 189.22C474.739 188.635 474.003 188.183 473.184 187.898C472.365 187.614 471.484 187.506 470.611 187.583L417.581 192.176C416.713 192.246 415.839 192.134 415.027 191.849C414.214 191.563 413.484 191.112 412.895 190.529C412.305 189.947 411.871 189.249 411.625 188.49C411.38 187.732 411.331 186.932 411.481 186.152Z" fill="#1F2932"/>
<path d="M218.378 150.821C217.34 146.934 215.526 143.252 213.026 139.958C210.521 136.735 207.271 134.047 203.503 132.081C199.133 129.876 194.272 128.591 189.28 128.32C197.293 123.595 203.956 117.211 208.72 109.694C212.946 103.181 215.24 95.7853 215.378 88.2282C215.408 83.4733 214.293 78.7698 212.112 74.4466C209.832 70.0368 206.325 66.2421 201.938 63.4367C196.708 60.15 190.81 57.8419 184.586 56.647C178.766 55.712 172.851 55.3505 166.945 55.5689L164.323 67.0168C166.385 67.1145 168.434 67.3748 170.447 67.7947C174.33 68.5968 177.955 70.2037 181.04 72.4897C183.693 74.5479 185.758 77.1593 187.056 80.1001C188.374 83.091 189.043 86.2844 189.027 89.5053C188.962 94.2272 187.944 98.8982 186.024 103.287C184.059 107.986 181.329 112.391 177.925 116.355C174.573 120.266 170.566 123.677 166.05 126.461C161.713 129.185 156.689 130.871 151.442 131.361L149.877 131.505L146.904 143.863C149.234 143.339 151.593 142.922 153.97 142.613C156.237 142.322 157.891 142.123 158.937 142.028C162.959 141.512 167.059 141.946 170.842 143.287C173.98 144.496 176.662 146.507 178.563 149.075C180.57 151.874 181.946 155.006 182.612 158.291C183.424 162.077 183.819 165.927 183.793 169.785C183.771 174.624 183.334 179.455 182.487 184.234C181.679 189.101 180.189 193.855 178.053 198.38C176.133 202.524 173.387 206.311 169.955 209.552C166.785 212.567 162.52 214.437 157.948 214.817C155.064 215.107 152.145 214.729 149.465 213.717C146.108 212.292 143.061 210.332 140.468 207.929C138.429 212.391 137.28 217.147 137.077 221.974C136.9 225.021 137.763 228.044 139.551 230.629C141.119 232.701 143.286 234.341 145.814 235.37C148.454 236.427 151.281 237.049 154.162 237.207C157.073 237.396 159.997 237.361 162.902 237.103C172.957 236.415 182.53 232.915 190.303 227.085C197.491 221.564 203.467 214.86 207.914 207.326C212.264 200.026 215.428 192.194 217.305 184.071C218.97 177.332 219.887 170.458 220.042 163.552C220.065 159.263 219.507 154.987 218.378 150.821Z" fill="white"/>
<path d="M265.199 185.174C265.199 193.222 266.764 198.404 269.893 200.719C274.025 203.244 279.092 204.177 283.981 203.313C288.831 202.91 293.582 201.827 298.066 200.104C302.23 198.461 306.17 196.385 309.806 193.917C313.567 191.363 317.061 188.5 320.247 185.367C323.549 182.139 326.856 178.712 330.167 175.086L339.042 174.259C335.291 180.26 331.106 186.03 326.513 191.529C321.822 197.175 316.487 202.357 310.599 206.988C304.662 211.663 298.084 215.62 291.027 218.761C283.57 222.033 275.528 224.066 267.281 224.764C254.861 225.923 244.928 223.931 237.481 218.785C230.035 213.64 226.314 204.357 226.318 190.934C226.387 185.648 226.911 180.375 227.884 175.162C229.008 168.909 230.621 162.737 232.71 156.692C234.966 150.148 237.893 143.81 241.453 137.762C245.077 131.538 249.547 125.75 254.758 120.535C260.005 115.288 266.178 110.872 273.024 107.467C280.371 103.868 288.448 101.665 296.764 100.99C301.504 100.407 306.321 100.599 310.987 101.556C314.297 102.266 317.351 103.734 319.858 105.819C321.984 107.686 323.516 110.038 324.293 112.627C325.091 115.374 325.484 118.203 325.463 121.043C325.458 127.693 323.769 134.252 320.527 140.215C317.218 146.385 312.732 151.973 307.275 156.722C301.634 161.653 295.197 165.774 288.186 168.942C281.106 172.185 273.53 174.448 265.712 175.655C265.543 177.411 265.415 179.08 265.327 180.663C265.233 182.249 265.199 183.753 265.199 185.174ZM305.385 122.642C305.516 120.26 305.02 117.884 303.938 115.711C303.458 114.906 302.704 114.263 301.787 113.881C300.871 113.498 299.842 113.396 298.856 113.589C295.045 114.156 291.604 115.992 289.205 118.737C285.722 122.316 282.742 126.274 280.333 130.519C277.382 135.622 274.899 140.938 272.91 146.411C270.745 152.21 268.958 158.12 267.558 164.109C272.71 163.291 277.631 161.552 282.038 158.995C286.622 156.391 290.722 153.144 294.186 149.375C297.669 145.588 300.447 141.309 302.409 136.709C304.357 132.229 305.366 127.458 305.385 122.642Z" fill="white"/>
<path d="M367.505 176.097C366.708 178.844 366.269 181.666 366.199 184.506C366.069 186.644 366.762 188.757 368.16 190.481C369.105 191.285 370.257 191.862 371.511 192.158C372.764 192.455 374.08 192.462 375.337 192.178C376.204 192.095 377.298 191.958 378.6 191.759C379.809 191.583 380.99 191.275 382.117 190.84C380.588 195.304 378.489 199.591 375.864 203.614C373.96 206.509 371.586 209.126 368.821 211.377C366.693 213.097 364.21 214.416 361.515 215.258C359.222 215.931 356.859 216.388 354.463 216.624C345.239 217.483 338.587 215.538 334.506 210.789C330.205 205.438 328.041 198.915 328.372 192.298C328.393 188.027 328.918 183.77 329.937 179.6L346.641 107.017L338.022 107.823L340.111 98.1541L348.719 97.3517L356.552 63.939L395.172 55.5966C394.304 58.8429 393.432 62.4761 392.557 66.4962C391.684 69.8957 390.728 73.9322 389.689 78.6057C388.649 83.2792 387.525 88.358 386.314 93.842L401.965 92.3812L399.876 102.05L384.219 103.51L367.505 176.097Z" fill="white"/>
<path d="M142.815 197.712L105.858 198.744L134.173 75.7544C122.882 80.6845 113.415 88.4908 106.929 98.2209C100.442 107.951 97.2164 119.184 97.6449 130.55C97.6067 132.907 97.7805 135.263 98.1645 137.594C98.4284 139.115 98.7775 140.622 99.2106 142.111C99.4677 143.063 99.8615 143.981 100.382 144.84C100.746 145.376 101.052 145.943 101.296 146.533C94.3534 147.611 87.2131 146.569 80.9919 143.572C76.0945 140.797 73.6434 135.387 73.6389 127.34C73.7627 118.589 76.5744 110.042 81.7579 102.662C87.4177 94.3261 94.5603 86.8988 102.896 80.682C111.786 73.9921 121.651 68.4486 132.213 64.2084C143.082 59.8044 154.1 51.0823 164.881 50.0747C166.798 49.894 168.552 51.1742 170.28 51.0945C172.008 51.0149 176.415 51.0945 176.415 51.0945L142.815 197.712Z" fill="#1F2932"/>
<path d="M125.491 236.573L87.9194 240.076L125.75 75.754C114.459 80.6842 104.992 88.4906 98.5057 98.2207C92.0193 107.951 88.7936 119.184 89.222 130.55C89.1839 132.906 89.3577 135.262 89.7416 137.594C90.0791 139.452 90.4334 140.962 90.7877 142.111C91.0443 143.064 91.4404 143.982 91.9654 144.84C92.3259 145.377 92.6298 145.944 92.8732 146.533C85.9305 147.61 78.7903 146.568 72.569 143.572C67.6715 140.797 65.2206 135.386 65.2161 127.34C65.3399 118.588 68.1541 110.041 73.3417 102.662C79.0017 94.3259 86.1443 86.8987 94.4794 80.6817C103.368 73.9908 113.232 68.4472 123.793 64.2081C134.078 59.9491 145.046 57.2073 156.283 56.0862C158.193 55.9085 160.025 55.78 161.759 55.6973C163.494 55.6146 165.242 55.5717 166.983 55.5625L125.491 236.573Z" fill="#2CC597"/>
<path d="M186.291 251.349L160.46 363.642C167.993 360.679 174.719 356.252 180.16 350.672C186.274 343.566 190.756 335.419 193.34 326.713L204.297 325.687C202.133 332.842 199.022 339.732 195.031 346.206C191.862 351.282 187.956 355.948 183.42 360.08C179.605 363.535 175.307 366.521 170.637 368.961C166.63 371.041 162.442 372.818 158.114 374.275L154.2 391.689C152.761 399.171 149.984 406.39 145.98 413.059C142.905 418.05 138.938 422.541 134.24 426.351C130.303 429.494 125.743 431.929 120.803 433.527C116.411 434.926 111.858 435.867 107.231 436.329C100.089 437.24 92.8174 435.914 86.6164 432.571C80.8798 429.315 78.0116 423.816 78.0116 416.076C77.9522 411.374 79.3042 406.747 81.9226 402.69C84.5927 398.588 87.9838 394.91 91.9616 391.802C96.1625 388.512 100.758 385.663 105.662 383.307C110.706 380.856 115.665 378.695 120.54 376.823L123.668 363.746C119.282 368.923 113.661 373.131 107.228 376.054C102.523 378.041 97.5035 379.345 92.353 379.919C88.8539 380.378 85.2883 380.179 81.8771 379.336C78.4658 378.494 75.2815 377.024 72.5213 375.019C67.1222 371.028 64.4226 364.056 64.4226 354.105C64.5459 348.86 65.2445 343.639 66.5081 338.519L84.2476 260.853L121.826 257.34L103.037 339.613C102.514 341.573 102.251 343.583 102.254 345.6C102.19 348.043 102.769 350.465 103.941 352.665C104.499 353.658 105.404 354.454 106.514 354.929C107.625 355.404 108.877 355.531 110.076 355.29C112.548 355.033 114.932 354.302 117.068 353.144C119.205 351.986 121.045 350.428 122.467 348.574C126.064 344.181 128.761 339.235 130.427 333.975L148.693 254.835L186.291 251.349ZM92.3598 411.433C92.4115 413.291 93.2012 415.069 94.5836 416.441C95.4125 417.259 96.459 417.871 97.6229 418.217C98.7869 418.564 100.029 418.633 101.231 418.419C103.014 418.021 104.682 417.281 106.122 416.248C107.562 415.215 108.741 413.914 109.58 412.432C112.932 407.355 115.231 401.765 116.362 395.937L117.925 388.923C114.622 390.332 111.406 391.856 108.277 393.496C105.349 394.996 102.595 396.759 100.057 398.76C97.8585 400.474 95.9656 402.487 94.4452 404.726C93.0818 406.74 92.36 409.057 92.3598 411.421V411.433Z" fill="#2CC597"/>
<path d="M261.177 243.173C283.102 241.131 294.237 252.485 294.584 277.234C295.541 277.327 296.508 277.315 297.462 277.198C300.803 276.846 304.086 276.143 307.248 275.103C310.919 273.94 314.493 272.538 317.942 270.907C321.534 269.223 325.019 267.358 328.382 265.321C331.775 263.267 334.862 261.241 337.645 259.242L340.007 265.422C334.412 271.19 327.744 276.02 320.307 279.694C312.049 283.902 303.24 287.151 294.088 289.362C293.218 299.764 290.849 310.017 287.042 319.859C283.758 328.4 279.096 336.45 273.207 343.747C268.046 350.167 261.583 355.634 254.165 359.857C247.29 363.755 239.527 366.18 231.464 366.946C225.859 367.525 220.192 367.378 214.633 366.509C209.758 365.819 205.172 363.966 201.345 361.141C197.517 358.315 194.585 354.618 192.847 350.427C190.591 344.999 189.528 339.222 189.719 333.424C189.786 328.137 190.309 322.863 191.285 317.651C192.428 311.341 194.129 305.124 196.374 299.061C198.776 292.483 201.788 286.102 205.377 279.985C209.018 273.739 213.532 267.946 218.807 262.749C224.119 257.513 230.334 253.096 237.208 249.671C244.63 246.054 252.785 243.843 261.177 243.173ZM241.871 343.717C245.513 343.195 248.862 341.595 251.398 339.166C254.995 335.952 257.993 332.228 260.272 328.141C263.227 322.967 265.63 317.549 267.45 311.961C269.604 305.468 271.174 298.827 272.144 292.103C270.993 292.048 269.875 291.731 268.895 291.182C267.914 290.632 267.102 289.867 266.532 288.958C265.528 287.041 265.035 284.936 265.094 282.815C264.986 279.892 265.755 276.998 267.318 274.441C268.657 272.282 270.706 270.557 273.18 269.508C273.24 266.001 272.298 262.54 270.446 259.462C269.597 258.519 268.478 257.806 267.212 257.402C265.946 256.998 264.582 256.918 263.269 257.172C260.541 257.625 257.948 258.592 255.656 260.01C253.365 261.428 251.427 263.267 249.967 265.407C245.469 270.976 241.784 277.049 239.003 283.476C235.826 290.615 233.296 297.977 231.437 305.49C229.663 312.135 228.701 318.937 228.569 325.773C228.51 328.96 228.727 332.145 229.217 335.301C229.484 337.294 230.243 339.207 231.437 340.896C232.431 342.191 233.918 343.106 235.612 343.463C237.665 343.876 239.782 343.962 241.868 343.717H241.871Z" fill="#2CC597"/>
<path d="M363.191 234.835L344.409 317.102C343.881 319.064 343.616 321.076 343.619 323.096C343.558 325.538 344.136 327.958 345.306 330.158C345.865 331.15 346.771 331.946 347.882 332.42C348.993 332.895 350.246 333.021 351.444 332.78C354.015 332.505 356.489 331.727 358.696 330.5C360.903 329.272 362.79 327.625 364.227 325.671C367.95 320.933 370.693 315.622 372.325 309.994L390.072 232.327L427.643 228.821L408.854 311.087C408.192 313.603 407.843 316.179 407.815 318.765C407.631 319.979 407.772 321.215 408.226 322.368C408.68 323.522 409.434 324.559 410.423 325.393C412.894 326.617 415.758 327.02 418.522 326.532C420.303 326.43 422.059 326.105 423.742 325.567C424.779 325.159 425.91 324.736 427.133 324.299C427.08 327.976 426.195 331.603 424.534 334.957C422.873 338.311 420.47 341.319 417.476 343.796C412.054 348.072 405.31 350.727 398.164 351.397C395.061 351.861 391.885 351.718 388.848 350.979C385.811 350.239 382.983 348.92 380.553 347.109C375.783 342.939 372.939 337.279 372.599 331.276C369.809 335.839 366.437 340.088 362.553 343.936C359.538 346.889 356.116 349.477 352.372 351.636C349.32 353.385 346.031 354.766 342.586 355.746C339.693 356.542 336.724 357.095 333.718 357.397C330.219 357.852 326.654 357.652 323.244 356.809C319.833 355.967 316.648 354.499 313.887 352.496C308.487 348.499 305.788 341.526 305.788 331.579C305.914 326.333 306.613 321.111 307.873 315.991L325.62 238.324L363.191 234.835Z" fill="#2CC597"/>
</svg>
