<svg xmlns="http://www.w3.org/2000/svg" viewBox="0 0 1030.5893 188.43281"><defs><linearGradient id="A" x1="171.477" y1="507.316" x2="208.972" y2="469.819" gradientUnits="userSpaceOnUse"><stop offset="0" stop-color="#36a7cd"></stop><stop offset="1" stop-color="#36a7cd" stop-opacity="0"></stop></linearGradient></defs><path d="M237.277 44.221c3.447 0 4.757 2.297 4.757 4.021v96.539h-8.372c-2.788 0-3.28-1.437-3.443-2.157V44.221zm107.985 100.56h-5.416c-6.401 0-7.384-4.455-7.876-6.467l-12.637-49.705v56.172h-11.816V44.221h5.416c6.564 0 7.711 2.728 8.369 5.6l12.143 52.291V44.221h11.817zm201.857-10.199l-3.777 7.469c-.817 1.292-2.621 2.729-6.399 2.729h-28.228V44.221h8.208c1.965.144 3.607 1.439 3.607 3.159v87.203zm47.59-75.573l11.817-14.788v86.913c0 3.013 2.627 5.456 6.071 5.456h1.807c3.445 0 6.235-2.443 6.235-5.456V44.221l11.82 14.788v73.988c0 6.9-6.404 12.069-14.115 12.213v.145h-9.025c-8.044 0-14.609-5.315-14.609-12.359zm234.68 85.772h-5.416c-6.401 0-7.387-4.455-7.876-6.467l-12.635-49.705v56.172h-11.821V44.221h5.417c6.565 0 7.713 2.728 8.369 5.6l12.144 52.291V44.221h11.817zm97.977-11.784c0 6.9-6.24 12.499-14.115 12.789h-7.221c-8.208 0-14.771-5.745-14.771-12.789V56c0-7.039 6.563-12.784 14.771-12.784h7.221c7.875.144 14.115 5.891 14.115 12.784v15.37c0 3.303-1.643 4.885-3.12 5.46l-8.533 3.447V57.724c0-3.019-2.789-5.461-6.401-5.461-3.448 0-6.237 2.443-6.237 5.461v73.411c0 3.157 2.789 5.599 6.237 5.599 3.612 0 6.401-2.441 6.401-5.599V117.63c0-3.304 1.64-4.883 3.117-5.604.987-.432 5.58-2.157 8.536-3.305zM425.514 54.566h13.129c3.769 0 5.415-1.583 6.233-2.877.493-.86 2.627-4.884 3.777-7.468h-34.137c-1.969 0-3.447 1.437-3.447 3.016v7.329 33.755 12.787 43.673h8.205c1.807 0 3.447-1.293 3.447-3.019v-40.655c0-1.439 1.315-2.443 2.955-2.443h7.877c3.776 0 5.417-1.577 6.235-2.872l3.941-7.472h-21.008V54.566zm287.847 0h9.524c3.773 0 5.575-1.583 6.231-2.877l3.94-7.468h-30.689c-1.969 0-3.445 1.295-3.609 2.873v7.472zm0 42.662h4.924c3.776 0 5.417-1.435 6.237-2.728.412-.716 1.836-3.703 3.057-6.179h-28.823v8.907zm10.765 37.354h-13.555-11.815v10.199h26.26c3.771 0 5.579-1.437 6.399-2.729l3.776-7.469zm284.639-80.016h9.516c3.776 0 5.58-1.583 6.236-2.877l3.939-7.468h-30.691c-1.969 0-3.445 1.295-3.612 2.873v7.472zm0 42.662h4.921c3.773 0 5.415-1.435 6.235-2.728.412-.716 1.836-3.703 3.057-6.179h-28.825v8.907zm16.074 37.354h-18.867-11.821v10.199h26.264c3.771 0 5.577-1.437 6.397-2.729.496-.865 2.464-4.887 3.776-7.469zM144.213 22.11l-20.044-8.545h-20.014l12.915 5.56-4.097 2.986 4.097 2.986-12.915 5.556h20.014zm0 72.105c0 27.613-22.382 49.995-49.993 49.995V44.222c27.611 0 49.993 22.382 49.993 49.993m-50.569 76.004c-41.908 0-76.01-34.097-76.01-76.004s34.102-76.004 76.01-76.004c.194 0 .383.028.576.057V.001C42.183.001 0 42.185 0 94.215s42.182 94.218 94.22 94.218v-18.271c-.193.027-.382.057-.576.057" fill="#fff"></path><path d="M171.477 507.316c0 20.708 16.788 37.495 37.495 37.495v13.687c-.145-.021-.286-.044-.432-.044-28.2 0-51.141-22.941-51.141-51.138s22.941-51.137 51.141-51.137a2.54 2.54 0 0 0 .432-.045v13.686c-20.707 0-37.495 16.787-37.495 37.496" fill="url(#A)" transform="matrix(1.333333 0 0 -1.333333 -184.40983 770.63564)"></path></svg>
