<svg id="orbiter_logo" data-name="orbiter logo" xmlns="http://www.w3.org/2000/svg" xmlns:xlink="http://www.w3.org/1999/xlink" viewBox="0 0 1011.64 328.86"><defs><style>.cls-1{fill:url(#未命名的渐变_48);}.cls-2{fill:#2d2f31;}.cls-3{fill:url(#未命名的渐变_57);}</style><linearGradient id="未命名的渐变_48" x1="133.51" y1="106.75" x2="228.27" y2="204.73" gradientUnits="userSpaceOnUse"><stop offset="0" stop-color="#ef2f2d"/><stop offset="1" stop-color="#89272d"/></linearGradient><linearGradient id="未命名的渐变_57" x1="38.34" y1="144.3" x2="360.61" y2="230.69" gradientUnits="userSpaceOnUse"><stop offset="0" stop-color="#434344"/><stop offset="0.29" stop-color="#404041"/><stop offset="0.51" stop-color="#363637"/><stop offset="0.71" stop-color="#262627"/><stop offset="0.9" stop-color="#0f0f0f"/><stop offset="1"/></linearGradient></defs><title>orbiter_logo</title><g id="icon"><path class="cls-1" d="M234.65,133.41c.67,16.34,3,44,4.12,57.58a7,7,0,0,1-7.27,7.57c-10.05-.47-28.75-1.18-51.12-1.28-21.81-.1-39.85.5-49.63.92a7,7,0,0,1-7.25-7.55c1.11-13.46,3.29-40.91,4-57.24A53.35,53.35,0,0,1,181.05,81.9h0A53.36,53.36,0,0,1,234.65,133.41Zm-53.67-26a31.5,31.5,0,1,0,31.49,31.5A31.5,31.5,0,0,0,181,107.41Z" transform="translate(-10.54 -11.13)"/><path class="cls-2" d="M181.54,120.84a11.54,11.54,0,0,1,2.84,7.57A12.12,12.12,0,0,1,172,140.28a12.48,12.48,0,0,1-9.65-4.47,17.93,17.93,0,0,0-.34,3.38c0,10.14,8.56,18.36,19.12,18.36s19.11-8.22,19.11-18.36S191.91,121,181.54,120.84Z" transform="translate(-10.54 -11.13)"/><path class="cls-2" d="M209.78,101.8a1.84,1.84,0,0,1-1.95-1.75c-.16-4.1.58-12.5,11.2-21.67,7.32-6.31,17.51-8.59,30.33-6.79a1.83,1.83,0,0,1,1.55,2.14h0a1.83,1.83,0,0,1-2,1.48c-11.67-1.65-20.83.33-27.27,5.87-9.24,8-10.06,15.17-10,18.85a1.82,1.82,0,0,1-1.72,1.86Z" transform="translate(-10.54 -11.13)"/><ellipse class="cls-2" cx="236.22" cy="60.87" rx="5.31" ry="5.11"/><path class="cls-2" d="M154.27,102.14a1.83,1.83,0,0,0,1.95-1.74c.17-4.2-.53-13.77-11.2-23-7.31-6.31-17.51-8.59-30.33-6.79a1.84,1.84,0,0,0-1.55,2.14h0a1.83,1.83,0,0,0,2,1.48c11.67-1.65,20.84.33,27.27,5.87,9.27,8,10.07,16.34,9.95,20.12a1.83,1.83,0,0,0,1.72,1.88Z" transform="translate(-10.54 -11.13)"/><ellipse class="cls-2" cx="107.52" cy="60.87" rx="5.31" ry="5.11"/></g><g id="orbiter"><g id="orbiter-2" data-name="orbiter"><path id="Compound_Path" data-name="Compound Path" class="cls-3" d="M351.81,263.38c0-16.57-41.5-42.89-41.5-42.89l-.48-.14c6.84-27.68,10.36-40,10.81-58,1-41.11-9.37-75.91-35.43-106.42-24.23-28.37-62.8-44.83-104-44.83-43.79,0-77.54,16.69-102.59,44.34S41,113.08,41.72,161.89c.21,13.66,3.31,36.59,10,57.15l-.47.14S10.54,245,10.54,262.89c0,5.29,22,12,67.38,14.13L52.61,314.94c-1,3.23-.38,7.67,2.33,9.57a19.87,19.87,0,0,0,8.91,3.17c4.81.14,6.31-1.25,8.08-4.44L97.34,279c27,1.07,44.18,1.64,75.07,1.7v50.63c.18,3.05,1.47,8.62,9.66,8.62,7.44,0,8.72-5.22,8.72-8.62V280.73c30.85-.06,47.63.35,74.58-.71L292,322.75a6.68,6.68,0,0,0,6.76,4.45,13.87,13.87,0,0,0,7.38-2c3-1.34,3-6.27,1.79-10.74L282.85,278C326.65,274.36,351.81,267.63,351.81,263.38ZM89,258.52a15.37,15.37,0,0,1-15.13-15.6c0-8.62,6.77-14.63,15.13-14.63s15.13,6,15.13,14.63A15.38,15.38,0,0,1,89,258.52Zm92.18.86a15.61,15.61,0,1,1,15.13-15.6A15.37,15.37,0,0,1,181.18,259.38Zm92.17.87a15.61,15.61,0,1,1,15.13-15.6A15.38,15.38,0,0,1,273.35,260.25Zm23.21-45.6c-29.25-7.45-72.56-7.08-115.39-7.08s-83-1.31-115.55,7.08c-4.87-19.57-8.69-39.1-9.18-54.23-2.28-70.32,45.22-137,124.73-137s128.6,66.73,125.56,137C305.78,182.54,299.61,202.79,296.56,214.65Z" transform="translate(-10.54 -11.13)"/></g></g><g id="图层_4" data-name="图层 4"><path d="M449,114q20.47,0,35.17,8.46a54.51,54.51,0,0,1,22.24,24.06q7.55,15.6,7.54,36.64a91.23,91.23,0,0,1-4.13,28.26,61.5,61.5,0,0,1-12.4,22.05,54.16,54.16,0,0,1-20.3,14.27q-12,4.94-27.58,4.94a71.47,71.47,0,0,1-27.68-5.08,54.83,54.83,0,0,1-20.39-14.31A61.38,61.38,0,0,1,389.11,211a91.1,91.1,0,0,1-4.18-28.09,88,88,0,0,1,4.36-28.36,61.09,61.09,0,0,1,12.62-21.95A54.54,54.54,0,0,1,422,118.76,71.36,71.36,0,0,1,449,114Zm37.91,69q0-14.73-4.67-25.52t-13.34-16.33a36.19,36.19,0,0,0-19.9-5.53,35.49,35.49,0,0,0-14.78,3.06,32.54,32.54,0,0,0-11.68,8.92,42.81,42.81,0,0,0-7.73,15A68.61,68.61,0,0,0,412,182.93a70.35,70.35,0,0,0,2.83,20.68,42.62,42.62,0,0,0,8,15.32,33.46,33.46,0,0,0,11.86,9.1,36.87,36.87,0,0,0,33.51-2.19q8.58-5.22,13.65-16.1T486.9,182.93Z" transform="translate(-10.54 -11.13)"/><path d="M559.4,216.6v20.85q0,7.61-3.5,11.39a11.59,11.59,0,0,1-8.9,3.8,11.14,11.14,0,0,1-8.71-3.84q-3.42-3.84-3.41-11.35V167.93q0-16.83,11.94-16.83,6.12,0,8.81,3.93t3,11.62a44,44,0,0,1,9-11.62c3.09-2.62,7.2-3.93,12.36-3.93A31.18,31.18,0,0,1,595,155q7.28,3.94,7.28,10.43a10,10,0,0,1-3.1,7.55,9.55,9.55,0,0,1-6.7,3,30.25,30.25,0,0,1-6.51-1.69,29.7,29.7,0,0,0-9.12-1.69,13.17,13.17,0,0,0-8.8,2.88,18.42,18.42,0,0,0-5.3,8.55,60.57,60.57,0,0,0-2.61,13.49Q559.4,205.35,559.4,216.6Z" transform="translate(-10.54 -11.13)"/><path d="M638.28,128.23v38.15a57.21,57.21,0,0,1,14.11-11.21q7.18-3.88,17.79-3.89a37.26,37.26,0,0,1,35.71,23Q711,185.5,711,200.86a72.62,72.62,0,0,1-2.83,20.81,49.75,49.75,0,0,1-8.22,16.42,37.3,37.3,0,0,1-13.08,10.75,37.68,37.68,0,0,1-16.93,3.8,40.19,40.19,0,0,1-10.65-1.37,31,31,0,0,1-8.49-3.62,37.89,37.89,0,0,1-6-4.62q-2.47-2.37-6.52-7.13v2.47q0,7-3.32,10.66a11,11,0,0,1-8.45,3.61A10.43,10.43,0,0,1,618.2,249q-3.09-3.61-3.1-10.66v-109q0-7.59,3-11.48a10,10,0,0,1,8.4-3.89q5.67,0,8.72,3.7T638.28,128.23Zm1.17,74.19q0,14.91,6.69,22.91a21.8,21.8,0,0,0,17.57,8q9.25,0,15.95-8.19t6.69-23.46a46.72,46.72,0,0,0-2.79-17,24.62,24.62,0,0,0-7.9-11,19.24,19.24,0,0,0-11.95-3.89,21.07,21.07,0,0,0-12.49,3.89,25.72,25.72,0,0,0-8.62,11.25A44.37,44.37,0,0,0,639.45,202.42Z" transform="translate(-10.54 -11.13)"/><path d="M743,139.48a12.84,12.84,0,0,1-8.76-3.2q-3.64-3.19-3.64-9.06a11.32,11.32,0,0,1,3.73-8.73,12.38,12.38,0,0,1,8.67-3.43,12.71,12.71,0,0,1,8.45,3.11q3.68,3.1,3.68,9,0,5.78-3.59,9A12.31,12.31,0,0,1,743,139.48Zm12.13,25.8v72.17q0,7.52-3.51,11.35a11.5,11.5,0,0,1-8.89,3.84,11,11,0,0,1-8.76-3.93q-3.37-3.94-3.37-11.26V166q0-7.41,3.37-11.16a11.24,11.24,0,0,1,8.76-3.75,11.63,11.63,0,0,1,8.89,3.75Q755.17,158.6,755.17,165.28Z" transform="translate(-10.54 -11.13)"/><path d="M781.85,153.29h2.7v-15q0-6,.31-9.47a14.19,14.19,0,0,1,1.75-5.9,11.23,11.23,0,0,1,4.14-4.16,11.51,11.51,0,0,1,6-1.6,12,12,0,0,1,8.44,3.57,10.58,10.58,0,0,1,3.19,5.81,53.6,53.6,0,0,1,.67,9.74v17h9q5.21,0,8,2.52a8.36,8.36,0,0,1,2.74,6.45q0,5-3.91,7t-11.18,2h-4.59v45.93a75.62,75.62,0,0,0,.41,9,9.31,9.31,0,0,0,2.15,5.12q1.75,2,5.71,2a29.92,29.92,0,0,0,5.84-.78,29.64,29.64,0,0,1,5.75-.78,7.29,7.29,0,0,1,5.34,2.43,8.2,8.2,0,0,1,2.39,6q0,6-6.47,9.24t-18.6,3.2q-11.51,0-17.43-3.93a18.27,18.27,0,0,1-7.77-10.89q-1.85-6.94-1.84-18.57V171.31h-3.24c-3.53,0-6.23-.85-8.08-2.56a8.42,8.42,0,0,1-2.79-6.49,8.13,8.13,0,0,1,2.92-6.45Q776.28,153.29,781.85,153.29Z" transform="translate(-10.54 -11.13)"/><path d="M914.1,208h-48a33.74,33.74,0,0,0,3.37,15,23.43,23.43,0,0,0,8.72,9.79,22.73,22.73,0,0,0,12,3.29,28.88,28.88,0,0,0,8-1.05,25.89,25.89,0,0,0,7-3.29,53.44,53.44,0,0,0,6.29-4.81q2.88-2.55,7.46-7a8,8,0,0,1,5.39-1.65,8.8,8.8,0,0,1,6.11,2.11,7.58,7.58,0,0,1,2.34,5.95,16.44,16.44,0,0,1-2.61,7.91,31.36,31.36,0,0,1-7.86,8.69,44.36,44.36,0,0,1-13.21,6.9,55.9,55.9,0,0,1-18.28,2.75q-23.62,0-36.75-13.72t-13.11-37.23a63.31,63.31,0,0,1,3.23-20.54,45.51,45.51,0,0,1,9.44-16.24A40.87,40.87,0,0,1,869,154.53a53.93,53.93,0,0,1,20.12-3.61q14.39,0,24.66,6.17a40.3,40.3,0,0,1,15.41,16A42.54,42.54,0,0,1,934.31,193q0,9.42-5.3,12.21T914.1,208Zm-48-14.18H910.6q-.9-12.81-6.79-19.17t-15.5-6.35a19.45,19.45,0,0,0-15,6.45Q867.38,181.19,866.12,193.82Z" transform="translate(-10.54 -11.13)"/><path d="M979.32,216.6v20.85q0,7.61-3.5,11.39a11.58,11.58,0,0,1-8.89,3.8,11.15,11.15,0,0,1-8.72-3.84q-3.42-3.84-3.41-11.35V167.93q0-16.83,12-16.83,6.11,0,8.8,3.93t3,11.62a43.75,43.75,0,0,1,9-11.62q4.63-3.93,12.36-3.93a31.18,31.18,0,0,1,15,3.93q7.27,3.94,7.28,10.43a10,10,0,0,1-3.1,7.55,9.55,9.55,0,0,1-6.69,3,30.28,30.28,0,0,1-6.52-1.69,29.7,29.7,0,0,0-9.12-1.69,13.17,13.17,0,0,0-8.8,2.88,18.5,18.5,0,0,0-5.3,8.55A60.57,60.57,0,0,0,980,197.52Q979.32,205.35,979.32,216.6Z" transform="translate(-10.54 -11.13)"/></g></svg>