<svg id="orbiter_logo" data-name="orbiter logo" xmlns="http://www.w3.org/2000/svg" xmlns:xlink="http://www.w3.org/1999/xlink" viewBox="0 0 341.3 328.8"><defs><style>.cls-1{fill:url(#未命名的渐变_2);}.cls-2{fill:url(#未命名的渐变_8);}.cls-3{fill:#eae8e8;}</style><linearGradient id="未命名的渐变_2" x1="65.13" y1="873.69" x2="387.42" y2="960.08" gradientTransform="translate(-10.54 -707.88)" gradientUnits="userSpaceOnUse"><stop offset="0" stop-color="#434344"/><stop offset="0.29" stop-color="#404041"/><stop offset="0.51" stop-color="#363637"/><stop offset="0.71" stop-color="#262627"/><stop offset="0.9" stop-color="#0f0f0f"/><stop offset="1"/></linearGradient><linearGradient id="未命名的渐变_8" x1="160.33" y1="836.18" x2="255.04" y2="934.11" gradientTransform="translate(-10.54 -707.88)" gradientUnits="userSpaceOnUse"><stop offset="0" stop-color="#ef2f2d"/><stop offset="1" stop-color="#97312d"/></linearGradient></defs><title>orbiter_logo</title><g id="orbiter"><g id="orbiter-2"><path id="Compound_Path" data-name="Compound Path" class="cls-1" d="M368.07,284.9c0-16.6-41.5-42.9-41.5-42.9l-.5-.1c6.8-27.7,10.4-40,10.8-58,1-41.1-9.4-75.9-35.4-106.4-24.2-28.4-62.8-44.8-104-44.8-43.8,0-77.5,16.7-102.6,44.3S57.27,134.6,58,183.4c.2,13.7,3.3,36.6,10,57.2l-.5.1s-40.7,25.8-40.7,43.7c0,5.3,22,12,67.4,14.1l-25.3,37.9c-1,3.2-.4,7.7,2.3,9.6a20.34,20.34,0,0,0,8.9,3.2c4.8.1,6.3-1.2,8.1-4.4l25.4-44.2c27,1.1,44.2,1.6,75.1,1.7v50.6c.2,3,1.5,8.6,9.7,8.6,7.4,0,8.7-5.2,8.7-8.6V302.3c30.9-.1,47.6.4,74.6-.7l26.6,42.7a6.82,6.82,0,0,0,6.8,4.5,14.66,14.66,0,0,0,7.4-2c3-1.3,3-6.3,1.8-10.7l-25.1-36.5C342.87,295.9,368.07,289.1,368.07,284.9ZM105.27,280a15.26,15.26,0,0,1-15.1-15.6c0-8.6,6.8-14.6,15.1-14.6s15.1,6,15.1,14.6A15.32,15.32,0,0,1,105.27,280Zm92.2.9a15.61,15.61,0,1,1,15.1-16.1v.5a15.45,15.45,0,0,1-15.1,15.6Zm92.1.8a15.61,15.61,0,1,1,15.1-16.1v.5a15.26,15.26,0,0,1-15.1,15.6Zm23.2-45.6c-29.2-7.4-72.6-7.1-115.4-7.1s-83-1.3-115.6,7.1c-4.9-19.6-8.7-39.1-9.2-54.2-2.3-70.3,45.2-137,124.7-137s128.6,66.7,125.6,137c-.8,22.1-7,42.4-10.1,54.2Z" transform="translate(-26.77 -32.7)"/></g></g><g id="icon"><path class="cls-2" d="M250.87,154.9c.7,16.3,3,44,4.1,57.6a7,7,0,0,1-6.4,7.6h-.9c-10.1-.5-28.8-1.2-51.1-1.3-21.8-.1-39.8.5-49.6.9a7,7,0,0,1-7.3-6.7v-.8c1.1-13.5,3.3-40.9,4-57.2a53.38,53.38,0,0,1,53.6-51.5h0A53.16,53.16,0,0,1,250.87,154.9Zm-53.6-26a31.5,31.5,0,1,0,31.5,31.5h0a31.5,31.5,0,0,0-31.5-31.5Z" transform="translate(-26.77 -32.7)"/><path class="cls-3" d="M197.77,142.3a11.69,11.69,0,0,1,2.8,7.6,12.17,12.17,0,0,1-12.4,11.9h0a12.24,12.24,0,0,1-9.6-4.5,18.7,18.7,0,0,0-.3,3.4c0,10.1,8.6,18.4,19.1,18.4s19.1-8.2,19.1-18.4S208.17,142.5,197.77,142.3Z" transform="translate(-26.77 -32.7)"/><path class="cls-3" d="M226.07,123.3a1.74,1.74,0,0,1-1.9-1.7h0c-.2-4.1.6-12.5,11.2-21.7,7.3-6.3,17.5-8.6,30.3-6.8a1.9,1.9,0,0,1,1.6,2.1v.1h0a1.87,1.87,0,0,1-2,1.5c-11.7-1.7-20.8.3-27.3,5.9-9.2,8-10.1,15.2-10,18.8a1.86,1.86,0,0,1-1.7,1.9Z" transform="translate(-26.77 -32.7)"/><ellipse class="cls-3" cx="236.2" cy="60.8" rx="5.3" ry="5.1"/><path class="cls-3" d="M170.57,123.6a1.74,1.74,0,0,0,1.9-1.7h0c.2-4.2-.5-13.8-11.2-23-7.3-6.3-17.5-8.6-30.3-6.8a1.9,1.9,0,0,0-1.6,2.1v.1h0a1.87,1.87,0,0,0,2,1.5c11.7-1.7,20.8.3,27.3,5.9,9.3,8,10.1,16.3,9.9,20.1a1.86,1.86,0,0,0,1.7,1.9Z" transform="translate(-26.77 -32.7)"/><ellipse class="cls-3" cx="107.5" cy="60.8" rx="5.3" ry="5.1"/></g><g id="orbiter-2-2" data-name="orbiter"><g id="orbiter-2-3" data-name="orbiter-2"><path id="Compound_Path-2" data-name="Compound Path" class="cls-3" d="M368.07,284.9c0-16.6-41.5-42.9-41.5-42.9l-.5-.1c6.8-27.7,10.4-40,10.8-58,1-41.1-9.4-75.9-35.4-106.4-24.2-28.4-62.8-44.8-104-44.8-43.8,0-77.5,16.7-102.6,44.3S57.27,134.6,58,183.4c.2,13.7,3.3,36.6,10,57.2l-.5.1s-40.7,25.8-40.7,43.7c0,5.3,22,12,67.4,14.1l-25.3,37.9c-1,3.2-.4,7.7,2.3,9.6a20.34,20.34,0,0,0,8.9,3.2c4.8.1,6.3-1.2,8.1-4.4l25.4-44.2c27,1.1,44.2,1.6,75.1,1.7v50.6c.2,3,1.5,8.6,9.7,8.6,7.4,0,8.7-5.2,8.7-8.6V302.3c30.9-.1,47.6.4,74.6-.7l26.6,42.7a6.82,6.82,0,0,0,6.8,4.5,14.66,14.66,0,0,0,7.4-2c3-1.3,3-6.3,1.8-10.7l-25.1-36.5C342.87,295.9,368.07,289.1,368.07,284.9ZM105.27,280a15.26,15.26,0,0,1-15.1-15.6c0-8.6,6.8-14.6,15.1-14.6s15.1,6,15.1,14.6A15.32,15.32,0,0,1,105.27,280Zm92.2.9a15.61,15.61,0,1,1,15.1-16.1v.5a15.45,15.45,0,0,1-15.1,15.6Zm92.1.8a15.61,15.61,0,1,1,15.1-16.1v.5a15.26,15.26,0,0,1-15.1,15.6Zm23.2-45.6c-29.2-7.4-72.6-7.1-115.4-7.1s-83-1.3-115.6,7.1c-4.9-19.6-8.7-39.1-9.2-54.2-2.3-70.3,45.2-137,124.7-137s128.6,66.7,125.6,137c-.8,22.1-7,42.4-10.1,54.2Z" transform="translate(-26.77 -32.7)"/></g></g></svg>