<?xml version="1.0" encoding="UTF-8" standalone="no"?>
<svg width="750px" height="212px" viewBox="0 0 750 212" version="1.1" xmlns="http://www.w3.org/2000/svg" xmlns:xlink="http://www.w3.org/1999/xlink">
    <!-- Generator: Sketch 50.2 (55047) - http://www.bohemiancoding.com/sketch -->
    <title>RedStone_logo</title>
    <desc>Created with Sketch.</desc>
    <defs></defs>
    <g id="RedStone_logo" stroke="none" stroke-width="1" fill="none" fill-rule="evenodd">
        <path d="M435.845726,140.327778 C431.705562,138.614806 428.396874,136.079646 425.919562,132.722222 C423.442251,129.364798 422.135743,125.322246 422,120.594444 L440.528839,120.594444 C440.800326,123.26668 441.716578,125.305086 443.277623,126.709722 C444.838669,128.114359 446.874785,128.816667 449.386032,128.816667 C451.965151,128.816667 454.001267,128.217136 455.494441,127.018056 C456.987615,125.818975 457.73419,124.157418 457.73419,122.033333 C457.73419,120.251843 457.140323,118.77871 455.952571,117.613889 C454.764819,116.449068 453.305603,115.489819 451.574878,114.736111 C449.844154,113.982404 447.383847,113.125931 444.193885,112.166667 C439.578619,110.727771 435.811805,109.288896 432.893329,107.85 C429.974852,106.411104 427.463643,104.287051 425.359625,101.477778 C423.255607,98.6685045 422.203614,95.0028004 422.203614,90.4805556 C422.203614,83.7657072 424.613017,78.5069635 429.431897,74.7041667 C434.250777,70.9013699 440.528801,69 448.266157,69 C456.139256,69 462.485151,70.9013699 467.304031,74.7041667 C472.12291,78.5069635 474.70199,83.7999661 475.041348,90.5833333 L456.207088,90.5833333 C456.071345,88.2536921 455.222964,86.42084 453.661918,85.0847222 C452.100872,83.7486044 450.098692,83.0805556 447.655316,83.0805556 C445.551298,83.0805556 443.854535,83.6458277 442.564976,84.7763889 C441.275416,85.9069501 440.630646,87.5342486 440.630646,89.6583333 C440.630646,91.9879746 441.716575,93.8036972 443.888464,95.1055556 C446.060354,96.4074139 449.45388,97.8120295 454.069145,99.3194444 C458.68441,100.895378 462.434257,102.402771 465.318798,103.841667 C468.203338,105.280563 470.69758,107.370357 472.801598,110.111111 C474.905616,112.851866 475.957609,116.380534 475.957609,120.697222 C475.957609,124.808354 474.922584,128.542576 472.852502,131.9 C470.78242,135.257424 467.779149,137.92962 463.842599,139.916667 C459.906049,141.903714 455.256918,142.897222 449.895066,142.897222 C444.668957,142.897222 439.985891,142.040749 435.845726,140.327778 Z M518.309243,127.275 L518.309243,142.177778 L509.45205,142.177778 C503.139996,142.177778 498.219383,140.618997 494.690063,137.501389 C491.160742,134.383781 489.396108,129.296332 489.396108,122.238889 L489.396108,99.4222222 L482.473245,99.4222222 L482.473245,84.8277778 L489.396108,84.8277778 L489.396108,70.85 L506.805073,70.85 L506.805073,84.8277778 L518.207436,84.8277778 L518.207436,99.4222222 L506.805073,99.4222222 L506.805073,122.444444 C506.805073,124.157416 507.212296,125.390737 508.026755,126.144444 C508.841213,126.898152 510.198624,127.275 512.099027,127.275 L518.309243,127.275 Z M538.823315,139.402778 C534.377729,137.004618 530.882396,133.578726 528.337213,129.125 C525.79203,124.671274 524.519458,119.463919 524.519458,113.502778 C524.519458,107.610156 525.808998,102.41993 528.388117,97.9319444 C530.967236,93.443959 534.496503,90.0009379 538.976025,87.6027778 C543.455547,85.2046176 548.477966,84.0055556 554.043433,84.0055556 C559.6089,84.0055556 564.631319,85.2046176 569.110841,87.6027778 C573.590363,90.0009379 577.11963,93.443959 579.698749,97.9319444 C582.277868,102.41993 583.567408,107.610156 583.567408,113.502778 C583.567408,119.3954 582.2609,124.585626 579.647846,129.073611 C577.034791,133.561597 573.471588,137.004618 568.958131,139.402778 C564.444673,141.800938 559.405286,143 553.839819,143 C548.274353,143 543.268901,141.800938 538.823315,139.402778 Z M562.340688,124.088889 C564.682256,121.62221 565.853023,118.093541 565.853023,113.502778 C565.853023,108.912014 564.716192,105.383346 562.442495,102.916667 C560.168798,100.449988 557.369139,99.2166667 554.043433,99.2166667 C550.649856,99.2166667 547.833229,100.432858 545.593468,102.865278 C543.353707,105.297697 542.233843,108.843495 542.233843,113.502778 C542.233843,118.093541 543.336739,121.62221 545.542564,124.088889 C547.74839,126.555568 550.514114,127.788889 553.839819,127.788889 C557.165525,127.788889 559.99912,126.555568 562.340688,124.088889 Z M643.378909,90.7375 C647.349394,95.0884477 649.334607,101.066629 649.334607,108.672222 L649.334607,142.177778 L632.02745,142.177778 L632.02745,111.036111 C632.02745,107.199055 631.043327,104.218529 629.075052,102.094444 C627.106777,99.9703598 624.459827,98.9083333 621.134121,98.9083333 C617.808415,98.9083333 615.161465,99.9703598 613.19319,102.094444 C611.224915,104.218529 610.240792,107.199055 610.240792,111.036111 L610.240792,142.177778 L592.831828,142.177778 L592.831828,84.8277778 L610.240792,84.8277778 L610.240792,92.4333333 C612.005452,89.8981355 614.380921,87.8939888 617.367269,86.4208333 C620.353617,84.9476778 623.713208,84.2111111 627.446143,84.2111111 C634.097555,84.2111111 639.408424,86.3865523 643.378909,90.7375 Z M714.69458,117.716667 L675.295344,117.716667 C675.56683,121.279647 676.703662,124.003231 678.705872,125.8875 C680.708083,127.771769 683.168389,128.713889 686.086866,128.713889 C690.430645,128.713889 693.450883,126.863907 695.147672,123.163889 L713.676511,123.163889 C712.72631,126.932426 711.012579,130.324059 708.535268,133.338889 C706.057956,136.353719 702.952879,138.717584 699.219944,140.430556 C695.487009,142.143527 691.312972,143 686.697707,143 C681.13224,143 676.177691,141.800938 671.833912,139.402778 C667.490133,137.004618 664.096607,133.578726 661.653231,129.125 C659.209856,124.671274 657.988186,119.463919 657.988186,113.502778 C657.988186,107.541637 659.192888,102.334282 661.602328,97.8805556 C664.011768,93.4268296 667.388327,90.0009379 671.732106,87.6027778 C676.075885,85.2046176 681.064368,84.0055556 686.697707,84.0055556 C692.195302,84.0055556 697.08198,85.1703587 701.357887,87.5 C705.633795,89.8296413 708.976418,93.1527562 711.385858,97.4694444 C713.795298,101.786133 715,106.822193 715,112.577778 C715,114.22223 714.898194,115.935176 714.69458,117.716667 Z M697.183808,107.952778 C697.183808,104.937948 696.16575,102.539824 694.129604,100.758333 C692.093458,98.9768429 689.548313,98.0861111 686.494093,98.0861111 C683.575617,98.0861111 681.11531,98.942584 679.113099,100.655556 C677.110889,102.368527 675.872252,104.80091 675.397151,107.952778 L697.183808,107.952778 Z" id="RedStone" fill="#24355B"></path>
        <path d="M261.384755,142 L246.546279,114.820513 L242.37931,114.820513 L242.37931,142 L225,142 L225,70 L254.168784,70 C259.792527,70 264.586187,70.9914431 268.549909,72.974359 C272.513631,74.9572749 275.477909,77.6751964 277.442831,81.1282051 C279.407753,84.5812138 280.3902,88.4273292 280.3902,92.6666667 C280.3902,97.4530154 279.05204,101.726477 276.375681,105.487179 C273.699321,109.247882 269.752597,111.914522 264.53539,113.487179 L281,142 L261.384755,142 Z M242.37931,102.410256 L253.15245,102.410256 C256.336979,102.410256 258.72534,101.623939 260.317604,100.051282 C261.909869,98.4786246 262.705989,96.2564246 262.705989,93.3846154 C262.705989,90.649559 261.909869,88.4957344 260.317604,86.9230769 C258.72534,85.3504195 256.336979,84.5641026 253.15245,84.5641026 L242.37931,84.5641026 L242.37931,102.410256 Z" id="Combined-Shape" fill="#FD627A"></path>
        <path d="M344.694643,117.714286 L305.303571,117.714286 C305.575001,121.277602 306.711597,124.001442 308.713393,125.885889 C310.715189,127.770335 313.174985,128.712544 316.092857,128.712544 C320.435736,128.712544 323.455349,126.862388 325.151786,123.162021 L343.676786,123.162021 C342.726781,126.930913 341.013405,130.322865 338.536607,133.337979 C336.059809,136.353093 332.955376,138.717181 329.223214,140.430314 C325.491053,142.143446 321.31788,143 316.703571,143 C311.139258,143 306.185736,141.800825 301.842857,139.402439 C297.499978,137.004053 294.107155,133.577839 291.664286,129.123693 C289.221416,124.669548 288,119.461702 288,113.5 C288,107.538298 289.204452,102.330452 291.613393,97.8763066 C294.022333,93.4221612 297.398193,89.995947 301.741071,87.597561 C306.08395,85.199175 311.0714,84 316.703571,84 C322.200027,84 327.085693,85.1649129 331.360714,87.4947735 C335.635736,89.8246342 338.977667,93.148062 341.386607,97.4651568 C343.795548,101.782252 345,106.818787 345,112.574913 C345,114.21952 344.898215,115.932628 344.694643,117.714286 Z M327.1875,107.949477 C327.1875,104.934364 326.169653,102.536014 324.133929,100.754355 C322.098204,98.9726972 319.553587,98.0818815 316.5,98.0818815 C313.582128,98.0818815 311.122331,98.9384351 309.120536,100.651568 C307.11874,102.364701 305.88036,104.797313 305.405357,107.949477 L327.1875,107.949477 Z" id="Combined-Shape" fill="#FD627A"></path>
        <path d="M354.310696,97.3957219 C356.517838,92.9928479 359.522901,89.6060725 363.325976,87.2352941 C367.129051,84.8645158 371.373491,83.6791444 376.059423,83.6791444 C379.794586,83.6791444 383.207115,84.4581027 386.297114,86.0160428 C389.387112,87.5739828 391.814932,89.6737836 393.580645,92.315508 L393.580645,66 L411,66 L411,141.187166 L393.580645,141.187166 L393.580645,133.058824 C391.950756,135.768284 389.624803,137.935821 386.602716,139.561497 C383.58063,141.187174 380.066234,142 376.059423,142 C371.373491,142 367.129051,140.797695 363.325976,138.393048 C359.522901,135.988402 356.517838,132.567758 354.310696,128.131016 C352.103554,123.694274 351,118.563309 351,112.737968 C351,106.912627 352.103554,101.798596 354.310696,97.3957219 Z M389.964346,102.57754 C387.553468,100.071289 384.616316,98.8181818 381.152801,98.8181818 C377.689287,98.8181818 374.752134,100.054355 372.341256,102.526738 C369.930378,104.999121 368.724958,108.40283 368.724958,112.737968 C368.724958,117.073105 369.930378,120.510682 372.341256,123.050802 C374.752134,125.590922 377.689287,126.860963 381.152801,126.860963 C384.616316,126.860963 387.553468,125.607856 389.964346,123.101604 C392.375224,120.595353 393.580645,117.17471 393.580645,112.839572 C393.580645,108.504435 392.375224,105.083791 389.964346,102.57754 Z" id="Combined-Shape" fill="#FD627A"></path>
        <g id="Group-3-Copy" transform="translate(35.000000, 45.000000)" fill="#FD627A">
            <path d="M119.294738,58.6990652 L100.713441,27.9699842 L110.337756,12.2204141 L138.442369,58.6990652 L119.294738,58.6990652 Z M56.0448628,101.88514 L93.6114464,101.88514 L102.989252,117.256634 L46.8357606,117.256634 L56.0448628,101.88514 Z M93.59798,23.8115145 L55.999601,23.8115145 L46.8095761,8.40394233 L103.012818,8.40394233 L93.59798,23.8115145 Z M93.5695511,93.6170576 L55.9891272,93.6170576 L37.3831421,62.8485153 L55.9891272,32.0795972 L93.5695511,32.0795972 L112.174788,62.8485153 L93.5695511,93.6170576 Z M39.5115711,12.2534865 L48.8658105,27.9357844 L30.2691771,58.6892939 L11.4331421,58.6892939 L39.5115711,12.2534865 Z M11.4245387,66.9573766 L30.2385037,66.9573766 L48.8878803,97.7980767 L39.5246633,113.428135 L11.4245387,66.9573766 Z M110.325411,113.460456 L100.720175,97.7157717 L119.313441,66.9671479 L138.439002,66.9671479 L110.325411,113.460456 Z M113.861446,2.12358188 C113.115187,0.889382623 111.78202,0.135859632 110.344863,0.135859632 L39.5246633,0.135859632 C38.0871322,0.135859632 36.7539651,0.889382623 36.0080798,2.12358188 L0.598354115,60.6837809 C-0.19915212,62.0025401 -0.199526185,63.6576599 0.59798005,64.9764191 L36.0080798,123.536618 C36.7539651,124.771193 38.0871322,125.524716 39.5246633,125.524716 L110.344863,125.524716 C111.78202,125.524716 113.115187,124.771193 113.861446,123.536618 L149.271546,64.9764191 C150.069426,63.6576599 150.069426,62.0025401 149.271546,60.6837809 L113.861446,2.12358188 Z" id="Fill-1"></path>
            <path d="M96.076384,69.2877733 C94.1570574,68.0667278 91.6145387,68.6391046 90.3984539,70.5681986 L83.1157855,82.1205893 C81.9000748,84.0493075 82.4705237,86.6033934 84.3902244,87.8251905 C85.0732668,88.2596407 85.8352369,88.4670944 86.5882294,88.4670944 C87.9509476,88.4670944 89.2848628,87.7872325 90.0681546,86.5447651 L97.3508229,74.9923745 C98.5669077,73.0636563 97.9960848,70.5095704 96.076384,69.2877733" id="Fill-4"></path>
            <path d="M102.063254,58.6498701 C100.105399,57.4923386 97.5823317,58.1488995 96.430212,60.117079 L95.8945511,61.0322054 C94.7424314,63.0000091 95.3962968,65.5338006 97.3552743,66.6913322 C98.0102618,67.0788046 98.7284663,67.2629574 99.4373192,67.2629574 C100.847544,67.2629574 102.22111,66.5338628 102.987943,65.2241234 L103.523603,64.3093728 C104.675723,62.3411932 104.021858,59.8077775 102.063254,58.6498701" id="Fill-6"></path>
        </g>
    </g>
</svg>
