<svg width="256" height="256" viewBox="0 0 256 256" fill="none" xmlns="http://www.w3.org/2000/svg">
<circle cx="128" cy="128" r="128" fill="white"/>
<path d="M185.345 71.2214C185.345 71.2214 192.971 52.2868 191.985 47.9476C191.065 43.7399 190.999 42.425 184.096 37.2969C181.334 38.546 176.404 40.3211 172.393 39.5322C166.476 38.4145 163.452 36.3764 160.625 33.8781C157.798 31.3798 156.286 27.698 156.023 25.5285C155.957 25.0025 156.549 24.608 157.009 24.9367C159.441 26.7119 161.414 29.9334 168.317 32.2345C172.262 33.5494 175.483 33.1549 177.455 32.4975C168.711 26.4489 156.023 18.165 148.462 15.6667C138.797 12.5109 134.458 18.691 134.458 18.691L125.385 33.0234C125.385 33.0234 140.638 35.2588 156.22 44.0029C171.736 52.6812 185.345 71.2214 185.345 71.2214Z" fill="#3800D6"/>
<path d="M209.67 92.7202C207.763 92.9832 204.871 92.9832 200.992 91.997C185.805 87.7236 176.469 62.6747 150.171 46.8958C108.159 25.1999 85.6088 44.7919 85.6088 44.7919C82.716 46.7643 85.6745 48.0135 85.6745 48.0135L99.481 54.9825L105.99 58.4012C105.99 58.4012 101.848 63.7266 93.4325 59.6504C90.6712 58.467 85.1486 58.1382 80.8751 61.9515C76.2072 64.5155 78.2453 71.9447 74.8266 76.6784C71.4736 81.412 64.7675 80.6231 64.0443 87.4606C63.4526 94.4296 68.9752 95.7445 69.1067 100.938C69.2382 106.132 67.3316 109.091 66.8056 110.471C66.6084 111.063 66.4769 111.786 66.4769 112.51C66.5427 113.496 67.0029 114.482 67.6603 115.271C68.1863 115.863 68.6465 116.257 69.1725 116.586C71.4078 118.098 73.3144 120.07 74.5636 122.437C74.7608 122.832 74.9581 123.226 75.221 123.62C75.4183 123.949 75.6155 124.344 75.8785 124.804C77.3249 127.368 77.9166 130.392 77.3906 133.351C77.2591 134.14 77.3249 135.06 77.5879 135.915C78.1138 137.493 79.4945 138.676 81.1381 139.136C83.5707 139.728 85.6745 141.174 87.1209 143.213C87.2524 143.344 87.3182 143.541 87.4497 143.673C89.422 146.434 89.0275 150.773 89.8165 153.929C90.6054 157.085 93.2352 158.071 97.0485 160.241C100.862 162.41 101.651 165.829 100.073 167.473C98.4949 169.116 89.159 165.106 85.4115 169.576C82.6503 172.14 83.8337 173.784 82.453 178.649C81.0724 183.58 76.8647 179.964 74.6293 183.383C72.394 186.802 72.0653 190.483 73.1829 197.781C74.3006 205.079 81.4011 215.138 81.4011 215.138C81.4011 215.138 77.5879 201.857 85.8718 190.483C92.9065 182.199 98.2976 181.082 106.253 180.95C114.274 180.753 126.108 187.985 128.54 202.186C129.79 211.588 124.661 217.044 124.267 217.57C123.347 218.622 115.786 226.972 105.727 221.384C102.966 219.477 100.533 217.505 98.8893 213.691C97.7059 210.207 97.3772 205.539 99.3495 202.383C100.993 199.753 103.623 198.965 104.412 198.899C105.595 198.767 108.159 198.833 109.803 200.082C111.447 201.331 113.222 203.172 112.893 206.328C112.564 209.484 109.277 210.404 108.028 210.141C106.976 209.944 107.699 210.075 107.962 210.141C105.924 210.01 105.004 208.432 104.609 207.314C104.543 207.051 104.149 207.117 104.083 207.38C103.491 211.719 106.779 214.48 108.751 214.941C110.921 215.401 114.142 215.335 116.772 212.64C119.073 210.338 120.322 208.366 120.322 203.304C120.322 199.162 118.613 196.269 115.786 193.771C112.104 190.352 107.239 189.037 103.886 189.3C100.73 189.563 95.2076 190.878 91.5916 196.598C88.2386 201.857 86.7922 209.089 89.6192 217.176L89.7507 217.439C96.1938 232.495 111.249 236.308 121.637 236.308C123.741 236.308 125.648 236.176 127.226 235.913C127.554 235.848 134.983 234.73 142.215 230.259C151.157 224.342 156.482 215.795 156.482 202.58C156.482 185.027 148.79 173.324 133.011 155.047C129.987 151.299 117.692 136.112 115.457 133.154C104.478 118.953 92.1833 102.253 98.2976 89.5644C98.4949 89.17 98.6921 88.8413 98.8893 88.4468C108.028 71.6817 133.8 75.8237 128.146 76.8756C118.35 78.5193 112.499 82.8584 110.723 84.7651C108.948 86.6717 107.962 88.3153 106.779 91.4053C104.741 96.4677 106.384 104.291 110.723 111.129C129.592 137.887 157.468 171.22 160.887 179.241C165.292 189.366 165.949 197.387 165.884 202.318C165.818 207.248 164.635 215.138 164.635 215.138C164.635 215.138 171.143 209.944 174.233 203.632C177.323 197.321 177.849 194.297 176.929 191.93C175.943 189.563 173.51 189.497 172.524 185.618C171.538 181.739 174.299 178.321 171.406 172.14C170.157 169.445 163.517 165.5 160.098 161.161C156.679 156.822 150.434 149.064 145.766 142.818C137.35 131.641 134.589 127.828 129.724 121.517C134.983 123.095 141.558 125.264 156.679 118.229C170.683 125.396 180.282 125.001 183.635 124.804C186.988 124.607 190.144 123.095 192.576 121.188C194.154 119.939 195.338 117.44 196.061 115.797C196.324 115.205 195.732 114.679 195.14 114.876C183.372 119.742 172.524 115.797 159.178 108.368L156.811 107.053L154.444 108.302C140.44 115.797 125.713 109.945 124.398 109.42C123.873 109.157 119.862 107.053 118.087 103.502C116.312 99.9522 115.917 96.2047 117.232 93.0489C118.284 90.4849 120.782 88.7755 124.859 87.9208C128.212 87.5263 132.551 88.7755 136.035 90.1562C136.824 90.4849 137.548 89.6959 137.219 88.9727C136.824 87.9208 136.561 86.8032 136.561 85.6197C136.561 83.6474 137.219 81.8723 138.271 80.4259L142.939 82.5955C142.15 83.3844 141.689 84.5678 141.821 85.8827C142.018 87.5921 143.465 89.0385 145.174 89.2357C147.475 89.5644 149.382 87.8551 149.579 85.6855L153.984 87.7236C153.195 90.9451 150.697 93.4434 147.475 94.2324C146.818 94.3639 146.752 95.2185 147.409 95.4158C153.392 98.2428 170.88 106.395 170.88 106.395C170.88 106.395 181.005 112.049 189.881 110.932C198.428 110.471 202.241 103.7 197.178 104.357C192.116 105.015 180.15 99.8207 180.15 99.8207L172.13 96.0732L175.483 90.8794C175.483 90.8794 186.922 97.3881 197.047 99.6235C203.753 101.07 208.289 97.2566 210.59 94.4953C211.314 93.7721 210.656 92.5887 209.67 92.7202ZM116.049 69.9066C111.775 70.4326 105.267 72.4049 101.585 74.1801C100.204 74.8375 99.0208 75.495 98.0346 76.0867C94.8131 78.1905 91.9203 81.3463 89.6192 85.6855C80.6121 103.174 97.1142 124.607 110.395 141.832C112.63 144.725 114.668 147.42 116.509 149.919C119.336 153.798 122.426 157.611 125.45 161.227C133.208 170.76 141.755 180.885 145.437 192.127C146.423 196.072 146.555 199.753 146.094 202.712C144.517 211.916 136.496 215.072 136.496 215.072C137.679 211.259 138.336 206.328 137.613 200.674V200.542C135.181 187.328 124.464 175.625 124.464 175.625C121.9 172.206 119.139 168.656 116.904 165.763C94.3529 136.77 92.1176 133.482 86.7922 123.818L86.7265 123.686C86.595 123.423 86.3977 123.095 86.2005 122.766C83.1105 117.572 74.8266 103.7 78.4426 89.17C79.2972 85.817 80.8094 82.7927 82.979 80.1629C96.1938 63.0034 121.506 68.8547 116.049 69.9066Z" fill="#3800D6"/>
</svg>
