<svg width="202" height="24" viewBox="0 0 202 24" fill="none" xmlns="http://www.w3.org/2000/svg">
    <path d="M55.8224 2.07031V10.4189H66.0099V2.07031H69.2385V21.7818H66.0099V13.362H55.8224V21.7818H52.5671V2.07031H55.8224Z" fill="#F8F8F8"/>
    <path d="M104.06 13.9809L108.217 21.7818H104.536L100.73 14.1813H94.8942V21.7818H91.6345V2.07031H102.262C105.912 2.07031 108.523 4.43462 108.523 8.12579C108.58 9.47097 108.164 10.7934 107.349 11.8631C106.533 12.9328 105.37 13.6822 104.06 13.9809ZM94.8942 11.2515H101.924C103.976 11.2515 105.268 10.0404 105.268 8.13469C105.268 6.229 103.976 5.0179 101.924 5.0179H94.8942V11.2515Z" fill="#F8F8F8"/>
    <path d="M119.617 2.07031C124.866 2.07031 127.704 4.74185 127.704 10.0849V13.7583C127.704 19.1013 124.866 21.7729 119.617 21.7729H111.108V2.07031H119.617ZM114.363 18.8253H119.643C122.93 18.8253 124.475 17.1378 124.475 13.8696V9.9736C124.475 6.70987 122.903 5.0179 119.643 5.0179H114.363V18.8253Z" fill="#F8F8F8"/>
    <path d="M133.797 2.07031V18.8253H145.645V21.7818H130.546V2.07031H133.797Z" fill="#F8F8F8"/>
    <path d="M177.274 2.07031C180.671 2.07031 183.047 4.06951 183.047 7.2798C183.047 10.125 181.222 11.2871 179.787 11.7012V11.9817C180.778 12.2211 181.654 12.7995 182.264 13.6173C182.875 14.435 183.182 15.4408 183.131 16.461C183.131 19.7826 180.685 21.804 177.318 21.804H166.42V2.07031H177.274ZM169.675 10.4189H176.936C178.762 10.4189 179.943 9.35024 179.943 7.71615C179.943 6.08207 178.735 5.04462 176.936 5.04462H169.675V10.4189ZM169.675 18.8386H176.994C178.873 18.8386 180.027 17.77 180.027 16.1092C180.027 14.4484 178.873 13.3486 176.919 13.3486H169.675V18.8386Z" fill="#F8F8F8"/>
    <path d="M42.3264 10.4761L41.3982 10.2535C38.7914 9.71472 37.277 9.04239 37.277 7.19458C37.277 5.44918 38.7781 4.44735 41.3893 4.44735C44.347 4.44735 45.9102 5.67181 45.9102 7.98268V8.49918H49.2498V7.98268C49.2498 4.15794 46.2389 1.78027 41.3893 1.78027C36.7796 1.78027 33.9374 3.89969 33.9374 7.30144C33.9374 10.8635 36.6508 12.1236 40.7276 12.9473L41.6514 13.1432C44.5868 13.7576 46.1767 14.4389 46.1767 16.2867C46.1767 18.2057 44.4003 19.4035 41.5048 19.4035C38.2718 19.4035 36.491 17.9475 36.491 15.3071V15.1557H33.1514V15.316C33.1514 19.4881 36.3533 22.0839 41.5048 22.0839C46.2966 22.0839 49.4985 19.7241 49.4985 16.2155C49.5207 13.1699 47.3669 11.4557 42.3264 10.4761Z" fill="#F8F8F8"/>
    <path d="M194.189 10.4761L193.266 10.2535C190.654 9.71472 189.144 9.04239 189.144 7.19458C189.144 5.44918 190.641 4.44735 193.257 4.44735C196.21 4.44735 197.773 5.67181 197.773 7.98268V8.49918H201.095V7.98268C201.095 4.15794 198.084 1.78027 193.239 1.78027C188.66 1.78027 185.805 3.89969 185.805 7.30144C185.805 10.8635 188.518 12.1236 192.591 12.9473L193.519 13.1432C196.454 13.7576 198.044 14.4389 198.044 16.2867C198.044 18.2057 196.268 19.4035 193.372 19.4035C190.139 19.4035 188.358 17.9475 188.358 15.3071V15.1557H185.019V15.316C185.019 19.4881 188.216 22.0839 193.372 22.0839C198.164 22.0839 201.366 19.7241 201.366 16.2155C201.384 13.1699 199.234 11.4557 194.189 10.4761Z" fill="#F8F8F8"/>
    <path d="M76.9127 14.2347L80.4432 2.07031H77.2502L71.4636 21.7818H74.8077L76.1266 17.1912L76.9127 14.2347Z" fill="#F8F8F8"/>
    <path d="M83.9649 14.2347L80.4343 2.07031H83.6274L89.4095 21.7818H86.0699L84.7509 17.1912L83.9649 14.2347Z" fill="#F8F8F8"/>
    <path d="M152.045 14.2347L155.575 2.07031H152.382L146.6 21.7818H149.94L151.259 17.1912L152.045 14.2347Z" fill="#F8F8F8"/>
    <path d="M159.097 14.2347L155.566 2.07031H158.759L164.546 21.7818H161.202L159.883 17.1912L159.097 14.2347Z" fill="#F8F8F8"/>
    <path fill-rule="evenodd" clip-rule="evenodd" d="M18.7316 0.177734L0.36377 9.08729V18.5935H9.84522L18.7316 0.177734ZM10.9688 23.6739L24.2117 17.2534V10.4009H17.3771L10.9688 23.6739Z" fill="#F8F8F8"/>
</svg>
