<svg width="500" height="500" viewBox="0 0 500 500" fill="none" xmlns="http://www.w3.org/2000/svg">
<mask id="mask0_720_1052" style="mask-type:luminance" maskUnits="userSpaceOnUse" x="117" y="50" width="265" height="401">
<path d="M117.922 50H381.922V451H117.922V50Z" fill="white"/>
</mask>
<g mask="url(#mask0_720_1052)">
<path d="M320.333 322.854C320.88 327.646 320.797 332.224 320.422 336.609C319.844 341.047 318.844 345.245 317.578 349.151C316.052 353.01 314.412 356.641 312.297 360.016C311.068 361.594 310.182 363.375 308.781 364.807C307.662 366.438 306.172 367.76 304.896 369.266C303.375 370.521 302.078 372.042 300.427 373.135C299.672 373.771 298.948 374.464 298.083 374.943L295.636 376.63C292.271 378.74 288.636 380.375 284.792 381.885C280.891 383.167 276.703 384.125 272.281 384.719C267.917 385.073 263.344 385.172 258.568 384.625C239.63 382.266 217.302 370.005 202.63 340.964C198.995 348.24 196.979 356.562 196.745 365.214C196.594 373.839 198.068 382.792 201.208 391.422C204.469 399.964 209.287 408.151 215.474 415.531C221.761 422.776 229.412 429.094 238.052 434.151C246.735 439.13 256.406 442.547 266.458 444.604C271.495 445.318 276.604 446.203 281.771 446.125L285.646 446.193C286.943 446.234 288.245 446.182 289.537 446.052C292.125 445.833 294.724 445.583 297.328 445.302C307.677 443.745 317.875 440.625 327.37 435.927C329.724 434.734 331.979 433.349 334.271 432.021C336.589 430.734 338.735 429.193 340.88 427.646C345.235 424.615 349.11 421 352.995 417.406C356.563 413.495 360.209 409.646 363.203 405.26C364.75 403.115 366.292 400.969 367.578 398.646C368.901 396.354 370.287 394.104 371.459 391.734C376.146 382.234 379.255 372.026 380.797 361.672C381.078 359.073 381.333 356.474 381.542 353.88C381.818 351.286 381.62 348.688 381.615 346.109C381.693 340.948 380.787 335.833 380.083 330.797C378.011 320.745 374.61 311.073 369.63 302.391C364.578 293.76 358.287 286.104 351.042 279.818C343.688 273.635 335.511 268.818 326.99 265.547C318.375 262.406 309.443 260.922 300.839 261.062C292.198 261.286 283.896 263.281 276.625 266.901C305.646 281.495 317.969 303.859 320.333 322.854ZM255.432 49.9844C260.406 58.625 264.182 67.8229 267.125 77.3802C270.084 86.9479 271.99 96.9063 273.021 107.078C275.063 127.406 273.11 148.641 267.63 168.766C262.266 188.958 253.62 207.943 243.813 225.115C234.011 242.333 223.089 257.885 212.99 272.297C202.932 286.703 193.646 299.984 187.219 312.5C186.37 314.073 185.636 315.63 184.917 317.182C184.12 318.74 183.542 320.26 182.813 321.812C181.62 324.896 180.349 327.958 179.469 331.068C177.526 337.271 176.271 343.672 175.797 350.62C175.328 357.547 175.604 365 176.604 372.859C177.61 380.724 179.333 388.943 181.495 397.406C183.604 405.891 186.38 414.516 189.162 423.443C191.964 432.375 195.229 441.333 198.005 450.974C189.214 446.302 180.953 440.88 173.271 434.667C165.516 428.505 158.156 421.714 151.464 414.021C144.761 406.349 138.599 397.87 133.375 388.391C128.146 378.932 123.886 368.422 121.24 357.052C120.495 354.24 120.052 351.312 119.542 348.406C119.099 345.484 118.802 342.516 118.505 339.542C118.151 333.583 118.021 327.521 118.557 321.542C119.448 309.531 122.188 297.844 126.016 287.141C127.849 281.708 130.115 276.651 132.365 271.646C134.688 266.745 137.188 261.979 139.735 257.458C142.307 252.891 144.995 248.594 147.667 244.349C150.406 240.161 153.146 236.104 155.896 232.156C166.979 216.448 178.151 202.505 188.5 188.891C198.875 175.281 208.427 162.036 216.943 148.083C225.443 134.13 232.88 119.385 239.11 103.12C242.245 94.9948 245.099 86.5156 247.787 77.6667C250.386 68.8125 252.719 59.625 255.432 49.9844Z" fill="url(#paint0_linear_720_1052)"/>
</g>
<defs>
<linearGradient id="paint0_linear_720_1052" x1="117.885" y1="250.479" x2="381.377" y2="250.479" gradientUnits="userSpaceOnUse">
<stop stop-color="#6AFFAF"/>
<stop offset="1" stop-color="#5CE3FE"/>
</linearGradient>
</defs>
</svg>
