<svg width="240" height="240" viewBox="0 0 240 240" fill="none" xmlns="http://www.w3.org/2000/svg">
<g id="Group 19">
<circle id="Ellipse 17" cx="120" cy="120" r="120" fill="#128DFF"/>
<path id="Union" fill-rule="evenodd" clip-rule="evenodd" d="M112.8 144H112.8V48H112.8C86.2901 48 64.7998 69.4903 64.7998 96C64.7998 122.51 86.2901 144 112.8 144ZM124.801 192H124.8V95.9997H124.801C151.31 95.9997 172.801 117.49 172.801 144C172.801 170.509 151.31 192 124.801 192ZM172.8 66C172.8 75.9411 164.741 84 154.8 84C144.859 84 136.8 75.9411 136.8 66C136.8 56.0589 144.859 48 154.8 48C164.741 48 172.8 56.0589 172.8 66ZM86.8733 169.927L82.8003 156L78.7274 169.927L64.8003 174L78.7274 178.073L82.8003 192L86.8733 178.073L100.8 174L86.8733 169.927Z" fill="white"/>
</g>
</svg>
