<svg width="40" height="40" viewBox="0 0 40 40" fill="none" xmlns="http://www.w3.org/2000/svg">
<path fill-rule="evenodd" clip-rule="evenodd" d="M0.00529747 34.0697C2.74411 32.9457 9.62336 31.1628 15.2299 33.0232C20.8364 34.8837 24.4129 38.4496 25.5004 40C25.5407 38.2946 26.9504 34.4419 32.2669 32.6744C29.9308 30.9302 24.8963 26.1395 23.4463 20.9302C24.9365 20.155 29.4153 18.8837 35.4085 20L40 14.3023L30.3336 10.4651L29.367 8.3721L22.1172 5.93024V1.86047L17.284 0C11.4036 3.79842 -0.284694 15.9302 0.00529747 34.0697ZM6.76639 14.3024C7.85386 12.1706 11.5271 6.81399 17.5203 2.44189L19.6952 3.13957V7.20934L27.67 10.1163L28.2741 11.8605L36.6114 15.3489L34.6781 17.7907C31.7379 17.3644 24.77 17.2093 20.4202 20C20.2993 19.0698 20.2752 16.6977 21.1451 14.6512L19.4535 13.721C18.205 16.6279 16.7469 24.4884 20.9035 32.6745L16.312 30.6977C15.5064 27.907 14.6203 20.3721 17.5203 12.5582L15.9495 11.7442L14.862 14.6512C13.2107 14.2636 9.27965 13.6512 6.76639 14.3024Z" fill="black"/>
<path d="M26.9884 10.5195L20.6119 8.18182L27.2246 11.4546L26.9884 10.5195Z" fill="black"/>
</svg>
