<svg width="320" height="320" viewBox="0 0 320 320" fill="none" xmlns="http://www.w3.org/2000/svg">
<g clip-path="url(#clip0_14_19)">
<path fill-rule="evenodd" clip-rule="evenodd" d="M0.134277 160.067C0.134277 248.411 71.7551 320 160.067 320C248.379 320 320 248.379 320 160.067C320 71.7551 248.411 0.134277 160.067 0.134277C71.723 0.134277 0.134277 71.7551 0.134277 160.067Z" fill="url(#paint0_linear_14_19)"/>
<path fill-rule="evenodd" clip-rule="evenodd" d="M160.064 57.4033H232.646L232.614 57.3712C235.568 57.3712 237.943 59.7467 237.943 62.7001V104.818C237.943 107.771 235.568 110.146 232.614 110.146H165.971C161.477 110.146 157.817 113.806 157.817 118.3V154.511C157.817 157.464 155.442 159.84 152.488 159.84H110.371C107.418 159.84 105.042 157.464 105.042 154.511V112.394C105.042 109.44 107.418 107.065 110.371 107.065H146.582C151.076 107.065 154.736 103.437 154.736 98.9429V62.7322C154.736 59.7788 157.111 57.4033 160.064 57.4033ZM159.487 262.18H86.9049V262.212C83.9516 262.212 81.576 259.837 81.576 256.883V214.766C81.576 211.813 83.9516 209.437 86.9049 209.437H153.58C158.074 209.437 161.734 205.777 161.734 201.283V165.073C161.734 162.119 164.11 159.744 167.063 159.744H209.18C212.134 159.744 214.509 162.119 214.509 165.073V207.19C214.509 210.143 212.134 212.519 209.18 212.519H172.97C168.475 212.519 164.816 216.146 164.816 220.641V256.851C164.816 259.805 162.44 262.18 159.487 262.18Z" fill="#060B21"/>
</g>
<defs>
<linearGradient id="paint0_linear_14_19" x1="0.134277" y1="160.067" x2="320" y2="160.067" gradientUnits="userSpaceOnUse">
<stop stop-color="#6F4FF2"/>
<stop offset="1" stop-color="#AD99FF"/>
</linearGradient>
<clipPath id="clip0_14_19">
<rect width="320" height="320" fill="white"/>
</clipPath>
</defs>
</svg>
