<svg width="237" height="48" viewBox="0 0 237 48" fill="none" xmlns="http://www.w3.org/2000/svg">
<path fill-rule="evenodd" clip-rule="evenodd" d="M47.2158 24C47.2158 37.198 36.6465 47.8968 23.6083 47.8968C10.57 47.8968 0 37.198 0 24C0 10.802 10.57 0.103149 23.6083 0.103149C36.6465 0.103149 47.2158 10.802 47.2158 24Z" fill="#29296E"/>
<path fill-rule="evenodd" clip-rule="evenodd" d="M34.5937 17.6109L33.9934 15.7335C33.8714 15.3517 33.5737 15.0545 33.1951 14.9374L31.3314 14.3572C31.0734 14.2775 31.0713 13.9091 31.3272 13.8251L33.1825 13.2174C33.559 13.0939 33.8526 12.7925 33.969 12.4093L34.5414 10.5228C34.6202 10.2623 34.9842 10.2595 35.0672 10.5192L35.6675 12.3966C35.7895 12.7777 36.0872 13.0748 36.4658 13.1927L38.3295 13.7721C38.5875 13.8526 38.5903 14.2203 38.3337 14.3043L36.4784 14.912C36.1019 15.0355 35.8083 15.3376 35.6919 15.7208L35.1195 17.6066C35.0407 17.8678 34.6767 17.8706 34.5937 17.6109Z" fill="#FAFAFA"/>
<path fill-rule="evenodd" clip-rule="evenodd" d="M2.14661 23.6216C2.70788 22.5086 3.81787 21.6701 4.97109 21.1401C6.13617 20.6157 7.41698 20.2938 8.67479 20.1894C11.2141 19.9572 13.6879 20.387 15.9413 21.1302C17.1022 21.4803 18.1411 21.9665 19.2141 22.4577C19.7357 22.7118 20.2258 22.9998 20.7306 23.2779L22.1251 24.0959C23.6562 25.0458 25.1406 25.8871 26.5351 26.5407C27.933 27.1886 29.1964 27.6268 30.3873 27.8506C31.5782 28.0771 32.7885 28.0743 34.2771 27.7285C35.7539 27.3904 37.4154 26.6613 39.1522 25.7262C40.8994 24.7903 42.6913 23.6427 44.7356 22.5213C44.5306 24.8651 43.8752 27.0629 42.8517 29.1852C41.8031 31.2821 40.3444 33.3274 38.2179 34.9838C36.1318 36.6537 33.2668 37.8175 30.3503 37.9926C27.4324 38.1923 24.6567 37.5416 22.2952 36.5627C19.9246 35.5696 17.8762 34.2647 16.0606 32.8242C15.5593 32.4261 15.2901 32.2003 14.9199 31.8834L13.8859 30.9666C13.1894 30.4147 12.5144 29.7548 11.8249 29.2078C10.4492 28.044 9.08825 26.878 7.59617 25.8673C6.84386 25.3535 6.06784 24.8771 5.18793 24.4551C4.75077 24.2511 4.28641 24.0613 3.78789 23.9116C3.27752 23.743 2.75878 23.6427 2.14661 23.6216Z" fill="#FF4F0A"/>
<path fill-rule="evenodd" clip-rule="evenodd" d="M2.14661 23.6218C2.43317 21.2101 3.54386 18.9481 5.32389 17.0228C7.09486 15.1158 9.86148 13.6456 12.9314 13.4508C14.4465 13.3485 15.9846 13.5193 17.3986 13.9159C18.8063 14.3112 20.1254 14.8871 21.3142 15.5653C21.9082 15.9062 22.4639 16.2789 23.0175 16.655L24.4929 17.7857L26.7958 19.6249C28.2907 20.8297 29.7172 21.9441 31.0357 22.8645C32.3667 23.7862 33.5004 24.4595 34.5832 24.854C35.6563 25.2846 37.0117 25.3947 38.8036 24.9387C39.6932 24.7312 40.6212 24.3522 41.6113 23.9415C42.5958 23.5208 43.6179 23.019 44.7356 22.5214C44.601 23.734 44.3577 24.9415 43.8954 26.0701C43.4513 27.2141 42.8663 28.3335 42.0485 29.3773C41.6301 29.8855 41.1818 30.3965 40.6589 30.8679C40.136 31.3281 39.5566 31.765 38.9165 32.1482C37.6399 32.897 36.1255 33.444 34.5721 33.6388C33.0186 33.8364 31.4589 33.7376 30.0387 33.4327C28.6107 33.1363 27.3097 32.6585 26.1153 32.1066C23.735 30.9858 21.7437 29.5771 19.9832 28.0858C19.0991 27.3412 18.2701 26.5634 17.485 25.7737L16.5577 24.8314C16.2781 24.5583 15.9957 24.2838 15.7161 24.0325C14.5894 23.024 13.5436 22.2533 12.3917 21.7726C11.2483 21.2694 9.78478 21.0626 7.98941 21.4028C6.20101 21.7394 4.239 22.5222 2.14661 23.6218Z" fill="#FAFAFA"/>
<path fill-rule="evenodd" clip-rule="evenodd" d="M11.5813 36.0577C11.5813 36.7712 11.0095 37.3499 10.3046 37.3499C9.59972 37.3499 9.02869 36.7712 9.02869 36.0577C9.02869 35.3441 9.59972 34.7654 10.3046 34.7654C11.0095 34.7654 11.5813 35.3441 11.5813 36.0577Z" fill="#FAFAFA"/>
<path fill-rule="evenodd" clip-rule="evenodd" d="M11.5813 36.0577C11.5813 36.7712 11.0095 37.3499 10.3046 37.3499C9.59972 37.3499 9.02869 36.7712 9.02869 36.0577C9.02869 35.3441 9.59972 34.7654 10.3046 34.7654C11.0095 34.7654 11.5813 35.3441 11.5813 36.0577Z" fill="#FAFAFA"/>
<path fill-rule="evenodd" clip-rule="evenodd" d="M82.4124 24.6524C81.5534 24.0857 79.9944 23.3707 77.7354 22.5076C75.4757 21.6444 73.9076 20.8695 73.0298 20.1827C72.1527 19.496 71.7134 18.5475 71.7134 17.3378C71.7134 16.1281 72.1582 15.1739 73.0486 14.4744C73.9383 13.775 75.1117 13.4257 76.5682 13.4257C78.0247 13.4257 79.21 13.8258 80.1248 14.6255C81.0403 15.4258 81.4977 16.5628 81.4977 18.0372H85.064C85.064 15.5049 84.2357 13.5231 82.5805 12.0932C80.9245 10.6633 78.9304 9.9483 76.5961 9.9483C74.2625 9.9483 72.2795 10.6124 70.6494 11.9421C69.0186 13.2718 68.2035 15.0574 68.2035 17.3004C68.2035 19.0394 68.6261 20.4185 69.4732 21.4397C69.9208 21.9811 70.3503 22.4384 70.761 22.8096C71.1723 23.1816 72.0369 23.6919 73.3568 24.3405C74.6759 24.9898 75.7964 25.4274 76.7174 25.6539C78.4905 26.4246 79.9442 27.0528 80.8722 27.7331C81.7989 28.4135 82.2632 29.3494 82.2632 30.54C82.2632 31.7306 81.7807 32.6919 80.8158 33.4224C79.8515 34.1529 78.5198 34.5185 76.8206 34.5185C75.1215 34.5185 73.7361 34.0872 72.6658 33.2241C71.5949 32.3609 71.0601 31.1293 71.0601 29.5286H67.5126C67.5126 32.2127 68.4239 34.3046 70.2478 35.8037C72.0711 37.3034 74.2715 38.053 76.8485 38.053C79.4248 38.053 81.566 37.3663 83.2714 35.9928C84.9768 34.6194 85.8198 32.7484 85.8017 30.3791C85.7828 28.0105 84.6533 26.1014 82.4124 24.6524Z" fill="#26296E"/>
<path fill-rule="evenodd" clip-rule="evenodd" d="M106.027 10.7098H88.426V14.0975H95.4702V37.5476H98.9459V14.0975H106.027V10.7098Z" fill="#26296E"/>
<path fill-rule="evenodd" clip-rule="evenodd" d="M115.197 10.7098L105.416 37.5476H109.17C109.17 37.5476 110.123 34.5614 110.896 33.3405C114.256 28.0394 119.842 27.3929 121.637 27.4416L125.218 37.5476H128.971L119.172 10.7098H115.197ZM113.065 26.5537L117.194 14.9021L120.429 24.032C118.584 24.1689 115.895 24.7307 113.065 26.5537Z" fill="#26296E"/>
<path fill-rule="evenodd" clip-rule="evenodd" d="M174.766 10.7098H170.44L159.384 22.8745V10.7098H155.871V37.5476H159.384V24.6714L170.828 37.5476H175.136L163.063 23.792L174.766 10.7098Z" fill="#26296E"/>
<path fill-rule="evenodd" clip-rule="evenodd" d="M192.201 27.2727L181.866 10.7095H177.891V37.5473H183.123V20.9468L193.421 37.5473H197.396V10.7095H192.201V27.2727Z" fill="#26296E"/>
<path fill-rule="evenodd" clip-rule="evenodd" d="M205.862 26.4679H215.217V21.5274H205.862V15.7817H216.16V10.71H200.63V37.5471H216.345V32.4945H205.862V26.4679Z" fill="#26296E"/>
<path fill-rule="evenodd" clip-rule="evenodd" d="M219.03 10.7095V15.7819H225.389V37.5473H230.604V15.7819H237V10.7095H219.03Z" fill="#26296E"/>
<path fill-rule="evenodd" clip-rule="evenodd" d="M144.88 27.8858C144.344 27.3847 143.801 26.9492 143.257 26.566C144.966 26.3105 146.808 25.3647 147.994 23.829C149.076 22.4294 149.548 20.797 149.548 19.0382C149.548 16.7296 148.74 14.7647 147.126 13.1428C145.511 11.521 143.57 10.71 141.302 10.71H131.651V37.5471H135.163V27.4263C137.084 27.4715 139.941 27.962 142.566 30.4181C145.084 32.7768 146.824 35.7072 147.72 37.5457H151.451C150.678 35.5145 148.464 31.241 144.88 27.8858ZM141.302 14.0596C142.608 14.0596 143.724 14.5438 144.648 15.51C145.573 16.4769 146.034 17.6499 146.034 19.0283C146.034 20.4074 145.587 21.6037 144.648 22.5748C142.974 24.3068 139.105 23.9617 135.267 23.9793C135.232 23.9786 135.197 23.9772 135.163 23.9765V14.0596H141.302Z" fill="#26296E"/>
</svg>
