<svg width="184" height="60" viewBox="0 0 184 60" fill="none" xmlns="http://www.w3.org/2000/svg">
<path d="M90.4985 1.39973L79.7234 37.6561V58.2236H66.0351V37.6561L55.646 1.39973H69.229C71.3583 12.4673 72.5516 19.9199 72.809 23.7573C73.628 17.697 74.9968 10.2445 76.9155 1.39973H90.4985Z" fill="#EA2020"/>
<path d="M118.577 1.39973L127.036 58.2236H111.908L111.171 48.0101H105.871L104.994 58.2236H89.6912L97.2022 1.39973H118.577ZM110.75 37.9369C110.001 31.5022 109.253 23.5584 108.504 14.1053C107.006 24.9623 106.07 32.9062 105.696 37.9369H110.75Z" fill="#EA2020"/>
<path d="M163.468 22.3182H148.691V17.1588C148.691 13.9064 148.551 11.8707 148.27 11.0517C147.989 10.2328 147.322 9.82329 146.269 9.82329C145.357 9.82329 144.737 10.1743 144.409 10.8762C144.082 11.5782 143.918 13.3799 143.918 16.2813V43.5526C143.918 46.1031 144.082 47.7878 144.409 48.6068C144.737 49.4023 145.392 49.8001 146.375 49.8001C147.451 49.8001 148.176 49.3438 148.551 48.4313C148.949 47.5187 149.148 45.7404 149.148 43.0963V36.3575H146.164V27.7233H163.468V58.2236H154.167L152.798 54.1523C151.792 55.9072 150.516 57.2292 148.972 58.1184C147.451 58.9841 145.649 59.417 143.567 59.417C141.087 59.417 138.758 58.8203 136.582 57.627C134.43 56.4102 132.792 54.9127 131.669 53.1344C130.546 51.3561 129.844 49.4959 129.563 47.5538C129.282 45.5883 129.142 42.6518 129.142 38.7442V21.862C129.142 16.4334 129.434 12.4907 130.019 10.0339C130.604 7.577 132.277 5.33072 135.038 3.29503C137.823 1.23594 141.414 0.20639 145.813 0.20639C150.142 0.20639 153.734 1.09554 156.588 2.87385C159.443 4.65216 161.303 6.76975 162.169 9.22662C163.035 11.6601 163.468 15.205 163.468 19.8614V22.3182Z" fill="#EA2020"/>
<path d="M184 1.39973V58.2236H169.224V1.39973H184Z" fill="#EA2020"/>
<path d="M17.2515 30.9088H25.8772V58.2236H17.2515V30.9088Z" fill="#EA2020"/>
<path fill-rule="evenodd" clip-rule="evenodd" d="M19.3058 33.945C12.8818 27.5992 7.66887 18.679 1.95792 5.7666L8.53175 2.8591C14.1401 15.5396 18.9139 23.454 24.3573 28.8312C29.7044 34.1132 35.9441 37.186 45.0076 39.6616L43.1136 46.5956C33.3346 43.9246 25.8261 40.3859 19.3058 33.945Z" fill="#EA2020"/>
<path d="M12.9386 6.46929C12.9386 10.0422 10.0422 12.9386 6.46929 12.9386C2.8964 12.9386 0 10.0422 0 6.46929C0 2.8964 2.8964 0 6.46929 0C10.0422 0 12.9386 2.8964 12.9386 6.46929Z" fill="#EA2020"/>
<path d="M50.3167 43.1286C50.3167 46.7015 47.4203 49.5979 43.8474 49.5979C40.2745 49.5979 37.3781 46.7015 37.3781 43.1286C37.3781 39.5557 40.2745 36.6593 43.8474 36.6593C47.4203 36.6593 50.3167 39.5557 50.3167 43.1286Z" fill="#EA2020"/>
</svg>
