<svg width="118px" height="120px" fill="none" xmlns="http://www.w3.org/2000/svg" class="intro_headerLogo__r07lw" viewBox="0 0 220 217"><path d="M130.913 101.919v28.621a3.783 3.783 0 0 1-1.104 2.848 3.788 3.788 0 0 1-2.848 1.102H58.314c-6.159 0-10.435-1.177-13.072-3.6a12.81 12.81 0 0 1-4.018-9.879 12.512 12.512 0 0 1 1.391-5.791 19.036 19.036 0 0 1 3.511-4.718L73.64 83.116H3.307a110.15 110.15 0 0 0 14.53 86.883h171.708l-58.592-68.03-.04-.05Z" fill="url(#zkLend_logo_svg__a)"></path><path d="M130.913 1.992v86l.152-.193.161-.2 32.078-27.173a5.267 5.267 0 0 1 4.1-1.822h16.744a3.194 3.194 0 0 1 3.333 2.6 3.615 3.615 0 0 1-1.192 3.237l-.128.12-34.7 30.38 56.206 65.618a109.978 109.978 0 0 0 1.343-98.511 109.974 109.974 0 0 0-78.1-60.056h.003Z" fill="url(#zkLend_logo_svg__b)"></path><path d="M101.304 65.782c2.384 2.439 3.593 6.033 3.593 10.682a15.138 15.138 0 0 1-.964 5.624 12.53 12.53 0 0 1-2.779 4.241l-27.137 27.128h35.855V0a110.01 110.01 0 0 0-98.924 62.084h78.019c5.867 0 9.902 1.21 12.337 3.698Z" fill="url(#zkLend_logo_svg__c)"></path><path d="M22.018 223.523c-2.502 0-4.239-.447-5.21-1.339a4.731 4.731 0 0 1-1.459-3.662 4.563 4.563 0 0 1 .505-2.114 7.548 7.548 0 0 1 1.4-1.875l13.755-13.7a.75.75 0 0 0 .237-.536c0-.357-.338-.535-1.011-.535H16.659a.534.534 0 0 1-.58-.357.523.523 0 0 1-.02-.243v-6.073a.524.524 0 0 1 .358-.575.511.511 0 0 1 .242-.02h19.529c2.342 0 3.95.446 4.823 1.339a5.63 5.63 0 0 1 1.309 4.079 5.773 5.773 0 0 1-.356 2.143 4.54 4.54 0 0 1-1.013 1.548l-13.4 13.4a1.158 1.158 0 0 0-.417.774c0 .318.217.476.654.476h26.1a.515.515 0 0 1 .452.148.534.534 0 0 1 .148.452v6.073a.526.526 0 0 1-.6.595l-31.87.002Z" fill="#fff"></path><path d="M48.275 180.833h6.073a.523.523 0 0 1 .578.353c.026.078.033.16.022.242v41.5a.529.529 0 0 1-.6.595h-6.073a.531.531 0 0 1-.578-.353.527.527 0 0 1-.022-.242v-41.5a.526.526 0 0 1 .6-.595Zm18.283 12.146a1.338 1.338 0 0 1 1.1-.476h8.424c.215 0 .333.059.356.179.023.12-.056.258-.227.416L64.093 205.78a4.532 4.532 0 0 0-.291.3.498.498 0 0 0-.163.3.749.749 0 0 0 .163.358c.083.129.18.249.291.357l12.83 16.017c.216.278.151.416-.194.416H68.37a1.396 1.396 0 0 1-1.1-.536l-11.276-14.051a5.487 5.487 0 0 1-.776-1.221 3.087 3.087 0 0 1-.325-1.34 2.8 2.8 0 0 1 .325-1.16c.22-.465.503-.896.842-1.281l10.498-10.96ZM105.517 216.379v6.549a.525.525 0 0 1-.6.595H87.654a3.715 3.715 0 0 1-.714-.059c-3.295-.277-5.637-1.24-7.026-2.888-1.389-1.649-2.083-4.14-2.084-7.472v-31.676a.526.526 0 0 1 .6-.595h7.443a.519.519 0 0 1 .578.353c.026.077.034.16.022.242v32.39c0 1.31.774 1.965 2.322 1.965h16.129a.528.528 0 0 1 .593.596ZM114.805 212.092c-.005.58.161 1.149.476 1.637.337.516.772.961 1.28 1.31a6.47 6.47 0 0 0 1.936.893c.774.22 1.576.331 2.381.327h16.575a.524.524 0 0 1 .575.358c.025.078.032.16.02.242v6.073a.529.529 0 0 1-.595.595h-12.467a35.488 35.488 0 0 1-8.366-.833 12.603 12.603 0 0 1-5.418-2.65 9.915 9.915 0 0 1-2.917-4.614 23.003 23.003 0 0 1-.864-6.728 18.641 18.641 0 0 1 1.46-7.889 13.323 13.323 0 0 1 3.81-4.972 14.07 14.07 0 0 1 5.3-2.59 24.047 24.047 0 0 1 5.923-.744 20.881 20.881 0 0 1 6.372.863c1.627.487 3.13 1.32 4.406 2.441a9.391 9.391 0 0 1 2.53 3.84c.554 1.629.825 3.341.8 5.062v6.192a.523.523 0 0 1-.353.578.537.537 0 0 1-.242.022h-22.026a.524.524 0 0 0-.596.587Zm15.9-7.562a.524.524 0 0 0 .574-.358.523.523 0 0 0 .02-.242 4.106 4.106 0 0 0-2.083-3.6 10.76 10.76 0 0 0-5.835-1.339c-.894.012-1.784.132-2.65.357-.964.234-1.901.563-2.8.982a7.46 7.46 0 0 0-2.234 1.548 2.896 2.896 0 0 0-.892 2.054.526.526 0 0 0 .6.6l15.3-.002ZM150.29 221.618c0 1.27-.556 1.905-1.667 1.905h-3.99a1.299 1.299 0 0 1-1.22-.714 3.428 3.428 0 0 1-.387-1.667v-24.709a3.765 3.765 0 0 1 1.221-2.71 4.215 4.215 0 0 1 3.125-1.22h13.457a9.31 9.31 0 0 1 3.989.863 11.082 11.082 0 0 1 3.245 2.292 10.428 10.428 0 0 1 2.174 3.275 9.8 9.8 0 0 1 .774 3.811v20.184c0 .4-.22.595-.656.595h-6.013a.536.536 0 0 1-.45-.147.527.527 0 0 1-.15-.448v-18.934a5.768 5.768 0 0 0-.447-2.441 3.549 3.549 0 0 0-1.25-1.489 5.112 5.112 0 0 0-1.875-.744 12.142 12.142 0 0 0-2.322-.209h-5.776a1.859 1.859 0 0 0-1.22.477 1.335 1.335 0 0 0-.566 1.012l.004 21.018ZM197.387 191.907v-10.479a.518.518 0 0 1 .149-.447.532.532 0 0 1 .446-.148h6.073a.525.525 0 0 1 .6.595v41.5a.524.524 0 0 1-.358.575.536.536 0 0 1-.242.02h-18.516a8.126 8.126 0 0 1-4.883-1.458 11.801 11.801 0 0 1-3.334-3.721 17.96 17.96 0 0 1-1.936-4.943 22.767 22.767 0 0 1-.625-5.18c-.018-2.16.191-4.315.625-6.43.344-1.76.999-3.443 1.936-4.971a9.273 9.273 0 0 1 3.334-3.186 9.862 9.862 0 0 1 4.883-1.131h11.252a.533.533 0 0 0 .447-.149.532.532 0 0 0 .149-.447Zm0 8.455a.521.521 0 0 0-.15-.449.522.522 0 0 0-.45-.146h-6.489a15.97 15.97 0 0 0-3.364.327 5.948 5.948 0 0 0-2.621 1.251 5.849 5.849 0 0 0-1.7 2.589 12.948 12.948 0 0 0-.594 4.287 11.27 11.27 0 0 0 .594 3.99c.336.943.91 1.784 1.667 2.441a6.203 6.203 0 0 0 2.591 1.25c1.124.25 2.273.369 3.424.357h6.489a.536.536 0 0 0 .45-.147.527.527 0 0 0 .15-.448l.003-15.302Z" fill="#fff"></path><defs><linearGradient id="zkLend_logo_svg__a" x1="93.635" y1="198.497" x2="94.551" y2="-18.378" gradientUnits="userSpaceOnUse"><stop stop-color="#5286D8"></stop><stop offset="1" stop-color="#1B2395"></stop></linearGradient><linearGradient id="zkLend_logo_svg__b" x1="172.425" y1="200.201" x2="186.775" y2="-16.068" gradientUnits="userSpaceOnUse"><stop stop-color="#5286D8"></stop><stop offset="1" stop-color="#1B2395"></stop></linearGradient><linearGradient id="zkLend_logo_svg__c" x1="58.135" y1="197.756" x2="64.119" y2="-19.021" gradientUnits="userSpaceOnUse"><stop stop-color="#5286D8"></stop><stop offset="1" stop-color="#1B2395"></stop></linearGradient></defs></svg>
