<svg height="40" width="40" viewBox="0 0 346 187" fill="none" xmlns="http://www.w3.org/2000/svg"><path fill-rule="evenodd" clip-rule="evenodd" d="M253.68 112.734C232.302 120.804 211.587 116.335 201.158 103.065C204.569 84.5662 220.273 66.3502 241.649 58.2803C263.027 50.2104 283.744 54.6768 294.174 67.9491C290.763 86.4478 275.058 104.664 253.68 112.734ZM92.3199 112.734C70.9432 104.664 55.2385 86.4478 51.826 67.9491C62.256 54.6768 82.9727 50.2104 104.351 58.2803C125.729 66.3502 141.432 84.5662 144.843 103.065C134.413 116.335 113.698 120.804 92.3199 112.734ZM345.957 19.1884C320.685 -2.22731 255.488 -8.33296 211.324 14.4595C203.304 18.5973 195.148 23.0049 187.528 28.5047C178.525 35.0032 167.477 35.0032 158.472 28.5047C150.854 23.0049 142.697 18.5973 134.676 14.4595C90.5125 -8.33296 25.3151 -2.22731 0.0426258 19.1884C-1.39134 120.22 33.5248 176.603 79.004 185.247C108.946 190.938 134.562 182.413 154.407 164.894C165.592 155.018 180.409 155.018 191.596 164.894C211.441 182.413 237.057 190.938 266.996 185.247C312.479 176.603 347.393 120.22 345.957 19.1884Z" fill="#805AD5"></path></svg>
